TwilioSansMono-Light.ufo
<glyph name="exclam" format="2">
	<unicode hex="0021"/>
	<advance width="600"/>
	<outline>
		<contour>
			<point x="280" y="182" type="line"/>
			<point x="320" y="182" type="line"/>
			<point x="331" y="529" type="line"/>
			<point x="331" y="684" type="line"/>
			<point x="269" y="684" type="line"/>
			<point x="269" y="530" type="line"/>
		</contour>
		<contour>
			<point x="300" y="-12" type="curve" smooth="yes"/>
			<point x="335" y="-12"/>
			<point x="353" y="2"/>
			<point x="353" y="36" type="curve" smooth="yes"/>
			<point x="353" y="70"/>
			<point x="335" y="84"/>
			<point x="300" y="84" type="curve" smooth="yes"/>
			<point x="265" y="84"/>
			<point x="247" y="70"/>
			<point x="247" y="36" type="curve" smooth="yes"/>
			<point x="247" y="2"/>
			<point x="265" y="-12"/>
		</contour>
	</outline>
	<guideline x="41" y="44" angle="90"/>
	<guideline x="126" y="44" angle="90"/>
</glyph>
<glyph name="dollar" format="2">
	<unicode hex="0024"/>
	<advance width="600"/>
	<outline>
		<contour>
			<point x="207" y="-93" type="line"/>
			<point x="256" y="-93" type="line"/>
			<point x="268" y="-9" type="line"/>
			<point x="285" y="-11"/>
			<point x="302" y="-12"/>
			<point x="320" y="-12" type="curve" smooth="yes"/>
			<point x="445" y="-12"/>
			<point x="540" y="62"/>
			<point x="540" y="190" type="curve" smooth="yes"/>
			<point x="540" y="331"/>
			<point x="432" y="348"/>
			<point x="324" y="364" type="curve"/>
			<point x="367" y="642" type="line"/>
			<point x="425" y="632"/>
			<point x="480" y="608"/>
			<point x="522" y="571" type="curve"/>
			<point x="522" y="628" type="line"/>
			<point x="486" y="656"/>
			<point x="440" y="679"/>
			<point x="375" y="690" type="curve"/>
			<point x="388" y="774" type="line"/>
			<point x="339" y="774" type="line"/>
			<point x="327" y="695" type="line"/>
			<point x="316" y="696"/>
			<point x="305" y="696"/>
			<point x="294" y="696" type="curve" smooth="yes"/>
			<point x="160" y="696"/>
			<point x="63" y="625"/>
			<point x="63" y="496" type="curve" smooth="yes"/>
			<point x="63" y="359"/>
			<point x="165" y="333"/>
			<point x="269" y="317" type="curve"/>
			<point x="228" y="47" type="line"/>
			<point x="164" y="62"/>
			<point x="112" y="94"/>
			<point x="70" y="137" type="curve"/>
			<point x="70" y="75" type="line"/>
			<point x="110" y="40"/>
			<point x="157" y="12"/>
			<point x="221" y="-2" type="curve"/>
		</contour>
		<contour>
			<point x="119" y="498" type="curve" smooth="yes"/>
			<point x="119" y="596"/>
			<point x="190" y="649"/>
			<point x="293" y="649" type="curve" smooth="yes"/>
			<point x="302" y="649"/>
			<point x="311" y="649"/>
			<point x="320" y="648" type="curve"/>
			<point x="278" y="371" type="line"/>
			<point x="187" y="385"/>
			<point x="119" y="405"/>
		</contour>
		<contour>
			<point x="482" y="189" type="curve" smooth="yes"/>
			<point x="482" y="84"/>
			<point x="415" y="37"/>
			<point x="319" y="37" type="curve" smooth="yes"/>
			<point x="304" y="37"/>
			<point x="290" y="38"/>
			<point x="276" y="39" type="curve"/>
			<point x="316" y="310" type="line"/>
			<point x="411" y="297"/>
			<point x="482" y="285"/>
		</contour>
	</outline>
</glyph>
<glyph name="ampersand" format="2">
	<unicode hex="0026"/>
	<advance width="600"/>
	<outline>
		<contour>
			<point x="228" y="-14" type="curve" smooth="yes"/>
			<point x="317" y="-14"/>
			<point x="390" y="25"/>
			<point x="444" y="91" type="curve"/>
			<point x="533" y="0" type="line"/>
			<point x="607" y="-1" type="line"/>
			<point x="475" y="134" type="line"/>
			<point x="518" y="201"/>
			<point x="546" y="286"/>
			<point x="560" y="379" type="curve"/>
			<point x="509" y="379" type="line"/>
			<point x="496" y="302"/>
			<point x="474" y="228"/>
			<point x="441" y="169" type="curve"/>
			<point x="241" y="374" type="line" smooth="yes"/>
			<point x="197" y="419"/>
			<point x="155" y="458"/>
			<point x="155" y="530" type="curve" smooth="yes"/>
			<point x="155" y="604"/>
			<point x="204" y="650"/>
			<point x="289" y="650" type="curve" smooth="yes"/>
			<point x="361" y="650"/>
			<point x="436" y="619"/>
			<point x="484" y="581" type="curve"/>
			<point x="484" y="638" type="line"/>
			<point x="439" y="670"/>
			<point x="366" y="698"/>
			<point x="291" y="698" type="curve" smooth="yes"/>
			<point x="168" y="698"/>
			<point x="100" y="624"/>
			<point x="100" y="524" type="curve" smooth="yes"/>
			<point x="100" y="472"/>
			<point x="118" y="435"/>
			<point x="143" y="402" type="curve"/>
			<point x="84" y="365"/>
			<point x="19" y="292"/>
			<point x="19" y="187" type="curve" smooth="yes"/>
			<point x="19" y="53"/>
			<point x="111" y="-14"/>
		</contour>
		<contour>
			<point x="75" y="192" type="curve" smooth="yes"/>
			<point x="75" y="274"/>
			<point x="117" y="333"/>
			<point x="174" y="367" type="curve"/>
			<point x="184" y="356"/>
			<point x="194" y="346"/>
			<point x="205" y="335" type="curve" smooth="yes"/>
			<point x="411" y="124" type="line"/>
			<point x="368" y="69"/>
			<point x="310" y="34"/>
			<point x="234" y="34" type="curve" smooth="yes"/>
			<point x="135" y="34"/>
			<point x="75" y="93"/>
		</contour>
	</outline>
</glyph>
<glyph name="parenleft" format="2">
	<unicode hex="0028"/>
	<advance width="600"/>
	<outline>
		<contour>
			<point x="463" y="-168" type="curve"/>
			<point x="482" y="-121" type="line"/>
			<point x="305" y="-49"/>
			<point x="233" y="98"/>
			<point x="233" y="316" type="curve" smooth="yes"/>
			<point x="233" y="524"/>
			<point x="298" y="676"/>
			<point x="482" y="751" type="curve"/>
			<point x="463" y="798" type="line"/>
			<point x="261" y="707"/>
			<point x="179" y="555"/>
			<point x="179" y="316" type="curve" smooth="yes"/>
			<point x="179" y="83"/>
			<point x="255" y="-73"/>
		</contour>
	</outline>
</glyph>
<glyph name="parenright" format="2">
	<unicode hex="0029"/>
	<advance width="600"/>
	<outline>
		<contour>
			<point x="118" y="-121" type="curve"/>
			<point x="138" y="-168" type="line"/>
			<point x="346" y="-74"/>
			<point x="421" y="85"/>
			<point x="421" y="315" type="curve" smooth="yes"/>
			<point x="421" y="547"/>
			<point x="344" y="704"/>
			<point x="138" y="798" type="curve"/>
			<point x="118" y="751" type="line"/>
			<point x="307" y="673"/>
			<point x="366" y="515"/>
			<point x="366" y="315" type="curve" smooth="yes"/>
			<point x="366" y="114"/>
			<point x="307" y="-44"/>
		</contour>
	</outline>
</glyph>
<glyph name="plus" format="2">
	<unicode hex="002B"/>
	<advance width="600"/>
	<outline>
		<contour>
			<point x="274" y="536" type="line"/>
			<point x="274" y="339" type="line"/>
			<point x="80" y="339" type="line"/>
			<point x="80" y="288" type="line"/>
			<point x="274" y="288" type="line"/>
			<point x="274" y="90" type="line"/>
			<point x="325" y="90" type="line"/>
			<point x="325" y="288" type="line"/>
			<point x="520" y="288" type="line"/>
			<point x="520" y="339" type="line"/>
			<point x="325" y="339" type="line"/>
			<point x="325" y="536" type="line"/>
		</contour>
	</outline>
</glyph>
<glyph name="slash" format="2">
	<unicode hex="002F"/>
	<advance width="600"/>
	<outline>
		<contour>
			<point x="468" y="792" type="line"/>
			<point x="75" y="-163" type="line"/>
			<point x="131" y="-163" type="line"/>
			<point x="525" y="792" type="line"/>
		</contour>
	</outline>
</glyph>
<glyph name="one" format="2">
	<unicode hex="0031"/>
	<advance width="600"/>
	<outline>
		<contour>
			<point x="65" y="0" type="line"/>
			<point x="558" y="0" type="line"/>
			<point x="558" y="49" type="line"/>
			<point x="351" y="49" type="line"/>
			<point x="351" y="684" type="line"/>
			<point x="291" y="684" type="line"/>
			<point x="65" y="506" type="line"/>
			<point x="65" y="445" type="line"/>
			<point x="296" y="626" type="line"/>
			<point x="296" y="49" type="line"/>
			<point x="65" y="49" type="line"/>
		</contour>
	</outline>
</glyph>
<glyph name="three" format="2">
	<unicode hex="0033"/>
	<advance width="600"/>
	<outline>
		<contour>
			<point x="292" y="-14" type="curve" smooth="yes"/>
			<point x="432" y="-14"/>
			<point x="519" y="75"/>
			<point x="519" y="211" type="curve" smooth="yes"/>
			<point x="519" y="342"/>
			<point x="439" y="406"/>
			<point x="303" y="406" type="curve" smooth="yes"/>
			<point x="280" y="406"/>
			<point x="259" y="403"/>
			<point x="242" y="399" type="curve"/>
			<point x="511" y="640" type="line"/>
			<point x="511" y="684" type="line"/>
			<point x="80" y="684" type="line"/>
			<point x="80" y="635" type="line"/>
			<point x="438" y="635" type="line"/>
			<point x="155" y="382" type="line"/>
			<point x="155" y="329" type="line"/>
			<point x="190" y="345"/>
			<point x="235" y="358"/>
			<point x="294" y="358" type="curve" smooth="yes"/>
			<point x="408" y="358"/>
			<point x="462" y="310"/>
			<point x="462" y="207" type="curve" smooth="yes"/>
			<point x="462" y="107"/>
			<point x="410" y="35"/>
			<point x="296" y="35" type="curve" smooth="yes"/>
			<point x="219" y="35"/>
			<point x="144" y="65"/>
			<point x="78" y="124" type="curve"/>
			<point x="78" y="64" type="line"/>
			<point x="117" y="28"/>
			<point x="192" y="-14"/>
		</contour>
	</outline>
	<guideline x="240" y="40" angle="0"/>
</glyph>
<glyph name="four" format="2">
	<unicode hex="0034"/>
	<advance width="600"/>
	<outline>
		<contour>
			<point x="404" y="0" type="line"/>
			<point x="458" y="0" type="line"/>
			<point x="458" y="151" type="line"/>
			<point x="545" y="151" type="line"/>
			<point x="545" y="200" type="line"/>
			<point x="458" y="200" type="line"/>
			<point x="458" y="688" type="line"/>
			<point x="391" y="688" type="line"/>
			<point x="39" y="200" type="line"/>
			<point x="39" y="151" type="line"/>
			<point x="404" y="151" type="line"/>
		</contour>
		<contour>
			<point x="99" y="200" type="line"/>
			<point x="404" y="622" type="line"/>
			<point x="404" y="200" type="line"/>
		</contour>
	</outline>
</glyph>
<glyph name="six" format="2">
	<unicode hex="0036"/>
	<advance width="600"/>
	<outline>
		<contour>
			<point x="306" y="-14" type="curve" smooth="yes"/>
			<point x="450" y="-14"/>
			<point x="535" y="88"/>
			<point x="535" y="225" type="curve" smooth="yes"/>
			<point x="535" y="349"/>
			<point x="470" y="438"/>
			<point x="319" y="438" type="curve" smooth="yes"/>
			<point x="223" y="438"/>
			<point x="153" y="397"/>
			<point x="120" y="305" type="curve"/>
			<point x="121" y="523"/>
			<point x="160" y="650"/>
			<point x="332" y="650" type="curve" smooth="yes"/>
			<point x="399" y="650"/>
			<point x="481" y="624"/>
			<point x="524" y="585" type="curve"/>
			<point x="524" y="642" type="line"/>
			<point x="486" y="670"/>
			<point x="411" y="698"/>
			<point x="331" y="698" type="curve" smooth="yes"/>
			<point x="104" y="698"/>
			<point x="63" y="499"/>
			<point x="63" y="329" type="curve" smooth="yes"/>
			<point x="63" y="315" type="line" smooth="yes"/>
			<point x="63" y="143"/>
			<point x="103" y="-14"/>
		</contour>
		<contour>
			<point x="306" y="34" type="curve" smooth="yes"/>
			<point x="189" y="34"/>
			<point x="126" y="120"/>
			<point x="126" y="224" type="curve" smooth="yes"/>
			<point x="126" y="329"/>
			<point x="202" y="391"/>
			<point x="309" y="391" type="curve" smooth="yes"/>
			<point x="420" y="391"/>
			<point x="478" y="336"/>
			<point x="478" y="222" type="curve" smooth="yes"/>
			<point x="478" y="101"/>
			<point x="410" y="34"/>
		</contour>
	</outline>
</glyph>
<glyph name="seven" format="2">
	<unicode hex="0037"/>
	<advance width="600"/>
	<outline>
		<contour>
			<point x="153" y="0" type="line"/>
			<point x="213" y="0" type="line"/>
			<point x="547" y="635" type="line"/>
			<point x="547" y="684" type="line"/>
			<point x="71" y="684" type="line"/>
			<point x="71" y="499" type="line"/>
			<point x="123" y="499" type="line"/>
			<point x="123" y="635" type="line"/>
			<point x="486" y="635" type="line"/>
		</contour>
	</outline>
</glyph>
<glyph name="eight" format="2">
	<unicode hex="0038"/>
	<advance width="600"/>
	<outline>
		<contour>
			<point x="300" y="-14" type="curve" smooth="yes"/>
			<point x="442" y="-14"/>
			<point x="543" y="49"/>
			<point x="543" y="183" type="curve" smooth="yes"/>
			<point x="543" y="296"/>
			<point x="466" y="340"/>
			<point x="399" y="351" type="curve"/>
			<point x="464" y="363"/>
			<point x="530" y="412"/>
			<point x="530" y="512" type="curve" smooth="yes"/>
			<point x="530" y="639"/>
			<point x="437" y="698"/>
			<point x="300" y="698" type="curve" smooth="yes"/>
			<point x="163" y="698"/>
			<point x="70" y="639"/>
			<point x="70" y="512" type="curve" smooth="yes"/>
			<point x="70" y="412"/>
			<point x="135" y="363"/>
			<point x="199" y="351" type="curve"/>
			<point x="133" y="341"/>
			<point x="57" y="296"/>
			<point x="57" y="183" type="curve" smooth="yes"/>
			<point x="57" y="49"/>
			<point x="158" y="-14"/>
		</contour>
		<contour>
			<point x="300" y="374" type="curve" smooth="yes"/>
			<point x="197" y="374"/>
			<point x="126" y="410"/>
			<point x="126" y="510" type="curve" smooth="yes"/>
			<point x="126" y="613"/>
			<point x="197" y="651"/>
			<point x="300" y="651" type="curve" smooth="yes"/>
			<point x="403" y="651"/>
			<point x="474" y="613"/>
			<point x="474" y="510" type="curve" smooth="yes"/>
			<point x="474" y="410"/>
			<point x="403" y="374"/>
		</contour>
		<contour>
			<point x="300" y="34" type="curve" smooth="yes"/>
			<point x="190" y="34"/>
			<point x="115" y="79"/>
			<point x="115" y="189" type="curve" smooth="yes"/>
			<point x="115" y="293"/>
			<point x="186" y="325"/>
			<point x="300" y="325" type="curve" smooth="yes"/>
			<point x="414" y="325"/>
			<point x="485" y="293"/>
			<point x="485" y="189" type="curve" smooth="yes"/>
			<point x="485" y="79"/>
			<point x="410" y="34"/>
		</contour>
	</outline>
	<guideline x="387" y="343" angle="90"/>
	<guideline x="374" y="681" angle="90"/>
	<guideline x="70" y="640" angle="0"/>
</glyph>
<glyph name="nine" format="2">
	<unicode hex="0039"/>
	<advance width="600"/>
	<outline>
		<contour>
			<point x="274" y="-14" type="curve" smooth="yes"/>
			<point x="497" y="-14"/>
			<point x="537" y="185"/>
			<point x="537" y="357" type="curve" smooth="yes"/>
			<point x="537" y="369" type="line" smooth="yes"/>
			<point x="537" y="541"/>
			<point x="498" y="698"/>
			<point x="296" y="698" type="curve" smooth="yes"/>
			<point x="152" y="698"/>
			<point x="65" y="598"/>
			<point x="65" y="461" type="curve" smooth="yes"/>
			<point x="65" y="337"/>
			<point x="132" y="245"/>
			<point x="282" y="245" type="curve" smooth="yes"/>
			<point x="380" y="245"/>
			<point x="448" y="292"/>
			<point x="479" y="377" type="curve"/>
			<point x="479" y="157"/>
			<point x="436" y="34"/>
			<point x="273" y="34" type="curve" smooth="yes"/>
			<point x="204" y="34"/>
			<point x="120" y="63"/>
			<point x="76" y="107" type="curve"/>
			<point x="76" y="49" type="line"/>
			<point x="115" y="18"/>
			<point x="189" y="-14"/>
		</contour>
		<contour>
			<point x="293" y="293" type="curve" smooth="yes"/>
			<point x="184" y="293"/>
			<point x="122" y="349"/>
			<point x="122" y="463" type="curve" smooth="yes"/>
			<point x="122" y="584"/>
			<point x="190" y="650"/>
			<point x="296" y="650" type="curve" smooth="yes"/>
			<point x="415" y="650"/>
			<point x="474" y="564"/>
			<point x="474" y="460" type="curve" smooth="yes"/>
			<point x="474" y="355"/>
			<point x="398" y="293"/>
		</contour>
	</outline>
</glyph>
<glyph name="greater" format="2">
	<unicode hex="003E"/>
	<advance width="600"/>
	<outline>
		<contour>
			<point x="80" y="59" type="line"/>
			<point x="520" y="284" type="line"/>
			<point x="520" y="343" type="line"/>
			<point x="80" y="568" type="line"/>
			<point x="80" y="509" type="line"/>
			<point x="469" y="313" type="line"/>
			<point x="80" y="119" type="line"/>
		</contour>
	</outline>
</glyph>
<glyph name="at" format="2">
	<unicode hex="0040"/>
	<advance width="600"/>
	<outline>
		<contour>
			<point x="365" y="-134" type="curve" smooth="yes"/>
			<point x="435" y="-134"/>
			<point x="497" y="-121"/>
			<point x="537" y="-98" type="curve"/>
			<point x="537" y="-50" type="line"/>
			<point x="490" y="-75"/>
			<point x="438" y="-85"/>
			<point x="365" y="-85" type="curve" smooth="yes"/>
			<point x="177" y="-85"/>
			<point x="102" y="66"/>
			<point x="102" y="292" type="curve" smooth="yes"/>
			<point x="102" y="299" type="line" smooth="yes"/>
			<point x="102" y="525"/>
			<point x="183" y="651"/>
			<point x="328" y="651" type="curve" smooth="yes"/>
			<point x="458" y="651"/>
			<point x="489" y="578"/>
			<point x="489" y="482" type="curve" smooth="yes"/>
			<point x="489" y="396" type="line"/>
			<point x="468" y="455"/>
			<point x="423" y="492"/>
			<point x="360" y="492" type="curve" smooth="yes"/>
			<point x="264" y="492"/>
			<point x="203" y="411"/>
			<point x="203" y="277" type="curve" smooth="yes"/>
			<point x="203" y="142"/>
			<point x="262" y="64"/>
			<point x="359" y="64" type="curve" smooth="yes"/>
			<point x="432" y="64"/>
			<point x="474" y="106"/>
			<point x="490" y="174" type="curve"/>
			<point x="490" y="67" type="line"/>
			<point x="537" y="67" type="line"/>
			<point x="537" y="482" type="line" smooth="yes"/>
			<point x="537" y="613"/>
			<point x="482" y="698"/>
			<point x="329" y="698" type="curve" smooth="yes"/>
			<point x="146" y="698"/>
			<point x="52" y="540"/>
			<point x="52" y="303" type="curve" smooth="yes"/>
			<point x="52" y="289" type="line" smooth="yes"/>
			<point x="52" y="8"/>
			<point x="161" y="-134"/>
		</contour>
		<contour>
			<point x="367" y="109" type="curve" smooth="yes"/>
			<point x="292" y="109"/>
			<point x="252" y="171"/>
			<point x="252" y="278" type="curve" smooth="yes"/>
			<point x="252" y="384"/>
			<point x="292" y="447"/>
			<point x="367" y="447" type="curve" smooth="yes"/>
			<point x="437" y="447"/>
			<point x="491" y="384"/>
			<point x="491" y="277" type="curve" smooth="yes"/>
			<point x="491" y="171"/>
			<point x="445" y="109"/>
		</contour>
	</outline>
</glyph>
<glyph name="A" format="2">
	<unicode hex="0041"/>
	<advance width="600"/>
	<outline>
		<contour>
			<point x="30" y="0" type="line"/>
			<point x="89" y="0" type="line"/>
			<point x="152" y="193" type="line"/>
			<point x="446" y="193" type="line"/>
			<point x="511" y="0" type="line"/>
			<point x="570" y="0" type="line"/>
			<point x="331" y="688" type="line"/>
			<point x="264" y="688" type="line"/>
		</contour>
		<contour>
			<point x="168" y="242" type="line"/>
			<point x="297" y="633" type="line"/>
			<point x="429" y="242" type="line"/>
		</contour>
	</outline>
	<anchor name="bottom" x="302" y="0"/>
	<anchor name="ogonek" x="570" y="0"/>
	<anchor name="top" x="298" y="684"/>
	<guideline x="643" y="0" angle="0"/>
	<guideline x="361" y="401" angle="0"/>
</glyph>
<glyph name="B" format="2">
	<unicode hex="0042"/>
	<advance width="600"/>
	<outline>
		<contour>
			<point x="335" y="685" type="curve" smooth="yes"/>
			<point x="90" y="685" type="line"/>
			<point x="90" y="0" type="line"/>
			<point x="337" y="0" type="line" smooth="yes"/>
			<point x="475" y="0"/>
			<point x="533" y="81"/>
			<point x="533" y="184" type="curve" smooth="yes"/>
			<point x="533" y="275"/>
			<point x="488" y="335"/>
			<point x="397" y="350" type="curve"/>
			<point x="475" y="368"/>
			<point x="520" y="428"/>
			<point x="520" y="509" type="curve" smooth="yes"/>
			<point x="520" y="619"/>
			<point x="459" y="685"/>
		</contour>
		<contour>
			<point x="327" y="636" type="line" smooth="yes"/>
			<point x="425" y="636"/>
			<point x="464" y="584"/>
			<point x="464" y="506" type="curve" smooth="yes"/>
			<point x="464" y="430"/>
			<point x="417" y="371"/>
			<point x="326" y="371" type="curve" smooth="yes"/>
			<point x="145" y="371" type="line"/>
			<point x="145" y="636" type="line"/>
		</contour>
		<contour>
			<point x="327" y="322" type="line" smooth="yes"/>
			<point x="440" y="322"/>
			<point x="476" y="259"/>
			<point x="476" y="184" type="curve" smooth="yes"/>
			<point x="476" y="120"/>
			<point x="448" y="50"/>
			<point x="331" y="50" type="curve" smooth="yes"/>
			<point x="145" y="50" type="line"/>
			<point x="145" y="322" type="line"/>
		</contour>
	</outline>
	<anchor name="bottom" x="332" y="0"/>
	<anchor name="top" x="316" y="684"/>
	<guideline x="605" y="534" angle="0"/>
	<guideline x="214" y="229" angle="90"/>
	<guideline x="568" y="196" angle="0"/>
</glyph>
<glyph name="C" format="2">
	<unicode hex="0043"/>
	<advance width="600"/>
	<outline>
		<contour>
			<point x="374" y="-12" type="curve" smooth="yes"/>
			<point x="444" y="-11"/>
			<point x="484" y="-2"/>
			<point x="528" y="26" type="curve"/>
			<point x="528" y="80" type="line"/>
			<point x="477" y="43"/>
			<point x="418" y="37"/>
			<point x="377" y="37" type="curve" smooth="yes"/>
			<point x="222" y="37"/>
			<point x="130" y="138"/>
			<point x="130" y="337" type="curve" smooth="yes"/>
			<point x="130" y="344" type="line" smooth="yes"/>
			<point x="130" y="541"/>
			<point x="221" y="647"/>
			<point x="378" y="647" type="curve" smooth="yes"/>
			<point x="424" y="647"/>
			<point x="477" y="638"/>
			<point x="525" y="608" type="curve"/>
			<point x="525" y="665" type="line"/>
			<point x="486" y="684"/>
			<point x="437" y="696"/>
			<point x="375" y="696" type="curve" smooth="yes"/>
			<point x="187" y="696"/>
			<point x="72" y="566"/>
			<point x="72" y="350" type="curve" smooth="yes"/>
			<point x="72" y="336" type="line" smooth="yes"/>
			<point x="72" y="107"/>
			<point x="184" y="-13"/>
		</contour>
	</outline>
	<anchor name="bottom" x="358" y="0"/>
	<anchor name="top" x="370" y="684"/>
	<guideline x="573" y="485" angle="90"/>
	<guideline x="145" y="361" angle="0"/>
	<guideline x="379" y="116" angle="90"/>
</glyph>
<glyph name="F" format="2">
	<unicode hex="0046"/>
	<advance width="600"/>
	<outline>
		<contour>
			<point x="106" y="0" type="line"/>
			<point x="161" y="1" type="line"/>
			<point x="161" y="318" type="line"/>
			<point x="496" y="318" type="line"/>
			<point x="496" y="367" type="line"/>
			<point x="161" y="367" type="line"/>
			<point x="161" y="635" type="line"/>
			<point x="530" y="635" type="line"/>
			<point x="530" y="684" type="line"/>
			<point x="106" y="684" type="line"/>
		</contour>
	</outline>
	<anchor name="bottom" x="331" y="0"/>
	<anchor name="ogonek" x="561" y="0"/>
	<anchor name="top" x="323" y="684"/>
</glyph>
<glyph name="H" format="2">
	<unicode hex="0048"/>
	<advance width="600"/>
	<outline>
		<contour>
			<point x="85" y="0" type="line"/>
			<point x="140" y="0" type="line"/>
			<point x="140" y="320" type="line"/>
			<point x="460" y="320" type="line"/>
			<point x="460" y="0" type="line"/>
			<point x="515" y="0" type="line"/>
			<point x="515" y="684" type="line"/>
			<point x="460" y="684" type="line"/>
			<point x="460" y="369" type="line"/>
			<point x="140" y="369" type="line"/>
			<point x="140" y="684" type="line"/>
			<point x="85" y="684" type="line"/>
		</contour>
	</outline>
	<anchor name="bottom" x="284" y="0"/>
	<anchor name="center" x="299" y="517"/>
	<anchor name="top" x="299" y="684"/>
</glyph>
<glyph name="M" format="2">
	<unicode hex="004D"/>
	<advance width="600"/>
	<outline>
		<contour>
			<point x="74" y="0" type="line"/>
			<point x="127" y="0" type="line"/>
			<point x="127" y="471" type="line" smooth="yes"/>
			<point x="127" y="474"/>
			<point x="126" y="583"/>
			<point x="124" y="630" type="curve"/>
			<point x="128" y="630" type="line"/>
			<point x="266" y="195" type="line"/>
			<point x="331" y="195" type="line"/>
			<point x="473" y="630" type="line"/>
			<point x="477" y="630" type="line"/>
			<point x="476" y="587"/>
			<point x="473" y="522"/>
			<point x="473" y="471" type="curve" smooth="yes"/>
			<point x="473" y="0" type="line"/>
			<point x="526" y="0" type="line"/>
			<point x="526" y="685" type="line"/>
			<point x="437" y="685" type="line"/>
			<point x="302" y="256" type="line"/>
			<point x="298" y="256" type="line"/>
			<point x="164" y="685" type="line"/>
			<point x="74" y="685" type="line"/>
		</contour>
	</outline>
	<guideline x="282" y="721" angle="0"/>
	<guideline x="929" y="139" angle="0"/>
</glyph>
<glyph name="N" format="2">
	<unicode hex="004E"/>
	<advance width="600"/>
	<outline>
		<contour>
			<point x="85" y="0" type="line"/>
			<point x="138" y="0" type="line"/>
			<point x="138" y="401" type="line" smooth="yes"/>
			<point x="138" y="499"/>
			<point x="136" y="556"/>
			<point x="133" y="616" type="curve"/>
			<point x="138" y="616" type="line"/>
			<point x="437" y="0" type="line"/>
			<point x="515" y="0" type="line"/>
			<point x="515" y="685" type="line"/>
			<point x="462" y="685" type="line"/>
			<point x="462" y="285" type="line" smooth="yes"/>
			<point x="462" y="186"/>
			<point x="464" y="129"/>
			<point x="468" y="68" type="curve"/>
			<point x="463" y="68" type="line"/>
			<point x="163" y="685" type="line"/>
			<point x="85" y="685" type="line"/>
		</contour>
	</outline>
	<anchor name="bottom" x="283" y="0"/>
	<anchor name="top" x="318" y="684"/>
	<guideline x="480" y="521" angle="0"/>
	<guideline x="565" y="0" angle="0"/>
</glyph>
<glyph name="O" format="2">
	<unicode hex="004F"/>
	<advance width="600"/>
	<outline>
		<contour>
			<point x="300" y="-14" type="curve" smooth="yes"/>
			<point x="445" y="-14"/>
			<point x="538" y="105"/>
			<point x="538" y="335" type="curve" smooth="yes"/>
			<point x="538" y="349" type="line" smooth="yes"/>
			<point x="538" y="578"/>
			<point x="445" y="698"/>
			<point x="300" y="698" type="curve" smooth="yes"/>
			<point x="155" y="698"/>
			<point x="62" y="578"/>
			<point x="62" y="349" type="curve" smooth="yes"/>
			<point x="62" y="335" type="line" smooth="yes"/>
			<point x="62" y="105"/>
			<point x="155" y="-14"/>
		</contour>
		<contour>
			<point x="300" y="35" type="curve" smooth="yes"/>
			<point x="187" y="35"/>
			<point x="120" y="136"/>
			<point x="120" y="339" type="curve" smooth="yes"/>
			<point x="120" y="346" type="line" smooth="yes"/>
			<point x="120" y="549"/>
			<point x="187" y="650"/>
			<point x="300" y="650" type="curve" smooth="yes"/>
			<point x="412" y="650"/>
			<point x="480" y="549"/>
			<point x="480" y="346" type="curve" smooth="yes"/>
			<point x="480" y="339" type="line" smooth="yes"/>
			<point x="480" y="136"/>
			<point x="412" y="35"/>
		</contour>
	</outline>
	<anchor name="bottom" x="302" y="0"/>
	<anchor name="center" x="308" y="354"/>
	<anchor name="top" x="300" y="684"/>
	<guideline x="379" y="0" angle="0"/>
	<guideline x="379" y="16" angle="90"/>
	<guideline x="302" y="698" angle="90"/>
	<guideline x="300" y="698" angle="0"/>
</glyph>
<glyph name="U" format="2">
	<unicode hex="0055"/>
	<advance width="600"/>
	<outline>
		<contour>
			<point x="297" y="-14" type="curve" smooth="yes"/>
			<point x="450" y="-14"/>
			<point x="517" y="87"/>
			<point x="517" y="253" type="curve" smooth="yes"/>
			<point x="517" y="684" type="line"/>
			<point x="462" y="684" type="line"/>
			<point x="462" y="253" type="line" smooth="yes"/>
			<point x="462" y="124"/>
			<point x="417" y="35"/>
			<point x="300" y="35" type="curve" smooth="yes"/>
			<point x="183" y="35"/>
			<point x="138" y="124"/>
			<point x="138" y="253" type="curve" smooth="yes"/>
			<point x="138" y="684" type="line"/>
			<point x="83" y="684" type="line"/>
			<point x="83" y="253" type="line" smooth="yes"/>
			<point x="83" y="87"/>
			<point x="144" y="-14"/>
		</contour>
	</outline>
	<anchor name="bottom" x="301" y="0"/>
	<anchor name="ogonek" x="385" y="0"/>
	<anchor name="top" x="300" y="684"/>
	<guideline x="525" y="507" angle="0"/>
	<guideline x="299" y="35" angle="90"/>
</glyph>
<glyph name="V" format="2">
	<unicode hex="0056"/>
	<advance width="600"/>
	<outline>
		<contour>
			<point x="265" y="-3" type="line"/>
			<point x="336" y="-3" type="line"/>
			<point x="560" y="684" type="line"/>
			<point x="500" y="684" type="line"/>
			<point x="301" y="55" type="line"/>
			<point x="100" y="684" type="line"/>
			<point x="40" y="684" type="line"/>
		</contour>
	</outline>
	<anchor name="bottom" x="312" y="0"/>
	<anchor name="ogonek" x="598" y="0"/>
	<anchor name="overlap" x="301" y="684"/>
	<anchor name="top" x="308" y="684"/>
	<guideline x="512" y="720" angle="0"/>
	<guideline x="670" y="720" angle="270"/>
	<guideline x="377" y="0" angle="67.5159"/>
	<guideline x="19" y="720" angle="270"/>
</glyph>
<glyph name="W" format="2">
	<unicode hex="0057"/>
	<advance width="600"/>
	<outline>
		<contour>
			<point x="126" y="0" type="line"/>
			<point x="206" y="0" type="line"/>
			<point x="297" y="449" type="line"/>
			<point x="303" y="449" type="line"/>
			<point x="394" y="0" type="line"/>
			<point x="474" y="0" type="line"/>
			<point x="557" y="684" type="line"/>
			<point x="503" y="684" type="line"/>
			<point x="434" y="62" type="line"/>
			<point x="430" y="62" type="line"/>
			<point x="338" y="518" type="line"/>
			<point x="264" y="518" type="line"/>
			<point x="173" y="62" type="line"/>
			<point x="167" y="62" type="line"/>
			<point x="98" y="684" type="line"/>
			<point x="43" y="684" type="line"/>
		</contour>
	</outline>
	<anchor name="top" x="301" y="684"/>
	<guideline x="252" y="121" angle="90"/>
</glyph>
<glyph name="X" format="2">
	<unicode hex="0058"/>
	<advance width="600"/>
	<outline>
		<contour>
			<point x="41" y="0" type="line"/>
			<point x="107" y="0" type="line"/>
			<point x="299" y="317" type="line"/>
			<point x="493" y="0" type="line"/>
			<point x="559" y="0" type="line"/>
			<point x="335" y="360" type="line"/>
			<point x="545" y="684" type="line"/>
			<point x="478" y="684" type="line"/>
			<point x="300" y="404" type="line"/>
			<point x="122" y="684" type="line"/>
			<point x="55" y="684" type="line"/>
			<point x="267" y="361" type="line"/>
		</contour>
	</outline>
	<anchor name="bottom" x="309" y="0"/>
	<anchor name="top" x="304" y="684"/>
	<guideline x="332" y="479" angle="0"/>
	<guideline x="108" y="720" angle="0"/>
</glyph>
<glyph name="Y" format="2">
	<unicode hex="0059"/>
	<advance width="600"/>
	<outline>
		<contour>
			<point x="269" y="0" type="line"/>
			<point x="324" y="0" type="line"/>
			<point x="324" y="228" type="line"/>
			<point x="561" y="684" type="line"/>
			<point x="499" y="684" type="line"/>
			<point x="298" y="288" type="line"/>
			<point x="102" y="684" type="line"/>
			<point x="39" y="684" type="line"/>
			<point x="269" y="230" type="line"/>
		</contour>
	</outline>
	<anchor name="bottom" x="283" y="0"/>
	<anchor name="top" x="301" y="684"/>
	<guideline x="344" y="44" angle="0"/>
	<guideline x="326" y="206" angle="0"/>
</glyph>
<glyph name="bracketleft" format="2">
	<unicode hex="005B"/>
	<advance width="600"/>
	<outline>
		<contour>
			<point x="471" y="-119" type="line"/>
			<point x="264" y="-119" type="line"/>
			<point x="264" y="748" type="line"/>
			<point x="471" y="748" type="line"/>
			<point x="471" y="792" type="line"/>
			<point x="212" y="792" type="line"/>
			<point x="212" y="-163" type="line"/>
			<point x="471" y="-163" type="line"/>
		</contour>
	</outline>
</glyph>
<glyph name="backslash" format="2">
	<unicode hex="005C"/>
	<advance width="600"/>
	<outline>
		<contour>
			<point x="468" y="-163" type="line"/>
			<point x="525" y="-163" type="line"/>
			<point x="131" y="792" type="line"/>
			<point x="75" y="792" type="line"/>
		</contour>
	</outline>
</glyph>
<glyph name="bracketright" format="2">
	<unicode hex="005D"/>
	<advance width="600"/>
	<outline>
		<contour>
			<point x="129" y="-163" type="line"/>
			<point x="388" y="-163" type="line"/>
			<point x="388" y="792" type="line"/>
			<point x="129" y="792" type="line"/>
			<point x="129" y="748" type="line"/>
			<point x="336" y="748" type="line"/>
			<point x="336" y="-119" type="line"/>
			<point x="129" y="-119" type="line"/>
		</contour>
	</outline>
</glyph>
<glyph name="asciicircum" format="2">
	<unicode hex="005E"/>
	<advance width="600"/>
	<outline>
		<contour>
			<point x="85" y="233" type="line"/>
			<point x="146" y="233" type="line"/>
			<point x="301" y="521" type="line"/>
			<point x="454" y="233" type="line"/>
			<point x="515" y="233" type="line"/>
			<point x="328" y="571" type="line"/>
			<point x="271" y="571" type="line"/>
		</contour>
	</outline>
</glyph>
<glyph name="a" format="2">
	<unicode hex="0061"/>
	<advance width="600"/>
	<outline>
		<contour>
			<point x="250" y="-14" type="curve" smooth="yes"/>
			<point x="328" y="-14"/>
			<point x="396" y="26"/>
			<point x="431" y="107" type="curve"/>
			<point x="431" y="0" type="line"/>
			<point x="485" y="0" type="line"/>
			<point x="485" y="347" type="line"/>
			<point x="485" y="467"/>
			<point x="411" y="536"/>
			<point x="283" y="536" type="curve" smooth="yes"/>
			<point x="213" y="536"/>
			<point x="154" y="514"/>
			<point x="104" y="481" type="curve"/>
			<point x="104" y="425" type="line"/>
			<point x="162" y="473"/>
			<point x="230" y="487"/>
			<point x="283" y="487" type="curve" smooth="yes"/>
			<point x="372" y="487"/>
			<point x="431" y="438"/>
			<point x="431" y="342" type="curve"/>
			<point x="431" y="324" type="line"/>
			<point x="310" y="306" type="line" smooth="yes"/>
			<point x="165" y="285"/>
			<point x="96" y="226"/>
			<point x="96" y="129" type="curve" smooth="yes"/>
			<point x="96" y="41"/>
			<point x="162" y="-14"/>
		</contour>
		<contour>
			<point x="264" y="32" type="curve" smooth="yes"/>
			<point x="204" y="32"/>
			<point x="151" y="67"/>
			<point x="151" y="133" type="curve" smooth="yes"/>
			<point x="151" y="217"/>
			<point x="211" y="246"/>
			<point x="325" y="264" type="curve" smooth="yes"/>
			<point x="431" y="281" type="line"/>
			<point x="431" y="212" type="line" smooth="yes"/>
			<point x="431" y="96"/>
			<point x="343" y="32"/>
		</contour>
	</outline>
	<anchor name="bottom" x="290" y="0"/>
	<anchor name="ogonek" x="485" y="0"/>
	<anchor name="top" x="292" y="523"/>
	<guideline x="44" y="136" angle="90"/>
</glyph>
<glyph name="b" format="2">
	<unicode hex="0062"/>
	<advance width="600"/>
	<outline>
		<contour>
			<point x="322" y="-14" type="curve"/>
			<point x="442" y="-14"/>
			<point x="532" y="86"/>
			<point x="532" y="256" type="curve" smooth="yes"/>
			<point x="532" y="270" type="line" smooth="yes"/>
			<point x="532" y="435"/>
			<point x="447" y="537"/>
			<point x="327" y="537" type="curve" smooth="yes"/>
			<point x="243" y="537"/>
			<point x="180" y="488"/>
			<point x="150" y="410" type="curve"/>
			<point x="150" y="750" type="line"/>
			<point x="96" y="750" type="line"/>
			<point x="96" y="0" type="line"/>
			<point x="150" y="0" type="line"/>
			<point x="150" y="99" type="line"/>
			<point x="183" y="25"/>
			<point x="242" y="-14"/>
		</contour>
		<contour>
			<point x="312" y="34" type="curve" smooth="yes"/>
			<point x="215" y="34"/>
			<point x="147" y="112"/>
			<point x="147" y="258" type="curve" smooth="yes"/>
			<point x="147" y="265" type="line" smooth="yes"/>
			<point x="147" y="414"/>
			<point x="223" y="490"/>
			<point x="315" y="490" type="curve" smooth="yes"/>
			<point x="409" y="490"/>
			<point x="475" y="414"/>
			<point x="475" y="266" type="curve" smooth="yes"/>
			<point x="475" y="259" type="line" smooth="yes"/>
			<point x="475" y="112"/>
			<point x="411" y="34"/>
		</contour>
	</outline>
	<guideline x="471" y="112" angle="0"/>
	<guideline x="443" y="537" angle="90"/>
</glyph>
<glyph name="c" format="2">
	<unicode hex="0063"/>
	<advance width="600"/>
	<outline>
		<contour>
			<point x="358" y="-12" type="curve" smooth="yes"/>
			<point x="412" y="-12"/>
			<point x="467" y="1"/>
			<point x="501" y="25" type="curve"/>
			<point x="501" y="75" type="line"/>
			<point x="465" y="51"/>
			<point x="414" y="36"/>
			<point x="363" y="36" type="curve" smooth="yes"/>
			<point x="235" y="36"/>
			<point x="156" y="120"/>
			<point x="156" y="258" type="curve" smooth="yes"/>
			<point x="156" y="265" type="line" smooth="yes"/>
			<point x="156" y="399"/>
			<point x="233" y="487"/>
			<point x="369" y="487" type="curve" smooth="yes"/>
			<point x="409" y="487"/>
			<point x="459" y="478"/>
			<point x="501" y="452" type="curve"/>
			<point x="501" y="504" type="line"/>
			<point x="469" y="523"/>
			<point x="415" y="535"/>
			<point x="365" y="535" type="curve" smooth="yes"/>
			<point x="207" y="535"/>
			<point x="99" y="427"/>
			<point x="99" y="266" type="curve" smooth="yes"/>
			<point x="99" y="257" type="line" smooth="yes"/>
			<point x="99" y="89"/>
			<point x="201" y="-12"/>
		</contour>
	</outline>
	<anchor name="bottom" x="349" y="0"/>
	<anchor name="top" x="364" y="523"/>
</glyph>
<glyph name="f" format="2">
	<unicode hex="0066"/>
	<advance width="600"/>
	<outline>
		<contour>
			<point x="69" y="0" type="line"/>
			<point x="511" y="0" type="line"/>
			<point x="511" y="48" type="line"/>
			<point x="300" y="48" type="line"/>
			<point x="300" y="475" type="line"/>
			<point x="513" y="475" type="line"/>
			<point x="513" y="523" type="line"/>
			<point x="300" y="523" type="line"/>
			<point x="300" y="619" type="line" smooth="yes"/>
			<point x="300" y="684"/>
			<point x="338" y="713"/>
			<point x="396" y="713" type="curve" smooth="yes"/>
			<point x="438" y="713"/>
			<point x="481" y="702"/>
			<point x="505" y="689" type="curve"/>
			<point x="505" y="736" type="line"/>
			<point x="476" y="752"/>
			<point x="432" y="760"/>
			<point x="392" y="760" type="curve" smooth="yes"/>
			<point x="305" y="760"/>
			<point x="246" y="705"/>
			<point x="246" y="619" type="curve" smooth="yes"/>
			<point x="246" y="523" type="line"/>
			<point x="74" y="523" type="line"/>
			<point x="74" y="475" type="line"/>
			<point x="246" y="475" type="line"/>
			<point x="246" y="48" type="line"/>
			<point x="69" y="48" type="line"/>
		</contour>
	</outline>
</glyph>
<glyph name="g" format="2">
	<unicode hex="0067"/>
	<advance width="600"/>
	<outline>
		<contour>
			<point x="267" y="-204" type="curve" smooth="yes"/>
			<point x="290" y="-204" type="line" smooth="yes"/>
			<point x="459" y="-204"/>
			<point x="543" y="-136"/>
			<point x="543" y="-50" type="curve" smooth="yes"/>
			<point x="543" y="26"/>
			<point x="487" y="61"/>
			<point x="390" y="61" type="curve" smooth="yes"/>
			<point x="222" y="61" type="line" smooth="yes"/>
			<point x="170" y="61"/>
			<point x="143" y="77"/>
			<point x="143" y="102" type="curve" smooth="yes"/>
			<point x="143" y="147"/>
			<point x="219" y="165"/>
			<point x="261" y="165" type="curve" smooth="yes"/>
			<point x="270" y="165" type="line" smooth="yes"/>
			<point x="390" y="165"/>
			<point x="468" y="237"/>
			<point x="468" y="342" type="curve" smooth="yes"/>
			<point x="468" y="395"/>
			<point x="445" y="448"/>
			<point x="408" y="475" type="curve"/>
			<point x="543" y="475" type="line"/>
			<point x="543" y="523" type="line"/>
			<point x="277" y="523" type="line" smooth="yes"/>
			<point x="173" y="523"/>
			<point x="85" y="452"/>
			<point x="85" y="340" type="curve" smooth="yes"/>
			<point x="85" y="268"/>
			<point x="124" y="201"/>
			<point x="196" y="178" type="curve"/>
			<point x="125" y="162"/>
			<point x="89" y="129"/>
			<point x="89" y="89" type="curve" smooth="yes"/>
			<point x="89" y="49"/>
			<point x="122" y="25"/>
			<point x="176" y="18" type="curve"/>
			<point x="97" y="-3"/>
			<point x="59" y="-44"/>
			<point x="59" y="-93" type="curve" smooth="yes"/>
			<point x="59" y="-154"/>
			<point x="109" y="-204"/>
		</contour>
		<contour>
			<point x="275" y="208" type="curve" smooth="yes"/>
			<point x="183" y="208"/>
			<point x="139" y="273"/>
			<point x="139" y="342" type="curve" smooth="yes"/>
			<point x="139" y="417"/>
			<point x="187" y="479"/>
			<point x="277" y="479" type="curve" smooth="yes"/>
			<point x="367" y="479"/>
			<point x="415" y="419"/>
			<point x="415" y="345" type="curve" smooth="yes"/>
			<point x="415" y="277"/>
			<point x="376" y="208"/>
		</contour>
		<contour>
			<point x="286" y="-160" type="curve" smooth="yes"/>
			<point x="271" y="-160" type="line"/>
			<point x="185" y="-160"/>
			<point x="115" y="-142"/>
			<point x="115" y="-83" type="curve" smooth="yes"/>
			<point x="115" y="-30"/>
			<point x="175" y="12"/>
			<point x="266" y="12" type="curve" smooth="yes"/>
			<point x="382" y="12" type="line" smooth="yes"/>
			<point x="453" y="12"/>
			<point x="490" y="-8"/>
			<point x="490" y="-58" type="curve" smooth="yes"/>
			<point x="490" y="-111"/>
			<point x="433" y="-160"/>
		</contour>
	</outline>
	<anchor name="bottom" x="313" y="-7"/>
	<anchor name="top" x="277" y="523"/>
	<guideline x="580" y="410" angle="90"/>
	<guideline x="452" y="374" angle="0"/>
	<guideline x="37" y="94" angle="0"/>
	<guideline x="339" y="-83" angle="0"/>
</glyph>
<glyph name="h" format="2">
	<unicode hex="0068"/>
	<advance width="600"/>
	<outline>
		<contour>
			<point x="331" y="537" type="curve" smooth="yes"/>
			<point x="249" y="537"/>
			<point x="190" y="493"/>
			<point x="160" y="417" type="curve"/>
			<point x="160" y="750" type="line"/>
			<point x="106" y="750" type="line"/>
			<point x="106" y="0" type="line"/>
			<point x="160" y="0" type="line"/>
			<point x="160" y="298" type="line" smooth="yes"/>
			<point x="160" y="330"/>
			<point x="164" y="363"/>
			<point x="176" y="391" type="curve" smooth="yes"/>
			<point x="200" y="446"/>
			<point x="242" y="490"/>
			<point x="318" y="490" type="curve" smooth="yes"/>
			<point x="393" y="490"/>
			<point x="444" y="437"/>
			<point x="444" y="336" type="curve" smooth="yes"/>
			<point x="444" y="0" type="line"/>
			<point x="498" y="0" type="line"/>
			<point x="498" y="345" type="line" smooth="yes"/>
			<point x="498" y="473"/>
			<point x="428" y="537"/>
		</contour>
	</outline>
	<anchor name="bottom" x="302" y="0"/>
	<anchor name="caron" x="360" y="750"/>
	<anchor name="center" x="177" y="624"/>
	<anchor name="top" x="133" y="726"/>
</glyph>
<glyph name="j" format="2">
	<unicode hex="006A"/>
	<advance width="600"/>
	<outline>
		<contour>
			<point x="415" y="650" type="curve" smooth="yes"/>
			<point x="451" y="650"/>
			<point x="463" y="666"/>
			<point x="463" y="694" type="curve" smooth="yes"/>
			<point x="463" y="722"/>
			<point x="451" y="738"/>
			<point x="415" y="738" type="curve" smooth="yes"/>
			<point x="379" y="738"/>
			<point x="367" y="722"/>
			<point x="367" y="694" type="curve" smooth="yes"/>
			<point x="367" y="666"/>
			<point x="379" y="650"/>
		</contour>
		<contour>
			<point x="220" y="-204" type="curve" smooth="yes"/>
			<point x="338" y="-204"/>
			<point x="445" y="-162"/>
			<point x="445" y="-10" type="curve" smooth="yes"/>
			<point x="445" y="523" type="line"/>
			<point x="91" y="523" type="line"/>
			<point x="91" y="475" type="line"/>
			<point x="391" y="475" type="line"/>
			<point x="391" y="0" type="line" smooth="yes"/>
			<point x="391" y="-116"/>
			<point x="343" y="-156"/>
			<point x="220" y="-156" type="curve" smooth="yes"/>
			<point x="165" y="-156"/>
			<point x="118" y="-144"/>
			<point x="91" y="-134" type="curve"/>
			<point x="91" y="-182" type="line"/>
			<point x="116" y="-193"/>
			<point x="170" y="-204"/>
		</contour>
	</outline>
	<guideline x="186" y="211" angle="0"/>
	<guideline x="96" y="-72" angle="90"/>
</glyph>
<glyph name="n" format="2">
	<unicode hex="006E"/>
	<advance width="600"/>
	<outline>
		<contour>
			<point x="106" y="0" type="line"/>
			<point x="160" y="0" type="line"/>
			<point x="160" y="298" type="line" smooth="yes"/>
			<point x="160" y="330"/>
			<point x="164" y="363"/>
			<point x="176" y="391" type="curve" smooth="yes"/>
			<point x="200" y="446"/>
			<point x="242" y="490"/>
			<point x="316" y="490" type="curve" smooth="yes"/>
			<point x="393" y="490"/>
			<point x="444" y="437"/>
			<point x="444" y="336" type="curve" smooth="yes"/>
			<point x="444" y="0" type="line"/>
			<point x="498" y="0" type="line"/>
			<point x="498" y="345" type="line" smooth="yes"/>
			<point x="498" y="473"/>
			<point x="428" y="537"/>
			<point x="329" y="537" type="curve" smooth="yes"/>
			<point x="249" y="537"/>
			<point x="190" y="494"/>
			<point x="160" y="418" type="curve"/>
			<point x="160" y="523" type="line"/>
			<point x="106" y="523" type="line"/>
		</contour>
	</outline>
	<anchor name="bottom" x="302" y="0"/>
	<anchor name="top" x="304" y="523"/>
	<guideline x="243" y="169" angle="0"/>
</glyph>
<glyph name="p" format="2">
	<unicode hex="0070"/>
	<advance width="600"/>
	<outline>
		<contour>
			<point x="96" y="-194" type="line"/>
			<point x="150" y="-194" type="line"/>
			<point x="150" y="100" type="line"/>
			<point x="184" y="24"/>
			<point x="243" y="-14"/>
			<point x="322" y="-14" type="curve"/>
			<point x="446" y="-14"/>
			<point x="532" y="86"/>
			<point x="532" y="256" type="curve" smooth="yes"/>
			<point x="532" y="270" type="line" smooth="yes"/>
			<point x="532" y="435"/>
			<point x="447" y="537"/>
			<point x="327" y="537" type="curve" smooth="yes"/>
			<point x="241" y="537"/>
			<point x="179" y="488"/>
			<point x="150" y="410" type="curve"/>
			<point x="150" y="523" type="line"/>
			<point x="96" y="523" type="line"/>
		</contour>
		<contour>
			<point x="312" y="34" type="curve" smooth="yes"/>
			<point x="213" y="34"/>
			<point x="147" y="112"/>
			<point x="147" y="258" type="curve" smooth="yes"/>
			<point x="147" y="265" type="line" smooth="yes"/>
			<point x="147" y="414"/>
			<point x="221" y="490"/>
			<point x="315" y="490" type="curve" smooth="yes"/>
			<point x="409" y="490"/>
			<point x="475" y="414"/>
			<point x="475" y="266" type="curve" smooth="yes"/>
			<point x="475" y="259" type="line" smooth="yes"/>
			<point x="475" y="112"/>
			<point x="411" y="34"/>
		</contour>
	</outline>
	<anchor name="bottom" x="191" y="-3"/>
	<anchor name="top" x="356" y="523"/>
</glyph>
<glyph name="r" format="2">
	<unicode hex="0072"/>
	<advance width="600"/>
	<outline>
		<contour>
			<point x="83" y="0" type="line"/>
			<point x="496" y="0" type="line"/>
			<point x="496" y="48" type="line"/>
			<point x="287" y="48" type="line"/>
			<point x="287" y="265" type="line"/>
			<point x="287" y="368"/>
			<point x="347" y="481"/>
			<point x="460" y="481" type="curve" smooth="yes"/>
			<point x="485" y="481"/>
			<point x="511" y="477"/>
			<point x="527" y="468" type="curve"/>
			<point x="527" y="518" type="line"/>
			<point x="514" y="526"/>
			<point x="493" y="531"/>
			<point x="467" y="531" type="curve" smooth="yes"/>
			<point x="371" y="531"/>
			<point x="313" y="467"/>
			<point x="287" y="387" type="curve"/>
			<point x="287" y="523" type="line"/>
			<point x="83" y="523" type="line"/>
			<point x="83" y="475" type="line"/>
			<point x="232" y="475" type="line"/>
			<point x="232" y="48" type="line"/>
			<point x="83" y="48" type="line"/>
		</contour>
	</outline>
	<anchor name="bottom" x="260" y="0"/>
	<anchor name="top" x="336" y="523"/>
</glyph>
<glyph name="s" format="2">
	<unicode hex="0073"/>
	<advance width="600"/>
	<outline>
		<contour>
			<point x="311" y="-14" type="curve" smooth="yes"/>
			<point x="435" y="-14"/>
			<point x="503" y="56"/>
			<point x="503" y="143" type="curve" smooth="yes"/>
			<point x="503" y="246"/>
			<point x="420" y="267"/>
			<point x="302" y="288" type="curve" smooth="yes"/>
			<point x="212" y="304"/>
			<point x="150" y="316"/>
			<point x="150" y="388" type="curve" smooth="yes"/>
			<point x="150" y="447"/>
			<point x="198" y="491"/>
			<point x="294" y="491" type="curve" smooth="yes"/>
			<point x="378" y="491"/>
			<point x="447" y="468"/>
			<point x="494" y="426" type="curve"/>
			<point x="494" y="483" type="line"/>
			<point x="440" y="519"/>
			<point x="371" y="537"/>
			<point x="294" y="537" type="curve" smooth="yes"/>
			<point x="184" y="537"/>
			<point x="97" y="481"/>
			<point x="97" y="383" type="curve" smooth="yes"/>
			<point x="97" y="275"/>
			<point x="181" y="254"/>
			<point x="294" y="236" type="curve" smooth="yes"/>
			<point x="392" y="221"/>
			<point x="450" y="208"/>
			<point x="450" y="141" type="curve" smooth="yes"/>
			<point x="450" y="76"/>
			<point x="400" y="33"/>
			<point x="311" y="33" type="curve" smooth="yes"/>
			<point x="236" y="33"/>
			<point x="162" y="56"/>
			<point x="103" y="106" type="curve"/>
			<point x="103" y="48" type="line"/>
			<point x="158" y="10"/>
			<point x="223" y="-14"/>
		</contour>
	</outline>
	<anchor name="bottom" x="306" y="0"/>
	<anchor name="top" x="306" y="523"/>
</glyph>
<glyph name="w" format="2">
	<unicode hex="0077"/>
	<advance width="600"/>
	<outline>
		<contour>
			<point x="130" y="0" type="line"/>
			<point x="207" y="0" type="line"/>
			<point x="299" y="461" type="line"/>
			<point x="304" y="461" type="line"/>
			<point x="392" y="0" type="line"/>
			<point x="469" y="0" type="line"/>
			<point x="565" y="523" type="line"/>
			<point x="515" y="523" type="line"/>
			<point x="432" y="55" type="line"/>
			<point x="427" y="55" type="line"/>
			<point x="336" y="523" type="line"/>
			<point x="266" y="523" type="line"/>
			<point x="174" y="55" type="line"/>
			<point x="168" y="55" type="line"/>
			<point x="87" y="523" type="line"/>
			<point x="35" y="523" type="line"/>
		</contour>
	</outline>
	<anchor name="bottom" x="259" y="0"/>
	<anchor name="top" x="301" y="523"/>
</glyph>
<glyph name="cent" format="2">
	<unicode hex="00A2"/>
	<advance width="600"/>
	<outline>
		<contour>
			<point x="297" y="-93" type="line"/>
			<point x="345" y="-93" type="line"/>
			<point x="353" y="-12" type="line"/>
			<point x="358" y="-12" type="line" smooth="yes"/>
			<point x="412" y="-12"/>
			<point x="467" y="1"/>
			<point x="501" y="25" type="curve"/>
			<point x="501" y="75" type="line"/>
			<point x="465" y="51"/>
			<point x="414" y="36"/>
			<point x="363" y="36" type="curve" smooth="yes"/>
			<point x="357" y="36" type="line"/>
			<point x="399" y="485" type="line"/>
			<point x="432" y="482"/>
			<point x="469" y="472"/>
			<point x="501" y="452" type="curve"/>
			<point x="501" y="504" type="line"/>
			<point x="477" y="518"/>
			<point x="441" y="529"/>
			<point x="403" y="533" type="curve"/>
			<point x="411" y="614" type="line"/>
			<point x="362" y="614" type="line"/>
			<point x="355" y="535" type="line"/>
			<point x="202" y="530"/>
			<point x="99" y="424"/>
			<point x="99" y="266" type="curve" smooth="yes"/>
			<point x="99" y="257" type="line" smooth="yes"/>
			<point x="99" y="109"/>
			<point x="178" y="13"/>
			<point x="305" y="-8" type="curve"/>
		</contour>
		<contour>
			<point x="156" y="258" type="curve" smooth="yes"/>
			<point x="156" y="265" type="line" smooth="yes"/>
			<point x="156" y="393"/>
			<point x="226" y="479"/>
			<point x="351" y="486" type="curve"/>
			<point x="309" y="41" type="line"/>
			<point x="213" y="62"/>
			<point x="156" y="141"/>
		</contour>
	</outline>
	<guideline x="350" y="208" angle="251.7983"/>
</glyph>
<glyph name="sterling" format="2">
	<unicode hex="00A3"/>
	<advance width="600"/>
	<outline>
		<contour>
			<point x="87" y="48" type="curve"/>
			<point x="87" y="0" type="line"/>
			<point x="529" y="0" type="line"/>
			<point x="529" y="50" type="line"/>
			<point x="156" y="50" type="line"/>
			<point x="185" y="71"/>
			<point x="253" y="151"/>
			<point x="227" y="299" type="curve"/>
			<point x="420" y="299" type="line"/>
			<point x="420" y="347" type="line"/>
			<point x="216" y="347" type="line"/>
			<point x="204" y="397"/>
			<point x="183" y="444"/>
			<point x="183" y="500" type="curve" smooth="yes"/>
			<point x="183" y="595"/>
			<point x="239" y="649"/>
			<point x="335" y="649" type="curve" smooth="yes"/>
			<point x="405" y="649"/>
			<point x="477" y="622"/>
			<point x="529" y="577" type="curve"/>
			<point x="529" y="637" type="line"/>
			<point x="487" y="669"/>
			<point x="424" y="698"/>
			<point x="335" y="698" type="curve" smooth="yes"/>
			<point x="207" y="698"/>
			<point x="129" y="615"/>
			<point x="129" y="503" type="curve" smooth="yes"/>
			<point x="129" y="443"/>
			<point x="150" y="389"/>
			<point x="162" y="347" type="curve"/>
			<point x="78" y="347" type="line"/>
			<point x="78" y="299" type="line"/>
			<point x="171" y="299" type="line"/>
			<point x="195" y="168"/>
			<point x="141" y="81"/>
		</contour>
	</outline>
	<guideline x="508" y="548" angle="90"/>
	<guideline x="57" y="184" angle="90"/>
</glyph>
<glyph name="yen" format="2">
	<unicode hex="00A5"/>
	<advance width="600"/>
	<outline>
		<contour>
			<point x="98" y="202" type="line"/>
			<point x="269" y="202" type="line"/>
			<point x="269" y="0" type="line"/>
			<point x="324" y="0" type="line"/>
			<point x="324" y="202" type="line"/>
			<point x="495" y="202" type="line"/>
			<point x="495" y="246" type="line"/>
			<point x="333" y="246" type="line"/>
			<point x="375" y="325" type="line"/>
			<point x="495" y="325" type="line"/>
			<point x="495" y="370" type="line"/>
			<point x="398" y="370" type="line"/>
			<point x="561" y="684" type="line"/>
			<point x="499" y="684" type="line"/>
			<point x="298" y="288" type="line"/>
			<point x="102" y="684" type="line"/>
			<point x="39" y="684" type="line"/>
			<point x="198" y="370" type="line"/>
			<point x="98" y="370" type="line"/>
			<point x="98" y="325" type="line"/>
			<point x="221" y="325" type="line"/>
			<point x="261" y="246" type="line"/>
			<point x="98" y="246" type="line"/>
		</contour>
	</outline>
</glyph>
<glyph name="copyright" format="2">
	<unicode hex="00A9"/>
	<advance width="600"/>
	<outline>
		<contour>
			<point x="300" y="106" type="curve" smooth="yes"/>
			<point x="444" y="106"/>
			<point x="553" y="200"/>
			<point x="553" y="376" type="curve" smooth="yes"/>
			<point x="553" y="389" type="line" smooth="yes"/>
			<point x="553" y="561"/>
			<point x="442" y="657"/>
			<point x="300" y="657" type="curve" smooth="yes"/>
			<point x="158" y="657"/>
			<point x="47" y="561"/>
			<point x="47" y="388" type="curve" smooth="yes"/>
			<point x="47" y="374" type="line" smooth="yes"/>
			<point x="47" y="199"/>
			<point x="156" y="106"/>
		</contour>
		<contour>
			<point x="300" y="145" type="curve" smooth="yes"/>
			<point x="164" y="145"/>
			<point x="87" y="235"/>
			<point x="87" y="378" type="curve" smooth="yes"/>
			<point x="87" y="385" type="line" smooth="yes"/>
			<point x="87" y="527"/>
			<point x="168" y="618"/>
			<point x="300" y="618" type="curve" smooth="yes"/>
			<point x="432" y="618"/>
			<point x="513" y="526"/>
			<point x="513" y="385" type="curve" smooth="yes"/>
			<point x="513" y="378" type="line" smooth="yes"/>
			<point x="513" y="235"/>
			<point x="436" y="145"/>
		</contour>
		<contour>
			<point x="309" y="242" type="curve" smooth="yes"/>
			<point x="336" y="242"/>
			<point x="353" y="246"/>
			<point x="372" y="256" type="curve"/>
			<point x="372" y="286" type="line"/>
			<point x="356" y="279"/>
			<point x="334" y="275"/>
			<point x="311" y="275" type="curve" smooth="yes"/>
			<point x="260" y="275"/>
			<point x="228" y="314"/>
			<point x="228" y="379" type="curve" smooth="yes"/>
			<point x="228" y="444"/>
			<point x="264" y="482"/>
			<point x="314" y="482" type="curve" smooth="yes"/>
			<point x="339" y="482"/>
			<point x="360" y="476"/>
			<point x="372" y="471" type="curve"/>
			<point x="372" y="503" type="line"/>
			<point x="361" y="509"/>
			<point x="337" y="515"/>
			<point x="313" y="515" type="curve" smooth="yes"/>
			<point x="243" y="515"/>
			<point x="190" y="464"/>
			<point x="190" y="379" type="curve" smooth="yes"/>
			<point x="190" y="294"/>
			<point x="238" y="242"/>
		</contour>
	</outline>
</glyph>
<glyph name="ordfeminine" format="2">
	<unicode hex="00AA"/>
	<advance width="600"/>
	<outline>
		<contour>
			<point x="247" y="224" type="curve" smooth="yes"/>
			<point x="317" y="224"/>
			<point x="384" y="259"/>
			<point x="415" y="331" type="curve"/>
			<point x="415" y="235" type="line"/>
			<point x="462" y="235" type="line"/>
			<point x="462" y="532" type="line"/>
			<point x="462" y="640"/>
			<point x="393" y="696"/>
			<point x="276" y="696" type="curve" smooth="yes"/>
			<point x="207" y="696"/>
			<point x="152" y="673"/>
			<point x="118" y="645" type="curve"/>
			<point x="118" y="594" type="line"/>
			<point x="163" y="637"/>
			<point x="215" y="655"/>
			<point x="276" y="655" type="curve" smooth="yes"/>
			<point x="367" y="655"/>
			<point x="415" y="614"/>
			<point x="415" y="529" type="curve"/>
			<point x="415" y="514" type="line"/>
			<point x="310" y="499" type="line" smooth="yes"/>
			<point x="173" y="480"/>
			<point x="111" y="422"/>
			<point x="111" y="345" type="curve" smooth="yes"/>
			<point x="111" y="270"/>
			<point x="165" y="224"/>
		</contour>
		<contour>
			<point x="258" y="266" type="curve" smooth="yes"/>
			<point x="203" y="266"/>
			<point x="159" y="293"/>
			<point x="159" y="348" type="curve" smooth="yes"/>
			<point x="159" y="409"/>
			<point x="199" y="443"/>
			<point x="320" y="461" type="curve" smooth="yes"/>
			<point x="415" y="475" type="line"/>
			<point x="415" y="426" type="line" smooth="yes"/>
			<point x="415" y="317"/>
			<point x="334" y="266"/>
		</contour>
	</outline>
	<anchor name="bottom" x="212" y="235"/>
	<anchor name="ogonek" x="385" y="235"/>
	<anchor name="right" x="409" y="235"/>
	<anchor name="top" x="215" y="685"/>
</glyph>
<glyph name="degree" format="2">
	<unicode hex="00B0"/>
	<advance width="600"/>
	<outline>
		<contour>
			<point x="302" y="311" type="curve" smooth="yes"/>
			<point x="409" y="311"/>
			<point x="484" y="393"/>
			<point x="484" y="504" type="curve" smooth="yes"/>
			<point x="484" y="617"/>
			<point x="409" y="695"/>
			<point x="302" y="695" type="curve" smooth="yes"/>
			<point x="190" y="695"/>
			<point x="116" y="617"/>
			<point x="116" y="504" type="curve" smooth="yes"/>
			<point x="116" y="393"/>
			<point x="190" y="311"/>
		</contour>
		<contour>
			<point x="299" y="360" type="curve" smooth="yes"/>
			<point x="220" y="360"/>
			<point x="166" y="420"/>
			<point x="166" y="504" type="curve" smooth="yes"/>
			<point x="166" y="591"/>
			<point x="221" y="646"/>
			<point x="299" y="646" type="curve" smooth="yes"/>
			<point x="382" y="646"/>
			<point x="434" y="591"/>
			<point x="434" y="504" type="curve" smooth="yes"/>
			<point x="434" y="419"/>
			<point x="382" y="360"/>
		</contour>
	</outline>
</glyph>
<glyph name="acute" format="2">
	<unicode hex="00B4"/>
	<advance width="600"/>
	<outline>
		<contour>
			<point x="388" y="750" type="line"/>
			<point x="319" y="750" type="line"/>
			<point x="230" y="607" type="line"/>
			<point x="281" y="607" type="line"/>
		</contour>
	</outline>
	<anchor name="_top" x="255" y="523"/>
</glyph>
<glyph name="mu" format="2">
	<unicode hex="00B5"/>
	<advance width="600"/>
	<outline>
		<contour>
			<point x="494" y="523" type="line"/>
			<point x="440" y="523" type="line"/>
			<point x="440" y="225" type="line" smooth="yes"/>
			<point x="440" y="193"/>
			<point x="438" y="156"/>
			<point x="426" y="128" type="curve" smooth="yes"/>
			<point x="402" y="73"/>
			<point x="358" y="33"/>
			<point x="284" y="33" type="curve" smooth="yes"/>
			<point x="207" y="33"/>
			<point x="156" y="86"/>
			<point x="156" y="187" type="curve" smooth="yes"/>
			<point x="156" y="523" type="line"/>
			<point x="102" y="523" type="line"/>
			<point x="102" y="-192" type="line"/>
			<point x="156" y="-192" type="line"/>
			<point x="156" y="56" type="line"/>
			<point x="179" y="3"/>
			<point x="222" y="-14"/>
			<point x="282" y="-14" type="curve" smooth="yes"/>
			<point x="350" y="-14"/>
			<point x="408" y="27"/>
			<point x="440" y="100" type="curve"/>
			<point x="440" y="0" type="line"/>
			<point x="494" y="0" type="line"/>
		</contour>
	</outline>
	<anchor name="bottom" x="305" y="0"/>
	<anchor name="ogonek" x="538" y="0"/>
	<anchor name="top" x="298" y="555"/>
</glyph>
<glyph name="ordmasculine" format="2">
	<unicode hex="00BA"/>
	<advance width="600"/>
	<outline>
		<contour>
			<point x="300" y="229" type="curve" smooth="yes"/>
			<point x="418" y="229"/>
			<point x="509" y="317"/>
			<point x="509" y="462" type="curve" smooth="yes"/>
			<point x="509" y="609"/>
			<point x="415" y="696"/>
			<point x="300" y="696" type="curve" smooth="yes"/>
			<point x="182" y="696"/>
			<point x="91" y="608"/>
			<point x="91" y="463" type="curve" smooth="yes"/>
			<point x="91" y="316"/>
			<point x="185" y="229"/>
		</contour>
		<contour>
			<point x="300" y="269" type="curve" smooth="yes"/>
			<point x="206" y="269"/>
			<point x="140" y="340"/>
			<point x="140" y="462" type="curve" smooth="yes"/>
			<point x="140" y="582"/>
			<point x="204" y="656"/>
			<point x="300" y="656" type="curve" smooth="yes"/>
			<point x="394" y="656"/>
			<point x="460" y="585"/>
			<point x="460" y="463" type="curve" smooth="yes"/>
			<point x="460" y="343"/>
			<point x="396" y="269"/>
		</contour>
	</outline>
</glyph>
<glyph name="Oslash" format="2">
	<unicode hex="00D8"/>
	<advance width="600"/>
	<outline>
		<contour>
			<point x="300" y="-14" type="curve" smooth="yes"/>
			<point x="445" y="-14"/>
			<point x="538" y="105"/>
			<point x="538" y="335" type="curve" smooth="yes"/>
			<point x="538" y="349" type="line" smooth="yes"/>
			<point x="538" y="455"/>
			<point x="518" y="538"/>
			<point x="482" y="596" type="curve"/>
			<point x="550" y="708" type="line"/>
			<point x="494" y="707" type="line"/>
			<point x="451" y="636" type="line"/>
			<point x="412" y="677"/>
			<point x="360" y="698"/>
			<point x="300" y="698" type="curve" smooth="yes"/>
			<point x="155" y="698"/>
			<point x="62" y="578"/>
			<point x="62" y="349" type="curve" smooth="yes"/>
			<point x="62" y="335" type="line" smooth="yes"/>
			<point x="62" y="229"/>
			<point x="82" y="146"/>
			<point x="118" y="88" type="curve"/>
			<point x="50" y="-24" type="line"/>
			<point x="105" y="-24" type="line"/>
			<point x="148" y="48" type="line"/>
			<point x="188" y="7"/>
			<point x="239" y="-14"/>
		</contour>
		<contour>
			<point x="120" y="339" type="curve" smooth="yes"/>
			<point x="120" y="346" type="line" smooth="yes"/>
			<point x="120" y="549"/>
			<point x="187" y="650"/>
			<point x="300" y="650" type="curve" smooth="yes"/>
			<point x="350" y="650"/>
			<point x="392" y="630"/>
			<point x="422" y="589" type="curve"/>
			<point x="151" y="143" type="line"/>
			<point x="131" y="192"/>
			<point x="120" y="257"/>
		</contour>
		<contour>
			<point x="300" y="35" type="curve" smooth="yes"/>
			<point x="249" y="35"/>
			<point x="208" y="55"/>
			<point x="178" y="96" type="curve"/>
			<point x="449" y="541" type="line"/>
			<point x="469" y="493"/>
			<point x="480" y="428"/>
			<point x="480" y="346" type="curve" smooth="yes"/>
			<point x="480" y="339" type="line" smooth="yes"/>
			<point x="480" y="136"/>
			<point x="412" y="35"/>
		</contour>
	</outline>
	<guideline x="68" y="328" angle="90"/>
	<guideline x="62" y="440" angle="90"/>
	<guideline x="538" y="440" angle="90"/>
</glyph>
<glyph name="Thorn" format="2">
	<unicode hex="00DE"/>
	<advance width="600"/>
	<outline>
		<contour>
			<point x="94" y="684" type="line"/>
			<point x="94" y="0" type="line"/>
			<point x="149" y="0" type="line"/>
			<point x="149" y="133" type="line"/>
			<point x="326" y="133" type="line" smooth="yes"/>
			<point x="461" y="133"/>
			<point x="550" y="225"/>
			<point x="550" y="359" type="curve" smooth="yes"/>
			<point x="550" y="493"/>
			<point x="461" y="578"/>
			<point x="326" y="578" type="curve" smooth="yes"/>
			<point x="149" y="578" type="line"/>
			<point x="149" y="684" type="line"/>
		</contour>
		<contour>
			<point x="322" y="529" type="line" smooth="yes"/>
			<point x="430" y="529"/>
			<point x="492" y="462"/>
			<point x="492" y="359" type="curve" smooth="yes"/>
			<point x="492" y="256"/>
			<point x="432" y="182"/>
			<point x="322" y="182" type="curve" smooth="yes"/>
			<point x="149" y="182" type="line"/>
			<point x="149" y="529" type="line"/>
		</contour>
	</outline>
</glyph>
<glyph name="ae" format="2">
	<unicode hex="00E6"/>
	<advance width="600"/>
	<outline>
		<contour>
			<point x="147" y="-14" type="curve" smooth="yes"/>
			<point x="207" y="-14"/>
			<point x="261" y="21"/>
			<point x="282" y="115" type="curve"/>
			<point x="306" y="37"/>
			<point x="353" y="-14"/>
			<point x="449" y="-14" type="curve" smooth="yes"/>
			<point x="511" y="-14"/>
			<point x="550" y="10"/>
			<point x="570" y="29" type="curve"/>
			<point x="570" y="79" type="line"/>
			<point x="539" y="48"/>
			<point x="501" y="31"/>
			<point x="459" y="31" type="curve" smooth="yes"/>
			<point x="360" y="31"/>
			<point x="313" y="98"/>
			<point x="312" y="249" type="curve"/>
			<point x="581" y="249" type="line"/>
			<point x="581" y="279" type="line" smooth="yes"/>
			<point x="581" y="455"/>
			<point x="527" y="537"/>
			<point x="428" y="537" type="curve" smooth="yes"/>
			<point x="371" y="537"/>
			<point x="327" y="504"/>
			<point x="299" y="446" type="curve"/>
			<point x="281" y="506"/>
			<point x="239" y="537"/>
			<point x="160" y="537" type="curve" smooth="yes"/>
			<point x="101" y="537"/>
			<point x="53" y="511"/>
			<point x="27" y="489" type="curve"/>
			<point x="27" y="437" type="line"/>
			<point x="60" y="467"/>
			<point x="105" y="491"/>
			<point x="156" y="491" type="curve" smooth="yes"/>
			<point x="239" y="491"/>
			<point x="262" y="445"/>
			<point x="262" y="353" type="curve" smooth="yes"/>
			<point x="262" y="322" type="line"/>
			<point x="198" y="309" type="line" smooth="yes"/>
			<point x="74" y="283"/>
			<point x="19" y="228"/>
			<point x="19" y="131" type="curve" smooth="yes"/>
			<point x="19" y="48"/>
			<point x="67" y="-14"/>
		</contour>
		<contour>
			<point x="427" y="492" type="curve" smooth="yes"/>
			<point x="495" y="492"/>
			<point x="528" y="433"/>
			<point x="530" y="292" type="curve"/>
			<point x="312" y="292" type="line"/>
			<point x="315" y="428"/>
			<point x="354" y="492"/>
		</contour>
		<contour>
			<point x="68" y="135" type="curve" smooth="yes"/>
			<point x="68" y="209"/>
			<point x="109" y="249"/>
			<point x="207" y="268" type="curve" smooth="yes"/>
			<point x="262" y="279" type="line"/>
			<point x="262" y="176" type="line"/>
			<point x="262" y="75"/>
			<point x="215" y="30"/>
			<point x="159" y="30" type="curve" smooth="yes"/>
			<point x="105" y="30"/>
			<point x="68" y="74"/>
		</contour>
	</outline>
	<anchor name="top" x="298" y="523"/>
	<guideline x="459" y="31" angle="0"/>
</glyph>
<glyph name="thorn" format="2">
	<unicode hex="00FE"/>
	<advance width="600"/>
	<outline>
		<contour>
			<point x="96" y="750" type="line"/>
			<point x="96" y="-204" type="line"/>
			<point x="150" y="-204" type="line"/>
			<point x="150" y="99" type="line"/>
			<point x="183" y="25"/>
			<point x="242" y="-14"/>
			<point x="322" y="-14" type="curve" smooth="yes"/>
			<point x="442" y="-14"/>
			<point x="532" y="86"/>
			<point x="532" y="256" type="curve" smooth="yes"/>
			<point x="532" y="270" type="line" smooth="yes"/>
			<point x="532" y="435"/>
			<point x="447" y="537"/>
			<point x="327" y="537" type="curve" smooth="yes"/>
			<point x="243" y="537"/>
			<point x="180" y="488"/>
			<point x="150" y="410" type="curve"/>
			<point x="150" y="750" type="line"/>
		</contour>
		<contour>
			<point x="312" y="34" type="curve" smooth="yes"/>
			<point x="215" y="34"/>
			<point x="147" y="112"/>
			<point x="147" y="258" type="curve" smooth="yes"/>
			<point x="147" y="265" type="line" smooth="yes"/>
			<point x="147" y="280"/>
			<point x="148" y="293"/>
			<point x="149" y="306" type="curve"/>
			<point x="150" y="305" type="line"/>
			<point x="150" y="314" type="line"/>
			<point x="165" y="431"/>
			<point x="234" y="490"/>
			<point x="315" y="490" type="curve" smooth="yes"/>
			<point x="409" y="490"/>
			<point x="475" y="414"/>
			<point x="475" y="266" type="curve" smooth="yes"/>
			<point x="475" y="259" type="line" smooth="yes"/>
			<point x="475" y="112"/>
			<point x="411" y="34"/>
		</contour>
	</outline>
</glyph>
<glyph name="aogonek" format="2">
	<unicode hex="0105"/>
	<advance width="600"/>
	<outline>
		<contour>
			<point x="250" y="-14" type="curve" smooth="yes"/>
			<point x="328" y="-14"/>
			<point x="396" y="26"/>
			<point x="431" y="107" type="curve"/>
			<point x="431" y="2" type="line"/>
			<point x="368" y="-20"/>
			<point x="330" y="-70"/>
			<point x="330" y="-116" type="curve" smooth="yes"/>
			<point x="330" y="-178"/>
			<point x="370" y="-203"/>
			<point x="431" y="-203" type="curve" smooth="yes"/>
			<point x="459" y="-203"/>
			<point x="485" y="-196"/>
			<point x="494" y="-190" type="curve"/>
			<point x="494" y="-148" type="line"/>
			<point x="480" y="-154"/>
			<point x="459" y="-158"/>
			<point x="439" y="-158" type="curve" smooth="yes"/>
			<point x="405" y="-158"/>
			<point x="380" y="-143"/>
			<point x="380" y="-103" type="curve" smooth="yes"/>
			<point x="380" y="-65"/>
			<point x="407" y="-28"/>
			<point x="485" y="0" type="curve"/>
			<point x="485" y="347" type="line"/>
			<point x="485" y="467"/>
			<point x="411" y="536"/>
			<point x="283" y="536" type="curve" smooth="yes"/>
			<point x="213" y="536"/>
			<point x="154" y="514"/>
			<point x="104" y="481" type="curve"/>
			<point x="104" y="425" type="line"/>
			<point x="162" y="473"/>
			<point x="230" y="487"/>
			<point x="283" y="487" type="curve" smooth="yes"/>
			<point x="372" y="487"/>
			<point x="431" y="438"/>
			<point x="431" y="342" type="curve"/>
			<point x="431" y="324" type="line"/>
			<point x="310" y="306" type="line" smooth="yes"/>
			<point x="165" y="285"/>
			<point x="96" y="226"/>
			<point x="96" y="129" type="curve" smooth="yes"/>
			<point x="96" y="41"/>
			<point x="162" y="-14"/>
		</contour>
		<contour>
			<point x="264" y="32" type="curve" smooth="yes"/>
			<point x="204" y="32"/>
			<point x="151" y="67"/>
			<point x="151" y="133" type="curve" smooth="yes"/>
			<point x="151" y="217"/>
			<point x="211" y="246"/>
			<point x="325" y="264" type="curve" smooth="yes"/>
			<point x="431" y="281" type="line"/>
			<point x="431" y="212" type="line" smooth="yes"/>
			<point x="431" y="96"/>
			<point x="343" y="32"/>
		</contour>
	</outline>
	<guideline x="480" y="0" angle="0"/>
</glyph>
<glyph name="Dcroat" format="2">
	<unicode hex="0110"/>
	<advance width="600"/>
	<outline>
		<contour>
			<point x="81" y="0" type="line"/>
			<point x="270" y="0" type="line" smooth="yes"/>
			<point x="432" y="0"/>
			<point x="541" y="107"/>
			<point x="541" y="333" type="curve" smooth="yes"/>
			<point x="541" y="351" type="line" smooth="yes"/>
			<point x="541" y="578"/>
			<point x="430" y="684"/>
			<point x="269" y="684" type="curve" smooth="yes"/>
			<point x="81" y="684" type="line"/>
			<point x="81" y="365" type="line"/>
			<point x="5" y="365" type="line"/>
			<point x="5" y="319" type="line"/>
			<point x="81" y="319" type="line"/>
		</contour>
		<contour>
			<point x="261" y="635" type="line" smooth="yes"/>
			<point x="396" y="635"/>
			<point x="482" y="548"/>
			<point x="482" y="351" type="curve" smooth="yes"/>
			<point x="482" y="335" type="line" smooth="yes"/>
			<point x="482" y="136"/>
			<point x="402" y="50"/>
			<point x="262" y="50" type="curve" smooth="yes"/>
			<point x="136" y="50" type="line"/>
			<point x="136" y="319" type="line"/>
			<point x="309" y="319" type="line"/>
			<point x="309" y="365" type="line"/>
			<point x="136" y="365" type="line"/>
			<point x="136" y="635" type="line"/>
		</contour>
	</outline>
</glyph>
<glyph name="dcroat" format="2">
	<unicode hex="0111"/>
	<advance width="600"/>
	<outline>
		<contour>
			<point x="274" y="-14" type="curve"/>
			<point x="359" y="-14"/>
			<point x="420" y="35"/>
			<point x="449" y="113" type="curve"/>
			<point x="449" y="0" type="line"/>
			<point x="503" y="0" type="line"/>
			<point x="503" y="602" type="line"/>
			<point x="579" y="602" type="line"/>
			<point x="579" y="647" type="line"/>
			<point x="503" y="647" type="line"/>
			<point x="503" y="750" type="line"/>
			<point x="449" y="750" type="line"/>
			<point x="449" y="647" type="line"/>
			<point x="284" y="647" type="line"/>
			<point x="284" y="602" type="line"/>
			<point x="449" y="602" type="line"/>
			<point x="449" y="424" type="line"/>
			<point x="417" y="498"/>
			<point x="361" y="537"/>
			<point x="278" y="537" type="curve" smooth="yes"/>
			<point x="158" y="537"/>
			<point x="69" y="435"/>
			<point x="69" y="270" type="curve" smooth="yes"/>
			<point x="69" y="256" type="line" smooth="yes"/>
			<point x="69" y="86"/>
			<point x="150" y="-14"/>
		</contour>
		<contour>
			<point x="285" y="33" type="curve" smooth="yes"/>
			<point x="191" y="33"/>
			<point x="126" y="109"/>
			<point x="126" y="259" type="curve" smooth="yes"/>
			<point x="126" y="266" type="line" smooth="yes"/>
			<point x="126" y="411"/>
			<point x="191" y="489"/>
			<point x="288" y="489" type="curve" smooth="yes"/>
			<point x="387" y="489"/>
			<point x="452" y="411"/>
			<point x="452" y="265" type="curve" smooth="yes"/>
			<point x="452" y="258" type="line" smooth="yes"/>
			<point x="452" y="109"/>
			<point x="379" y="33"/>
		</contour>
	</outline>
</glyph>
<glyph name="eogonek" format="2">
	<unicode hex="0119"/>
	<advance width="600"/>
	<outline>
		<contour>
			<point x="344" y="-14" type="curve" smooth="yes"/>
			<point x="357" y="-14" type="line"/>
			<point x="315" y="-39"/>
			<point x="290" y="-79"/>
			<point x="290" y="-116" type="curve" smooth="yes"/>
			<point x="290" y="-178"/>
			<point x="330" y="-203"/>
			<point x="391" y="-203" type="curve" smooth="yes"/>
			<point x="419" y="-203"/>
			<point x="445" y="-196"/>
			<point x="454" y="-190" type="curve"/>
			<point x="454" y="-148" type="line"/>
			<point x="440" y="-154"/>
			<point x="419" y="-158"/>
			<point x="399" y="-158" type="curve" smooth="yes"/>
			<point x="365" y="-158"/>
			<point x="340" y="-143"/>
			<point x="340" y="-103" type="curve" smooth="yes"/>
			<point x="340" y="-65"/>
			<point x="367" y="-28"/>
			<point x="445" y="0" type="curve"/>
			<point x="468" y="7"/>
			<point x="489" y="17"/>
			<point x="507" y="29" type="curve"/>
			<point x="507" y="81" type="line"/>
			<point x="465" y="51"/>
			<point x="416" y="33"/>
			<point x="350" y="33" type="curve" smooth="yes"/>
			<point x="238" y="33"/>
			<point x="142" y="97"/>
			<point x="138" y="249" type="curve"/>
			<point x="517" y="249" type="line"/>
			<point x="517" y="279" type="line"/>
			<point x="517" y="452"/>
			<point x="431" y="537"/>
			<point x="305" y="537" type="curve" smooth="yes"/>
			<point x="182" y="537"/>
			<point x="82" y="433"/>
			<point x="82" y="269" type="curve" smooth="yes"/>
			<point x="82" y="257" type="line" smooth="yes"/>
			<point x="82" y="86"/>
			<point x="182" y="-14"/>
		</contour>
		<contour>
			<point x="305" y="491" type="curve" smooth="yes"/>
			<point x="391" y="491"/>
			<point x="458" y="427"/>
			<point x="462" y="293" type="curve"/>
			<point x="138" y="293" type="line"/>
			<point x="145" y="417"/>
			<point x="215" y="491"/>
		</contour>
	</outline>
</glyph>
<glyph name="Hbar" format="2">
	<unicode hex="0126"/>
	<advance width="600"/>
	<outline>
		<contour>
			<point x="85" y="0" type="line"/>
			<point x="140" y="0" type="line"/>
			<point x="140" y="320" type="line"/>
			<point x="460" y="320" type="line"/>
			<point x="460" y="0" type="line"/>
			<point x="515" y="0" type="line"/>
			<point x="515" y="494" type="line"/>
			<point x="600" y="494" type="line"/>
			<point x="600" y="538" type="line"/>
			<point x="515" y="538" type="line"/>
			<point x="515" y="684" type="line"/>
			<point x="460" y="684" type="line"/>
			<point x="460" y="538" type="line"/>
			<point x="140" y="538" type="line"/>
			<point x="140" y="684" type="line"/>
			<point x="85" y="684" type="line"/>
			<point x="85" y="538" type="line"/>
			<point x="0" y="538" type="line"/>
			<point x="0" y="494" type="line"/>
			<point x="85" y="494" type="line"/>
		</contour>
		<contour>
			<point x="140" y="369" type="line"/>
			<point x="140" y="494" type="line"/>
			<point x="460" y="494" type="line"/>
			<point x="460" y="369" type="line"/>
		</contour>
	</outline>
	<anchor name="bottom" x="284" y="0"/>
	<anchor name="center" x="299" y="517"/>
	<anchor name="top" x="299" y="684"/>
</glyph>
<glyph name="hbar" format="2">
	<unicode hex="0127"/>
	<advance width="600"/>
	<outline>
		<contour>
			<point x="30" y="602" type="line"/>
			<point x="106" y="602" type="line"/>
			<point x="106" y="0" type="line"/>
			<point x="160" y="0" type="line"/>
			<point x="160" y="298" type="line" smooth="yes"/>
			<point x="160" y="330"/>
			<point x="164" y="363"/>
			<point x="176" y="391" type="curve" smooth="yes"/>
			<point x="200" y="446"/>
			<point x="242" y="490"/>
			<point x="318" y="490" type="curve" smooth="yes"/>
			<point x="393" y="490"/>
			<point x="444" y="437"/>
			<point x="444" y="336" type="curve" smooth="yes"/>
			<point x="444" y="0" type="line"/>
			<point x="498" y="0" type="line"/>
			<point x="498" y="345" type="line" smooth="yes"/>
			<point x="498" y="473"/>
			<point x="428" y="537"/>
			<point x="331" y="537" type="curve" smooth="yes"/>
			<point x="249" y="537"/>
			<point x="190" y="493"/>
			<point x="160" y="417" type="curve"/>
			<point x="160" y="602" type="line"/>
			<point x="325" y="602" type="line"/>
			<point x="325" y="647" type="line"/>
			<point x="160" y="647" type="line"/>
			<point x="160" y="750" type="line"/>
			<point x="106" y="750" type="line"/>
			<point x="106" y="647" type="line"/>
			<point x="30" y="647" type="line"/>
		</contour>
	</outline>
</glyph>
<glyph name="Iogonek" format="2">
	<unicode hex="012E"/>
	<advance width="600"/>
	<outline>
		<contour>
			<point x="91" y="0" type="line"/>
			<point x="449" y="0" type="line"/>
			<point x="391" y="-20"/>
			<point x="353" y="-70"/>
			<point x="353" y="-116" type="curve" smooth="yes"/>
			<point x="353" y="-178"/>
			<point x="393" y="-203"/>
			<point x="454" y="-203" type="curve" smooth="yes"/>
			<point x="482" y="-203"/>
			<point x="508" y="-196"/>
			<point x="517" y="-190" type="curve"/>
			<point x="517" y="-148" type="line"/>
			<point x="503" y="-154"/>
			<point x="482" y="-158"/>
			<point x="462" y="-158" type="curve" smooth="yes"/>
			<point x="428" y="-158"/>
			<point x="403" y="-143"/>
			<point x="403" y="-103" type="curve" smooth="yes"/>
			<point x="403" y="-65"/>
			<point x="430" y="-28"/>
			<point x="508" y="0" type="curve"/>
			<point x="509" y="0" type="line"/>
			<point x="509" y="49" type="line"/>
			<point x="328" y="49" type="line"/>
			<point x="328" y="636" type="line"/>
			<point x="509" y="636" type="line"/>
			<point x="509" y="684" type="line"/>
			<point x="91" y="684" type="line"/>
			<point x="91" y="636" type="line"/>
			<point x="273" y="636" type="line"/>
			<point x="273" y="49" type="line"/>
			<point x="91" y="49" type="line"/>
		</contour>
	</outline>
</glyph>
<glyph name="kgreenlandic" format="2">
	<unicode hex="0138"/>
	<advance width="600"/>
	<outline>
		<contour>
			<point x="128" y="0" type="line"/>
			<point x="181" y="0" type="line"/>
			<point x="181" y="137" type="line"/>
			<point x="288" y="264" type="line"/>
			<point x="454" y="0" type="line"/>
			<point x="517" y="0" type="line"/>
			<point x="327" y="303" type="line"/>
			<point x="509" y="523" type="line"/>
			<point x="443" y="523" type="line"/>
			<point x="181" y="200" type="line"/>
			<point x="181" y="523" type="line"/>
			<point x="128" y="523" type="line"/>
		</contour>
	</outline>
</glyph>
<glyph name="Ldot" format="2">
	<unicode hex="013F"/>
	<advance width="600"/>
	<outline>
		<contour>
			<point x="107" y="0" type="line"/>
			<point x="530" y="0" type="line"/>
			<point x="530" y="50" type="line"/>
			<point x="162" y="50" type="line"/>
			<point x="162" y="684" type="line"/>
			<point x="107" y="684" type="line"/>
		</contour>
		<contour>
			<point x="433" y="349" type="curve" smooth="yes"/>
			<point x="469" y="349"/>
			<point x="490" y="362"/>
			<point x="490" y="401" type="curve" smooth="yes"/>
			<point x="490" y="440"/>
			<point x="469" y="452"/>
			<point x="433" y="452" type="curve" smooth="yes"/>
			<point x="397" y="452"/>
			<point x="376" y="440"/>
			<point x="376" y="401" type="curve" smooth="yes"/>
			<point x="376" y="362"/>
			<point x="397" y="349"/>
		</contour>
	</outline>
</glyph>
<glyph name="Lslash" format="2">
	<unicode hex="0141"/>
	<advance width="600"/>
	<outline>
		<contour>
			<point x="107" y="0" type="line"/>
			<point x="530" y="0" type="line"/>
			<point x="530" y="50" type="line"/>
			<point x="162" y="50" type="line"/>
			<point x="162" y="310" type="line"/>
			<point x="347" y="386" type="line"/>
			<point x="347" y="436" type="line"/>
			<point x="162" y="360" type="line"/>
			<point x="162" y="684" type="line"/>
			<point x="107" y="684" type="line"/>
			<point x="107" y="338" type="line"/>
			<point x="25" y="304" type="line"/>
			<point x="25" y="254" type="line"/>
			<point x="107" y="288" type="line"/>
		</contour>
	</outline>
</glyph>
<glyph name="Eng" format="2">
	<unicode hex="014A"/>
	<advance width="600"/>
	<outline>
		<contour>
			<point x="324" y="-214" type="curve" smooth="yes"/>
			<point x="439" y="-214"/>
			<point x="515" y="-146"/>
			<point x="515" y="-16" type="curve" smooth="yes"/>
			<point x="515" y="685" type="line"/>
			<point x="462" y="685" type="line"/>
			<point x="462" y="285" type="line" smooth="yes"/>
			<point x="462" y="186"/>
			<point x="464" y="129"/>
			<point x="468" y="68" type="curve"/>
			<point x="463" y="68" type="line"/>
			<point x="163" y="685" type="line"/>
			<point x="85" y="685" type="line"/>
			<point x="85" y="0" type="line"/>
			<point x="138" y="0" type="line"/>
			<point x="138" y="401" type="line" smooth="yes"/>
			<point x="138" y="499"/>
			<point x="136" y="556"/>
			<point x="133" y="616" type="curve"/>
			<point x="138" y="616" type="line"/>
			<point x="437" y="0" type="line"/>
			<point x="463" y="0" type="line"/>
			<point x="463" y="-15" type="line" smooth="yes"/>
			<point x="463" y="-115"/>
			<point x="412" y="-167"/>
			<point x="321" y="-167" type="curve" smooth="yes"/>
			<point x="281" y="-167"/>
			<point x="244" y="-158"/>
			<point x="222" y="-149" type="curve"/>
			<point x="222" y="-198" type="line"/>
			<point x="244" y="-207"/>
			<point x="274" y="-214"/>
		</contour>
	</outline>
	<anchor name="bottom" x="303" y="0"/>
	<anchor name="top" x="344" y="720"/>
</glyph>
<glyph name="Scedilla" format="2">
	<unicode hex="015E"/>
	<advance width="600"/>
	<outline>
		<contour>
			<point x="295" y="-214" type="curve" smooth="yes"/>
			<point x="361" y="-214"/>
			<point x="404" y="-184"/>
			<point x="404" y="-123" type="curve" smooth="yes"/>
			<point x="404" y="-77"/>
			<point x="373" y="-49"/>
			<point x="313" y="-48" type="curve"/>
			<point x="329" y="-14" type="line"/>
			<point x="446" y="-7"/>
			<point x="530" y="65"/>
			<point x="530" y="185" type="curve" smooth="yes"/>
			<point x="530" y="332"/>
			<point x="410" y="346"/>
			<point x="299" y="367" type="curve" smooth="yes"/>
			<point x="193" y="387"/>
			<point x="128" y="411"/>
			<point x="128" y="503" type="curve" smooth="yes"/>
			<point x="128" y="601"/>
			<point x="200" y="651"/>
			<point x="299" y="651" type="curve" smooth="yes"/>
			<point x="385" y="651"/>
			<point x="461" y="623"/>
			<point x="513" y="578" type="curve"/>
			<point x="513" y="636" type="line"/>
			<point x="461" y="674"/>
			<point x="392" y="698"/>
			<point x="300" y="698" type="curve" smooth="yes"/>
			<point x="170" y="698"/>
			<point x="72" y="626"/>
			<point x="72" y="499" type="curve" smooth="yes"/>
			<point x="72" y="361"/>
			<point x="179" y="333"/>
			<point x="285" y="315" type="curve" smooth="yes"/>
			<point x="392" y="297"/>
			<point x="474" y="284"/>
			<point x="474" y="183" type="curve" smooth="yes"/>
			<point x="474" y="82"/>
			<point x="405" y="34"/>
			<point x="310" y="34" type="curve"/>
			<point x="212" y="34"/>
			<point x="139" y="71"/>
			<point x="78" y="131" type="curve"/>
			<point x="78" y="67" type="line"/>
			<point x="129" y="26"/>
			<point x="192" y="-8"/>
			<point x="286" y="-13" type="curve"/>
			<point x="252" y="-89" type="line"/>
			<point x="259" y="-87"/>
			<point x="274" y="-85"/>
			<point x="293" y="-85" type="curve" smooth="yes"/>
			<point x="330" y="-85"/>
			<point x="358" y="-95"/>
			<point x="358" y="-127" type="curve" smooth="yes"/>
			<point x="358" y="-161"/>
			<point x="333" y="-171"/>
			<point x="292" y="-171" type="curve" smooth="yes"/>
			<point x="271" y="-171"/>
			<point x="247" y="-165"/>
			<point x="222" y="-152" type="curve"/>
			<point x="222" y="-196" type="line"/>
			<point x="238" y="-206"/>
			<point x="269" y="-214"/>
		</contour>
	</outline>
</glyph>
<glyph name="scedilla" format="2">
	<unicode hex="015F"/>
	<advance width="600"/>
	<outline>
		<contour>
			<point x="286" y="-214" type="curve" smooth="yes"/>
			<point x="352" y="-214"/>
			<point x="395" y="-184"/>
			<point x="395" y="-123" type="curve" smooth="yes"/>
			<point x="395" y="-77"/>
			<point x="364" y="-49"/>
			<point x="304" y="-48" type="curve"/>
			<point x="320" y="-14" type="line"/>
			<point x="438" y="-11"/>
			<point x="503" y="58"/>
			<point x="503" y="143" type="curve" smooth="yes"/>
			<point x="503" y="246"/>
			<point x="420" y="267"/>
			<point x="302" y="288" type="curve" smooth="yes"/>
			<point x="212" y="304"/>
			<point x="150" y="316"/>
			<point x="150" y="388" type="curve" smooth="yes"/>
			<point x="150" y="447"/>
			<point x="198" y="491"/>
			<point x="294" y="491" type="curve" smooth="yes"/>
			<point x="378" y="491"/>
			<point x="447" y="468"/>
			<point x="494" y="426" type="curve"/>
			<point x="494" y="483" type="line"/>
			<point x="440" y="519"/>
			<point x="371" y="537"/>
			<point x="294" y="537" type="curve" smooth="yes"/>
			<point x="184" y="537"/>
			<point x="97" y="481"/>
			<point x="97" y="383" type="curve" smooth="yes"/>
			<point x="97" y="275"/>
			<point x="181" y="254"/>
			<point x="294" y="236" type="curve" smooth="yes"/>
			<point x="392" y="221"/>
			<point x="450" y="208"/>
			<point x="450" y="141" type="curve" smooth="yes"/>
			<point x="450" y="76"/>
			<point x="400" y="33"/>
			<point x="311" y="33" type="curve" smooth="yes"/>
			<point x="236" y="33"/>
			<point x="162" y="56"/>
			<point x="103" y="106" type="curve"/>
			<point x="103" y="48" type="line"/>
			<point x="151" y="15"/>
			<point x="206" y="-7"/>
			<point x="277" y="-13" type="curve"/>
			<point x="243" y="-89" type="line"/>
			<point x="250" y="-87"/>
			<point x="265" y="-85"/>
			<point x="284" y="-85" type="curve" smooth="yes"/>
			<point x="321" y="-85"/>
			<point x="349" y="-95"/>
			<point x="349" y="-127" type="curve" smooth="yes"/>
			<point x="349" y="-161"/>
			<point x="324" y="-171"/>
			<point x="283" y="-171" type="curve" smooth="yes"/>
			<point x="262" y="-171"/>
			<point x="238" y="-165"/>
			<point x="213" y="-152" type="curve"/>
			<point x="213" y="-196" type="line"/>
			<point x="229" y="-206"/>
			<point x="260" y="-214"/>
		</contour>
	</outline>
</glyph>
<glyph name="tcaron" format="2">
	<unicode hex="0165"/>
	<advance width="600"/>
	<outline>
		<contour>
			<point x="419" y="628" type="line"/>
			<point x="462" y="628" type="line"/>
			<point x="513" y="780" type="line"/>
			<point x="452" y="780" type="line"/>
		</contour>
		<contour>
			<point x="386" y="-12" type="curve"/>
			<point x="431" y="-12"/>
			<point x="478" y="1"/>
			<point x="500" y="14" type="curve"/>
			<point x="500" y="62" type="line"/>
			<point x="475" y="47"/>
			<point x="427" y="36"/>
			<point x="391" y="36" type="curve" smooth="yes"/>
			<point x="318" y="36"/>
			<point x="274" y="73"/>
			<point x="274" y="163" type="curve" smooth="yes"/>
			<point x="274" y="475" type="line"/>
			<point x="500" y="475" type="line"/>
			<point x="500" y="523" type="line"/>
			<point x="273" y="523" type="line"/>
			<point x="273" y="692" type="line"/>
			<point x="232" y="692" type="line"/>
			<point x="224" y="579" type="line" smooth="yes"/>
			<point x="220" y="520"/>
			<point x="191" y="520"/>
			<point x="168" y="520" type="curve" smooth="yes"/>
			<point x="70" y="520" type="line"/>
			<point x="70" y="475" type="line"/>
			<point x="220" y="475" type="line"/>
			<point x="220" y="158" type="line" smooth="yes"/>
			<point x="220" y="34"/>
			<point x="286" y="-12"/>
		</contour>
	</outline>
</glyph>
<glyph name="tbar" format="2">
	<unicode hex="0167"/>
	<advance width="600"/>
	<outline>
		<contour>
			<point x="81" y="277" type="line"/>
			<point x="220" y="277" type="line"/>
			<point x="220" y="158" type="line" smooth="yes"/>
			<point x="220" y="34"/>
			<point x="286" y="-12"/>
			<point x="386" y="-12" type="curve"/>
			<point x="431" y="-12"/>
			<point x="478" y="1"/>
			<point x="500" y="14" type="curve"/>
			<point x="500" y="62" type="line"/>
			<point x="475" y="47"/>
			<point x="427" y="36"/>
			<point x="391" y="36" type="curve" smooth="yes"/>
			<point x="318" y="36"/>
			<point x="274" y="73"/>
			<point x="274" y="163" type="curve" smooth="yes"/>
			<point x="274" y="277" type="line"/>
			<point x="494" y="277" type="line"/>
			<point x="494" y="322" type="line"/>
			<point x="274" y="322" type="line"/>
			<point x="274" y="475" type="line"/>
			<point x="500" y="475" type="line"/>
			<point x="500" y="523" type="line"/>
			<point x="273" y="523" type="line"/>
			<point x="273" y="692" type="line"/>
			<point x="232" y="692" type="line"/>
			<point x="224" y="579" type="line" smooth="yes"/>
			<point x="220" y="520"/>
			<point x="191" y="520"/>
			<point x="168" y="520" type="curve" smooth="yes"/>
			<point x="70" y="520" type="line"/>
			<point x="70" y="475" type="line"/>
			<point x="220" y="475" type="line"/>
			<point x="220" y="322" type="line"/>
			<point x="81" y="322" type="line"/>
		</contour>
	</outline>
	<guideline x="310" y="545" angle="90"/>
	<guideline x="8" y="562" angle="90"/>
</glyph>
<glyph name="uogonek" format="2">
	<unicode hex="0173"/>
	<advance width="600"/>
	<outline>
		<contour>
			<point x="440" y="-203" type="curve" smooth="yes"/>
			<point x="468" y="-203"/>
			<point x="494" y="-196"/>
			<point x="503" y="-190" type="curve"/>
			<point x="503" y="-148" type="line"/>
			<point x="489" y="-154"/>
			<point x="468" y="-158"/>
			<point x="448" y="-158" type="curve" smooth="yes"/>
			<point x="414" y="-158"/>
			<point x="389" y="-143"/>
			<point x="389" y="-103" type="curve" smooth="yes"/>
			<point x="389" y="-65"/>
			<point x="416" y="-28"/>
			<point x="494" y="0" type="curve"/>
			<point x="494" y="523" type="line"/>
			<point x="440" y="523" type="line"/>
			<point x="440" y="225" type="line" smooth="yes"/>
			<point x="440" y="193"/>
			<point x="438" y="156"/>
			<point x="426" y="128" type="curve" smooth="yes"/>
			<point x="402" y="73"/>
			<point x="358" y="33"/>
			<point x="284" y="33" type="curve" smooth="yes"/>
			<point x="207" y="33"/>
			<point x="156" y="86"/>
			<point x="156" y="187" type="curve" smooth="yes"/>
			<point x="156" y="523" type="line"/>
			<point x="102" y="523" type="line"/>
			<point x="102" y="178" type="line" smooth="yes"/>
			<point x="102" y="50"/>
			<point x="171" y="-14"/>
			<point x="272" y="-14" type="curve" smooth="yes"/>
			<point x="349" y="-14"/>
			<point x="408" y="27"/>
			<point x="440" y="100" type="curve"/>
			<point x="440" y="2" type="line"/>
			<point x="377" y="-20"/>
			<point x="339" y="-70"/>
			<point x="339" y="-116" type="curve" smooth="yes"/>
			<point x="339" y="-178"/>
			<point x="379" y="-203"/>
		</contour>
	</outline>
</glyph>
<glyph name="dotlessj" format="2">
	<unicode hex="0237"/>
	<advance width="600"/>
	<outline>
		<contour>
			<point x="220" y="-204" type="curve" smooth="yes"/>
			<point x="338" y="-204"/>
			<point x="445" y="-162"/>
			<point x="445" y="-10" type="curve" smooth="yes"/>
			<point x="445" y="523" type="line"/>
			<point x="91" y="523" type="line"/>
			<point x="91" y="475" type="line"/>
			<point x="391" y="475" type="line"/>
			<point x="391" y="0" type="line" smooth="yes"/>
			<point x="391" y="-116"/>
			<point x="343" y="-156"/>
			<point x="220" y="-156" type="curve" smooth="yes"/>
			<point x="165" y="-156"/>
			<point x="118" y="-144"/>
			<point x="91" y="-134" type="curve"/>
			<point x="91" y="-182" type="line"/>
			<point x="116" y="-193"/>
			<point x="170" y="-204"/>
		</contour>
	</outline>
	<anchor name="top" x="418" y="523"/>
</glyph>
<glyph name="ogonek" format="2">
	<unicode hex="02DB"/>
	<advance width="600"/>
	<outline>
		<contour>
			<point x="317" y="-203" type="curve" smooth="yes"/>
			<point x="345" y="-203"/>
			<point x="371" y="-196"/>
			<point x="380" y="-190" type="curve"/>
			<point x="380" y="-148" type="line"/>
			<point x="366" y="-154"/>
			<point x="345" y="-158"/>
			<point x="325" y="-158" type="curve" smooth="yes"/>
			<point x="291" y="-158"/>
			<point x="266" y="-143"/>
			<point x="266" y="-103" type="curve" smooth="yes"/>
			<point x="266" y="-65"/>
			<point x="293" y="-28"/>
			<point x="371" y="0" type="curve"/>
			<point x="317" y="2" type="line"/>
			<point x="254" y="-20"/>
			<point x="216" y="-70"/>
			<point x="216" y="-116" type="curve" smooth="yes"/>
			<point x="216" y="-178"/>
			<point x="256" y="-203"/>
		</contour>
	</outline>
	<anchor name="_ogonek" x="371" y="0"/>
</glyph>
<glyph name="hungarumlaut" format="2">
	<unicode hex="02DD"/>
	<advance width="600"/>
	<outline>
		<contour>
			<point x="310" y="607" type="line"/>
			<point x="357" y="607" type="line"/>
			<point x="450" y="750" type="line"/>
			<point x="387" y="750" type="line"/>
		</contour>
		<contour>
			<point x="150" y="607" type="line"/>
			<point x="198" y="607" type="line"/>
			<point x="290" y="750" type="line"/>
			<point x="227" y="750" type="line"/>
		</contour>
	</outline>
	<anchor name="_top" x="254" y="523"/>
</glyph>
<glyph name="quoteleft" format="2">
	<unicode hex="2018"/>
	<advance width="600"/>
	<outline>
		<contour>
			<point x="320" y="480" type="line"/>
			<point x="378" y="750" type="line"/>
			<point x="338" y="750" type="line"/>
			<point x="232" y="480" type="line"/>
		</contour>
	</outline>
</glyph>
<glyph name="quotedblleft" format="2">
	<unicode hex="201C"/>
	<advance width="600"/>
	<outline>
		<contour>
			<point x="387" y="480" type="line"/>
			<point x="445" y="750" type="line"/>
			<point x="405" y="750" type="line"/>
			<point x="299" y="480" type="line"/>
		</contour>
		<contour>
			<point x="225" y="480" type="line"/>
			<point x="283" y="750" type="line"/>
			<point x="243" y="750" type="line"/>
			<point x="137" y="480" type="line"/>
		</contour>
	</outline>
</glyph>
<glyph name="ellipsis" format="2">
	<unicode hex="2026"/>
	<advance width="600"/>
	<outline>
		<contour>
			<point x="126" y="-12" type="curve" smooth="yes"/>
			<point x="156" y="-12"/>
			<point x="175" y="1"/>
			<point x="175" y="40" type="curve" smooth="yes"/>
			<point x="175" y="79"/>
			<point x="156" y="91"/>
			<point x="126" y="91" type="curve" smooth="yes"/>
			<point x="95" y="91"/>
			<point x="77" y="79"/>
			<point x="77" y="40" type="curve" smooth="yes"/>
			<point x="77" y="1"/>
			<point x="95" y="-12"/>
		</contour>
		<contour>
			<point x="301" y="-12" type="curve" smooth="yes"/>
			<point x="331" y="-12"/>
			<point x="349" y="1"/>
			<point x="349" y="40" type="curve" smooth="yes"/>
			<point x="349" y="79"/>
			<point x="331" y="91"/>
			<point x="301" y="91" type="curve" smooth="yes"/>
			<point x="270" y="91"/>
			<point x="252" y="79"/>
			<point x="252" y="40" type="curve" smooth="yes"/>
			<point x="252" y="1"/>
			<point x="270" y="-12"/>
		</contour>
		<contour>
			<point x="475" y="-12" type="curve" smooth="yes"/>
			<point x="505" y="-12"/>
			<point x="523" y="1"/>
			<point x="523" y="40" type="curve" smooth="yes"/>
			<point x="523" y="79"/>
			<point x="505" y="91"/>
			<point x="475" y="91" type="curve" smooth="yes"/>
			<point x="444" y="91"/>
			<point x="426" y="79"/>
			<point x="426" y="40" type="curve" smooth="yes"/>
			<point x="426" y="1"/>
			<point x="444" y="-12"/>
		</contour>
	</outline>
</glyph>
<glyph name="perthousand" format="2">
	<unicode hex="2030"/>
	<advance width="600"/>
	<outline>
		<contour>
			<point x="145" y="393" type="curve" smooth="yes"/>
			<point x="219" y="393"/>
			<point x="269" y="446"/>
			<point x="269" y="542" type="curve" smooth="yes"/>
			<point x="269" y="638"/>
			<point x="222" y="691"/>
			<point x="148" y="691" type="curve" smooth="yes"/>
			<point x="74" y="691"/>
			<point x="24" y="638"/>
			<point x="24" y="542" type="curve" smooth="yes"/>
			<point x="24" y="446"/>
			<point x="71" y="393"/>
		</contour>
		<contour>
			<point x="146" y="429" type="curve" smooth="yes"/>
			<point x="92" y="429"/>
			<point x="67" y="469"/>
			<point x="67" y="542" type="curve" smooth="yes"/>
			<point x="67" y="615"/>
			<point x="93" y="656"/>
			<point x="147" y="656" type="curve" smooth="yes"/>
			<point x="201" y="656"/>
			<point x="226" y="615"/>
			<point x="226" y="542" type="curve" smooth="yes"/>
			<point x="226" y="469"/>
			<point x="200" y="429"/>
		</contour>
		<contour>
			<point x="24" y="277" type="line"/>
			<point x="567" y="413" type="line"/>
			<point x="567" y="452" type="line"/>
			<point x="24" y="316" type="line"/>
		</contour>
		<contour>
			<point x="250" y="-7" type="curve" smooth="yes"/>
			<point x="296" y="-7"/>
			<point x="331" y="12"/>
			<point x="352" y="49" type="curve"/>
			<point x="373" y="12"/>
			<point x="407" y="-7"/>
			<point x="452" y="-7" type="curve" smooth="yes"/>
			<point x="526" y="-7"/>
			<point x="576" y="46"/>
			<point x="576" y="142" type="curve" smooth="yes"/>
			<point x="576" y="238"/>
			<point x="529" y="291"/>
			<point x="455" y="291" type="curve" smooth="yes"/>
			<point x="410" y="291"/>
			<point x="374" y="272"/>
			<point x="353" y="235" type="curve"/>
			<point x="332" y="272"/>
			<point x="298" y="291"/>
			<point x="253" y="291" type="curve" smooth="yes"/>
			<point x="179" y="291"/>
			<point x="129" y="238"/>
			<point x="129" y="142" type="curve" smooth="yes"/>
			<point x="129" y="46"/>
			<point x="176" y="-7"/>
		</contour>
		<contour>
			<point x="251" y="29" type="curve" smooth="yes"/>
			<point x="197" y="29"/>
			<point x="172" y="69"/>
			<point x="172" y="142" type="curve" smooth="yes"/>
			<point x="172" y="215"/>
			<point x="198" y="256"/>
			<point x="252" y="256" type="curve" smooth="yes"/>
			<point x="306" y="256"/>
			<point x="331" y="215"/>
			<point x="331" y="142" type="curve" smooth="yes"/>
			<point x="331" y="69"/>
			<point x="305" y="29"/>
		</contour>
		<contour>
			<point x="453" y="29" type="curve" smooth="yes"/>
			<point x="399" y="29"/>
			<point x="374" y="69"/>
			<point x="374" y="142" type="curve" smooth="yes"/>
			<point x="374" y="215"/>
			<point x="400" y="256"/>
			<point x="454" y="256" type="curve" smooth="yes"/>
			<point x="508" y="256"/>
			<point x="533" y="215"/>
			<point x="533" y="142" type="curve" smooth="yes"/>
			<point x="533" y="69"/>
			<point x="507" y="29"/>
		</contour>
	</outline>
	<guideline x="624" y="148" angle="90"/>
	<guideline x="275" y="192" angle="0"/>
	<guideline x="67" y="541" angle="0"/>
</glyph>
<glyph name="fraction" format="2">
	<unicode hex="2044"/>
	<advance width="600"/>
	<outline>
		<contour>
			<point x="400" y="420" type="line"/>
			<point x="445" y="420" type="line"/>
			<point x="570" y="684" type="line"/>
			<point x="517" y="684" type="line"/>
		</contour>
		<contour>
			<point x="30" y="0" type="line"/>
			<point x="83" y="0" type="line"/>
			<point x="201" y="263" type="line"/>
			<point x="155" y="263" type="line"/>
		</contour>
	</outline>
</glyph>
<glyph name="Euro" format="2">
	<unicode hex="20AC"/>
	<advance width="600"/>
	<outline>
		<contour>
			<point x="31" y="256" type="line"/>
			<point x="118" y="256" type="line"/>
			<point x="140" y="81"/>
			<point x="239" y="-12"/>
			<point x="394" y="-12" type="curve" smooth="yes"/>
			<point x="463" y="-12"/>
			<point x="513" y="3"/>
			<point x="549" y="27" type="curve"/>
			<point x="549" y="78" type="line"/>
			<point x="503" y="47"/>
			<point x="451" y="37"/>
			<point x="396" y="37" type="curve" smooth="yes"/>
			<point x="275" y="37"/>
			<point x="198" y="110"/>
			<point x="177" y="256" type="curve"/>
			<point x="432" y="256" type="line"/>
			<point x="432" y="301" type="line"/>
			<point x="173" y="301" type="line"/>
			<point x="172" y="313"/>
			<point x="172" y="326"/>
			<point x="172" y="339" type="curve" smooth="yes"/>
			<point x="172" y="346" type="line" smooth="yes"/>
			<point x="172" y="357"/>
			<point x="172" y="367"/>
			<point x="173" y="377" type="curve"/>
			<point x="432" y="377" type="line"/>
			<point x="432" y="422" type="line"/>
			<point x="177" y="422" type="line"/>
			<point x="196" y="569"/>
			<point x="274" y="648"/>
			<point x="400" y="648" type="curve" smooth="yes"/>
			<point x="448" y="648"/>
			<point x="501" y="638"/>
			<point x="545" y="611" type="curve"/>
			<point x="545" y="665" type="line"/>
			<point x="507" y="684"/>
			<point x="458" y="696"/>
			<point x="398" y="696" type="curve" smooth="yes"/>
			<point x="240" y="696"/>
			<point x="139" y="594"/>
			<point x="117" y="422" type="curve"/>
			<point x="31" y="422" type="line"/>
			<point x="31" y="377" type="line"/>
			<point x="114" y="377" type="line"/>
			<point x="113" y="368"/>
			<point x="113" y="359"/>
			<point x="113" y="350" type="curve" smooth="yes"/>
			<point x="113" y="336" type="line" smooth="yes"/>
			<point x="113" y="324"/>
			<point x="113" y="312"/>
			<point x="114" y="301" type="curve"/>
			<point x="31" y="301" type="line"/>
		</contour>
	</outline>
	<guideline x="449" y="437" angle="246.5014"/>
	<guideline x="438" y="377" angle="0"/>
</glyph>
<glyph name="trademark" format="2">
	<unicode hex="2122"/>
	<advance width="600"/>
	<outline>
		<contour>
			<point x="296" y="342" type="line"/>
			<point x="332" y="342" type="line"/>
			<point x="332" y="545" type="line" smooth="yes"/>
			<point x="332" y="578"/>
			<point x="331" y="613"/>
			<point x="329" y="644" type="curve"/>
			<point x="332" y="644" type="line"/>
			<point x="397" y="436" type="line"/>
			<point x="440" y="436" type="line"/>
			<point x="507" y="644" type="line"/>
			<point x="510" y="644" type="line"/>
			<point x="508" y="614"/>
			<point x="507" y="578"/>
			<point x="507" y="545" type="curve" smooth="yes"/>
			<point x="507" y="342" type="line"/>
			<point x="543" y="342" type="line"/>
			<point x="543" y="684" type="line"/>
			<point x="483" y="684" type="line"/>
			<point x="419" y="478" type="line"/>
			<point x="417" y="478" type="line"/>
			<point x="356" y="684" type="line"/>
			<point x="296" y="684" type="line"/>
		</contour>
		<contour>
			<point x="123" y="342" type="line"/>
			<point x="161" y="342" type="line"/>
			<point x="161" y="651" type="line"/>
			<point x="260" y="651" type="line"/>
			<point x="260" y="684" type="line"/>
			<point x="21" y="684" type="line"/>
			<point x="21" y="651" type="line"/>
			<point x="123" y="651" type="line"/>
		</contour>
	</outline>
</glyph>
<glyph name="arrowright" format="2">
	<unicode hex="2192"/>
	<advance width="600"/>
	<outline>
		<contour>
			<point x="280" y="591" type="line"/>
			<point x="482" y="390" type="line"/>
			<point x="48" y="390" type="line"/>
			<point x="48" y="340" type="line"/>
			<point x="483" y="340" type="line"/>
			<point x="281" y="140" type="line"/>
			<point x="350" y="140" type="line"/>
			<point x="575" y="365" type="line"/>
			<point x="349" y="591" type="line"/>
		</contour>
	</outline>
</glyph>
<glyph name="arrowdown" format="2">
	<unicode hex="2193"/>
	<advance width="600"/>
	<outline>
		<contour>
			<point x="525" y="275" type="line"/>
			<point x="325" y="74" type="line"/>
			<point x="325" y="684" type="line"/>
			<point x="275" y="684" type="line"/>
			<point x="275" y="74" type="line"/>
			<point x="75" y="275" type="line"/>
			<point x="75" y="206" type="line"/>
			<point x="300" y="-19" type="line"/>
			<point x="525" y="206" type="line"/>
		</contour>
	</outline>
</glyph>
<glyph name="uni2198" format="2">
	<unicode hex="2198"/>
	<advance width="600"/>
	<outline>
		<contour>
			<point x="206" y="76" type="line"/>
			<point x="552" y="76" type="line"/>
			<point x="552" y="422" type="line"/>
			<point x="504" y="470" type="line"/>
			<point x="505" y="158" type="line"/>
			<point x="54" y="610" type="line"/>
			<point x="18" y="574" type="line"/>
			<point x="469" y="124" type="line"/>
			<point x="157" y="125" type="line"/>
		</contour>
	</outline>
</glyph>
<glyph name="partialdiff" format="2">
	<unicode hex="2202"/>
	<advance width="600"/>
	<outline>
		<contour>
			<point x="299" y="-14" type="curve" smooth="yes"/>
			<point x="427" y="-14"/>
			<point x="524" y="86"/>
			<point x="524" y="268" type="curve" smooth="yes"/>
			<point x="524" y="282" type="line" smooth="yes"/>
			<point x="524" y="477"/>
			<point x="432" y="604"/>
			<point x="296" y="684" type="curve"/>
			<point x="201" y="684" type="line"/>
			<point x="327" y="613"/>
			<point x="412" y="536"/>
			<point x="450" y="414" type="curve"/>
			<point x="409" y="466"/>
			<point x="358" y="494"/>
			<point x="289" y="494" type="curve" smooth="yes"/>
			<point x="165" y="494"/>
			<point x="76" y="393"/>
			<point x="76" y="246" type="curve" smooth="yes"/>
			<point x="76" y="232" type="line" smooth="yes"/>
			<point x="76" y="81"/>
			<point x="165" y="-14"/>
		</contour>
		<contour>
			<point x="299" y="34" type="curve" smooth="yes"/>
			<point x="194" y="34"/>
			<point x="133" y="112"/>
			<point x="133" y="235" type="curve" smooth="yes"/>
			<point x="133" y="242" type="line" smooth="yes"/>
			<point x="133" y="380"/>
			<point x="207" y="447"/>
			<point x="304" y="447" type="curve" smooth="yes"/>
			<point x="395" y="447"/>
			<point x="467" y="390"/>
			<point x="467" y="254" type="curve" smooth="yes"/>
			<point x="467" y="247" type="line" smooth="yes"/>
			<point x="467" y="114"/>
			<point x="400" y="34"/>
		</contour>
	</outline>
</glyph>
<glyph name="product" format="2">
	<unicode hex="220F"/>
	<advance width="600"/>
	<outline>
		<contour>
			<point x="85" y="0" type="line"/>
			<point x="140" y="0" type="line"/>
			<point x="140" y="635" type="line"/>
			<point x="460" y="635" type="line"/>
			<point x="460" y="0" type="line"/>
			<point x="515" y="0" type="line"/>
			<point x="515" y="684" type="line"/>
			<point x="85" y="684" type="line"/>
		</contour>
	</outline>
</glyph>
<glyph name="summation" format="2">
	<unicode hex="2211"/>
	<advance width="600"/>
	<outline>
		<contour>
			<point x="76" y="0" type="line"/>
			<point x="525" y="0" type="line"/>
			<point x="525" y="50" type="line"/>
			<point x="153" y="50" type="line"/>
			<point x="418" y="322" type="line"/>
			<point x="418" y="365" type="line"/>
			<point x="159" y="635" type="line"/>
			<point x="515" y="635" type="line"/>
			<point x="515" y="684" type="line"/>
			<point x="77" y="684" type="line"/>
			<point x="77" y="642" type="line"/>
			<point x="368" y="343" type="line"/>
			<point x="76" y="42" type="line"/>
		</contour>
	</outline>
</glyph>
<glyph name="minus" format="2">
	<unicode hex="2212"/>
	<advance width="600"/>
	<outline>
		<contour>
			<point x="80" y="288" type="line"/>
			<point x="520" y="288" type="line"/>
			<point x="520" y="339" type="line"/>
			<point x="80" y="339" type="line"/>
		</contour>
	</outline>
</glyph>
<glyph name="radical" format="2">
	<unicode hex="221A"/>
	<advance width="600"/>
	<outline>
		<contour>
			<point x="252" y="0" type="line"/>
			<point x="316" y="0" type="line"/>
			<point x="560" y="684" type="line"/>
			<point x="501" y="684" type="line"/>
			<point x="286" y="62" type="line"/>
			<point x="162" y="450" type="line"/>
			<point x="47" y="450" type="line"/>
			<point x="47" y="402" type="line"/>
			<point x="120" y="402" type="line"/>
		</contour>
	</outline>
</glyph>
<glyph name="infinity" format="2">
	<unicode hex="221E"/>
	<advance width="600"/>
	<outline>
		<contour>
			<point x="175" y="592" type="curve" smooth="yes"/>
			<point x="77" y="592"/>
			<point x="33" y="491"/>
			<point x="33" y="334" type="curve" smooth="yes"/>
			<point x="33" y="178"/>
			<point x="77" y="75"/>
			<point x="173" y="75" type="curve" smooth="yes"/>
			<point x="249" y="75"/>
			<point x="287" y="134"/>
			<point x="301" y="197" type="curve"/>
			<point x="315" y="134"/>
			<point x="350" y="74"/>
			<point x="426" y="74" type="curve" smooth="yes"/>
			<point x="525" y="74"/>
			<point x="567" y="176"/>
			<point x="567" y="332" type="curve" smooth="yes"/>
			<point x="567" y="487"/>
			<point x="526" y="591"/>
			<point x="425" y="591" type="curve" smooth="yes"/>
			<point x="358" y="591"/>
			<point x="317" y="545"/>
			<point x="301" y="471" type="curve"/>
			<point x="287" y="532"/>
			<point x="249" y="592"/>
		</contour>
		<contour>
			<point x="179" y="120" type="curve" smooth="yes"/>
			<point x="111" y="120"/>
			<point x="82" y="196"/>
			<point x="82" y="333" type="curve" smooth="yes"/>
			<point x="82" y="473"/>
			<point x="112" y="547"/>
			<point x="180" y="547" type="curve" smooth="yes"/>
			<point x="246" y="547"/>
			<point x="275" y="475"/>
			<point x="275" y="333" type="curve" smooth="yes"/>
			<point x="275" y="197"/>
			<point x="248" y="120"/>
		</contour>
		<contour>
			<point x="421" y="119" type="curve" smooth="yes"/>
			<point x="352" y="119"/>
			<point x="326" y="194"/>
			<point x="326" y="333" type="curve" smooth="yes"/>
			<point x="326" y="478"/>
			<point x="355" y="546"/>
			<point x="421" y="546" type="curve" smooth="yes"/>
			<point x="488" y="546"/>
			<point x="518" y="474"/>
			<point x="518" y="333" type="curve" smooth="yes"/>
			<point x="518" y="191"/>
			<point x="488" y="119"/>
		</contour>
	</outline>
</glyph>
<glyph name="lessequal" format="2">
	<unicode hex="2264"/>
	<advance width="600"/>
	<outline>
		<contour>
			<point x="520" y="111" type="line"/>
			<point x="520" y="171" type="line"/>
			<point x="136" y="335" type="line"/>
			<point x="520" y="501" type="line"/>
			<point x="520" y="560" type="line"/>
			<point x="80" y="365" type="line"/>
			<point x="80" y="306" type="line"/>
		</contour>
		<contour>
			<point x="80" y="-14" type="line"/>
			<point x="520" y="-14" type="line"/>
			<point x="520" y="37" type="line"/>
			<point x="80" y="37" type="line"/>
		</contour>
	</outline>
</glyph>
<glyph name="greaterequal" format="2">
	<unicode hex="2265"/>
	<advance width="600"/>
	<outline>
		<contour>
			<point x="80" y="111" type="line"/>
			<point x="520" y="306" type="line"/>
			<point x="520" y="365" type="line"/>
			<point x="80" y="560" type="line"/>
			<point x="80" y="501" type="line"/>
			<point x="464" y="335" type="line"/>
			<point x="80" y="171" type="line"/>
		</contour>
		<contour>
			<point x="80" y="-14" type="line"/>
			<point x="520" y="-14" type="line"/>
			<point x="520" y="37" type="line"/>
			<point x="80" y="37" type="line"/>
		</contour>
	</outline>
</glyph>
<glyph name="sun" format="2">
	<unicode hex="263C"/>
	<advance width="600"/>
	<outline>
		<contour>
			<point x="482" y="710" type="line"/>
			<point x="428" y="710" type="line"/>
			<point x="445" y="568" type="line"/>
			<point x="465" y="568" type="line"/>
		</contour>
		<contour>
			<point x="255" y="650" type="line"/>
			<point x="342" y="535" type="line"/>
			<point x="357" y="545" type="line"/>
			<point x="302" y="678" type="line"/>
		</contour>
		<contour>
			<point x="553" y="545" type="line"/>
			<point x="568" y="535" type="line"/>
			<point x="655" y="650" type="line"/>
			<point x="608" y="678" type="line"/>
		</contour>
		<contour>
			<point x="134" y="510" type="line"/>
			<point x="267" y="455" type="line"/>
			<point x="277" y="470" type="line"/>
			<point x="162" y="557" type="line"/>
		</contour>
		<contour>
			<point x="633" y="471" type="line"/>
			<point x="643" y="455" type="line"/>
			<point x="776" y="511" type="line"/>
			<point x="746" y="557" type="line"/>
		</contour>
		<contour>
			<point x="281" y="356" type="curve" smooth="yes"/>
			<point x="281" y="261"/>
			<point x="360" y="182"/>
			<point x="455" y="182" type="curve" smooth="yes"/>
			<point x="550" y="182"/>
			<point x="629" y="261"/>
			<point x="629" y="356" type="curve" smooth="yes"/>
			<point x="629" y="451"/>
			<point x="550" y="530"/>
			<point x="455" y="530" type="curve" smooth="yes"/>
			<point x="360" y="530"/>
			<point x="281" y="451"/>
		</contour>
		<contour>
			<point x="102" y="384" type="line"/>
			<point x="102" y="330" type="line"/>
			<point x="244" y="347" type="line"/>
			<point x="244" y="367" type="line"/>
		</contour>
		<contour>
			<point x="666" y="347" type="line"/>
			<point x="808" y="330" type="line"/>
			<point x="808" y="384" type="line"/>
			<point x="666" y="367" type="line"/>
		</contour>
		<contour>
			<point x="134" y="203" type="line"/>
			<point x="164" y="157" type="line"/>
			<point x="277" y="243" type="line"/>
			<point x="267" y="259" type="line"/>
		</contour>
		<contour>
			<point x="633" y="244" type="line"/>
			<point x="748" y="157" type="line"/>
			<point x="776" y="204" type="line"/>
			<point x="643" y="259" type="line"/>
		</contour>
		<contour>
			<point x="255" y="64" type="line"/>
			<point x="302" y="36" type="line"/>
			<point x="357" y="169" type="line"/>
			<point x="342" y="179" type="line"/>
		</contour>
		<contour>
			<point x="553" y="169" type="line"/>
			<point x="608" y="36" type="line"/>
			<point x="655" y="64" type="line"/>
			<point x="568" y="179" type="line"/>
		</contour>
		<contour>
			<point x="445" y="146" type="line"/>
			<point x="428" y="4" type="line"/>
			<point x="482" y="4" type="line"/>
			<point x="465" y="146" type="line"/>
		</contour>
	</outline>
</glyph>
<glyph name="anglebracketleft" format="2">
	<unicode hex="3008"/>
	<advance width="600"/>
	<outline>
		<contour>
			<point x="456" y="-163" type="line"/>
			<point x="516" y="-163" type="line"/>
			<point x="202" y="316" type="line"/>
			<point x="516" y="792" type="line"/>
			<point x="455" y="792" type="line"/>
			<point x="141" y="316" type="line"/>
		</contour>
	</outline>
</glyph>
<glyph name="commaaccent" format="2">
	<unicode hex="F6C3"/>
	<advance width="600"/>
	<outline>
		<contour>
			<point x="262" y="-264" type="curve"/>
			<point x="300" y="-264" type="line"/>
			<point x="324" y="-239"/>
			<point x="352" y="-172"/>
			<point x="352" y="-118" type="curve" smooth="yes"/>
			<point x="352" y="-84"/>
			<point x="340" y="-64"/>
			<point x="303" y="-64" type="curve" smooth="yes"/>
			<point x="277" y="-64"/>
			<point x="255" y="-74"/>
			<point x="255" y="-107" type="curve" smooth="yes"/>
			<point x="255" y="-137"/>
			<point x="271" y="-149"/>
			<point x="301" y="-149" type="curve"/>
			<point x="299" y="-177"/>
			<point x="281" y="-228"/>
		</contour>
	</outline>
	<anchor name="_bottom" x="304" y="0"/>
	<anchor name="anchor" x="296" y="0"/>
</glyph>
<glyph name="Anocross" format="2">
	<advance width="600"/>
	<outline>
		<contour>
			<point x="30" y="0" type="line"/>
			<point x="89" y="0" type="line"/>
			<point x="297" y="633" type="line"/>
			<point x="511" y="0" type="line"/>
			<point x="570" y="0" type="line"/>
			<point x="331" y="688" type="line"/>
			<point x="264" y="688" type="line"/>
		</contour>
	</outline>
	<anchor name="bottom" x="302" y="0"/>
	<anchor name="ogonek" x="570" y="0"/>
	<anchor name="top" x="298" y="684"/>
</glyph>
<glyph name="ampersand_ampersand.cLig" format="2">
	<advance width="600"/>
	<outline>
		<contour>
			<point x="-293" y="-14" type="curve" smooth="yes"/>
			<point x="-204" y="-14"/>
			<point x="-128" y="18"/>
			<point x="-65" y="97" type="curve"/>
			<point x="-33" y="27"/>
			<point x="38" y="-14"/>
			<point x="123" y="-14" type="curve" smooth="yes"/>
			<point x="215" y="-14"/>
			<point x="290" y="26"/>
			<point x="346" y="91" type="curve"/>
			<point x="438" y="0" type="line"/>
			<point x="512" y="0" type="line"/>
			<point x="378" y="133" type="line"/>
			<point x="422" y="200"/>
			<point x="451" y="285"/>
			<point x="465" y="379" type="curve"/>
			<point x="414" y="379" type="line"/>
			<point x="401" y="301"/>
			<point x="378" y="227"/>
			<point x="343" y="168" type="curve"/>
			<point x="136" y="374" type="line" smooth="yes"/>
			<point x="91" y="418"/>
			<point x="50" y="458"/>
			<point x="50" y="530" type="curve" smooth="yes"/>
			<point x="50" y="604"/>
			<point x="101" y="650"/>
			<point x="189" y="650" type="curve" smooth="yes"/>
			<point x="260" y="650"/>
			<point x="330" y="624"/>
			<point x="369" y="595" type="curve"/>
			<point x="369" y="650" type="line"/>
			<point x="333" y="673"/>
			<point x="264" y="698"/>
			<point x="191" y="698" type="curve" smooth="yes"/>
			<point x="65" y="698"/>
			<point x="-5" y="624"/>
			<point x="-5" y="524" type="curve" smooth="yes"/>
			<point x="-5" y="472"/>
			<point x="12" y="435"/>
			<point x="38" y="401" type="curve"/>
			<point x="-21" y="365"/>
			<point x="-84" y="292"/>
			<point x="-84" y="187" type="curve" smooth="yes"/>
			<point x="-84" y="175" type="line"/>
			<point x="-280" y="374" type="line" smooth="yes"/>
			<point x="-324" y="419"/>
			<point x="-366" y="458"/>
			<point x="-366" y="530" type="curve" smooth="yes"/>
			<point x="-366" y="604"/>
			<point x="-315" y="650"/>
			<point x="-227" y="650" type="curve" smooth="yes"/>
			<point x="-164" y="650"/>
			<point x="-102" y="625"/>
			<point x="-67" y="599" type="curve"/>
			<point x="-67" y="654" type="line"/>
			<point x="-99" y="674"/>
			<point x="-160" y="698"/>
			<point x="-225" y="698" type="curve" smooth="yes"/>
			<point x="-351" y="698"/>
			<point x="-421" y="624"/>
			<point x="-421" y="524" type="curve" smooth="yes"/>
			<point x="-421" y="472"/>
			<point x="-403" y="435"/>
			<point x="-378" y="402" type="curve"/>
			<point x="-437" y="365"/>
			<point x="-502" y="292"/>
			<point x="-502" y="187" type="curve" smooth="yes"/>
			<point x="-502" y="53"/>
			<point x="-410" y="-14"/>
		</contour>
		<contour>
			<point x="-446" y="192" type="curve" smooth="yes"/>
			<point x="-446" y="274"/>
			<point x="-404" y="333"/>
			<point x="-347" y="367" type="curve"/>
			<point x="-337" y="356"/>
			<point x="-327" y="346"/>
			<point x="-316" y="335" type="curve" smooth="yes"/>
			<point x="-108" y="124" type="line"/>
			<point x="-151" y="68"/>
			<point x="-210" y="34"/>
			<point x="-287" y="34" type="curve" smooth="yes"/>
			<point x="-386" y="34"/>
			<point x="-446" y="93"/>
		</contour>
		<contour>
			<point x="-28" y="192" type="curve" smooth="yes"/>
			<point x="-28" y="274"/>
			<point x="13" y="332"/>
			<point x="69" y="366" type="curve"/>
			<point x="79" y="356"/>
			<point x="89" y="346"/>
			<point x="100" y="335" type="curve" smooth="yes"/>
			<point x="313" y="124" type="line"/>
			<point x="268" y="69"/>
			<point x="207" y="34"/>
			<point x="129" y="34" type="curve" smooth="yes"/>
			<point x="31" y="34"/>
			<point x="-28" y="103"/>
		</contour>
	</outline>
</glyph>
<glyph name="ampersand_ampersand_ampersand.rem" format="2">
	<advance width="600"/>
	<outline>
		<contour>
			<point x="-835" y="-14" type="curve" smooth="yes"/>
			<point x="-738" y="-14"/>
			<point x="-656" y="18"/>
			<point x="-588" y="99" type="curve"/>
			<point x="-555" y="21"/>
			<point x="-472" y="-14"/>
			<point x="-379" y="-14" type="curve" smooth="yes"/>
			<point x="-282" y="-14"/>
			<point x="-200" y="18"/>
			<point x="-132" y="98" type="curve"/>
			<point x="-101" y="25"/>
			<point x="-23" y="-14"/>
			<point x="63" y="-14" type="curve" smooth="yes"/>
			<point x="164" y="-14"/>
			<point x="245" y="27"/>
			<point x="306" y="93" type="curve"/>
			<point x="402" y="0" type="line"/>
			<point x="476" y="0" type="line"/>
			<point x="338" y="134" type="line"/>
			<point x="385" y="201"/>
			<point x="415" y="286"/>
			<point x="429" y="379" type="curve"/>
			<point x="378" y="379" type="line"/>
			<point x="365" y="302"/>
			<point x="341" y="228"/>
			<point x="303" y="169" type="curve"/>
			<point x="93" y="374" type="line" smooth="yes"/>
			<point x="49" y="418"/>
			<point x="9" y="458"/>
			<point x="9" y="530" type="curve" smooth="yes"/>
			<point x="9" y="604"/>
			<point x="63" y="650"/>
			<point x="154" y="650" type="curve" smooth="yes"/>
			<point x="224" y="650"/>
			<point x="294" y="622"/>
			<point x="333" y="592" type="curve"/>
			<point x="333" y="647" type="line"/>
			<point x="296" y="671"/>
			<point x="228" y="698"/>
			<point x="156" y="698" type="curve" smooth="yes"/>
			<point x="27" y="698"/>
			<point x="-46" y="624"/>
			<point x="-46" y="524" type="curve" smooth="yes"/>
			<point x="-46" y="475"/>
			<point x="-30" y="438"/>
			<point x="-7" y="405" type="curve"/>
			<point x="-68" y="367"/>
			<point x="-146" y="289"/>
			<point x="-147" y="175" type="curve"/>
			<point x="-363" y="374" type="line" smooth="yes"/>
			<point x="-409" y="417"/>
			<point x="-449" y="458"/>
			<point x="-449" y="530" type="curve" smooth="yes"/>
			<point x="-449" y="604"/>
			<point x="-394" y="650"/>
			<point x="-300" y="650" type="curve" smooth="yes"/>
			<point x="-235" y="650"/>
			<point x="-171" y="624"/>
			<point x="-135" y="597" type="curve"/>
			<point x="-135" y="652" type="line"/>
			<point x="-168" y="674"/>
			<point x="-231" y="698"/>
			<point x="-298" y="698" type="curve" smooth="yes"/>
			<point x="-430" y="698"/>
			<point x="-504" y="624"/>
			<point x="-504" y="524" type="curve" smooth="yes"/>
			<point x="-504" y="474"/>
			<point x="-489" y="437"/>
			<point x="-465" y="405" type="curve"/>
			<point x="-526" y="368"/>
			<point x="-603" y="296"/>
			<point x="-603" y="178" type="curve" smooth="yes"/>
			<point x="-603" y="175" type="line"/>
			<point x="-819" y="374" type="line" smooth="yes"/>
			<point x="-865" y="417"/>
			<point x="-905" y="458"/>
			<point x="-905" y="530" type="curve" smooth="yes"/>
			<point x="-905" y="604"/>
			<point x="-850" y="650"/>
			<point x="-756" y="650" type="curve" smooth="yes"/>
			<point x="-691" y="650"/>
			<point x="-627" y="624"/>
			<point x="-591" y="597" type="curve"/>
			<point x="-591" y="652" type="line"/>
			<point x="-624" y="673"/>
			<point x="-687" y="698"/>
			<point x="-754" y="698" type="curve" smooth="yes"/>
			<point x="-886" y="698"/>
			<point x="-960" y="624"/>
			<point x="-960" y="524" type="curve" smooth="yes"/>
			<point x="-960" y="474"/>
			<point x="-945" y="437"/>
			<point x="-921" y="404" type="curve"/>
			<point x="-981" y="368"/>
			<point x="-1056" y="296"/>
			<point x="-1056" y="178" type="curve" smooth="yes"/>
			<point x="-1056" y="45"/>
			<point x="-953" y="-14"/>
		</contour>
		<contour>
			<point x="-91" y="179" type="curve" smooth="yes"/>
			<point x="-91" y="268"/>
			<point x="-36" y="332"/>
			<point x="23" y="369" type="curve"/>
			<point x="34" y="358"/>
			<point x="45" y="347"/>
			<point x="57" y="335" type="curve" smooth="yes"/>
			<point x="272" y="126" type="line"/>
			<point x="222" y="70"/>
			<point x="156" y="34"/>
			<point x="69" y="34" type="curve" smooth="yes"/>
			<point x="-25" y="34"/>
			<point x="-91" y="92"/>
		</contour>
		<contour>
			<point x="-547" y="183" type="curve" smooth="yes"/>
			<point x="-547" y="277"/>
			<point x="-493" y="335"/>
			<point x="-435" y="369" type="curve"/>
			<point x="-424" y="358"/>
			<point x="-412" y="346"/>
			<point x="-399" y="335" type="curve" smooth="yes"/>
			<point x="-172" y="129" type="line"/>
			<point x="-219" y="69"/>
			<point x="-291" y="34"/>
			<point x="-373" y="34" type="curve" smooth="yes"/>
			<point x="-476" y="34"/>
			<point x="-547" y="85"/>
		</contour>
		<contour>
			<point x="-1000" y="183" type="curve" smooth="yes"/>
			<point x="-1000" y="277"/>
			<point x="-948" y="334"/>
			<point x="-891" y="369" type="curve"/>
			<point x="-879" y="358"/>
			<point x="-867" y="346"/>
			<point x="-855" y="335" type="curve" smooth="yes"/>
			<point x="-628" y="129" type="line"/>
			<point x="-675" y="69"/>
			<point x="-747" y="34"/>
			<point x="-829" y="34" type="curve" smooth="yes"/>
			<point x="-930" y="34"/>
			<point x="-1000" y="85"/>
		</contour>
	</outline>
</glyph>
<glyph name="asciitilde_asciitilde.cLig" format="2">
	<advance width="600"/>
	<outline>
		<contour>
			<point x="-102" y="227" type="curve"/>
			<point x="18" y="227"/>
			<point x="16" y="356"/>
			<point x="102" y="356" type="curve"/>
			<point x="187" y="356"/>
			<point x="202" y="227"/>
			<point x="321" y="227" type="curve"/>
			<point x="411" y="227"/>
			<point x="456" y="306"/>
			<point x="460" y="402" type="curve"/>
			<point x="409" y="402" type="line"/>
			<point x="405" y="328"/>
			<point x="376" y="278"/>
			<point x="323" y="278" type="curve"/>
			<point x="233" y="278"/>
			<point x="222" y="406"/>
			<point x="105" y="406" type="curve"/>
			<point x="-13" y="406"/>
			<point x="-14" y="277"/>
			<point x="-100" y="277" type="curve"/>
			<point x="-183" y="277"/>
			<point x="-193" y="406"/>
			<point x="-311" y="406" type="curve"/>
			<point x="-404" y="406"/>
			<point x="-456" y="327"/>
			<point x="-460" y="231" type="curve"/>
			<point x="-409" y="231" type="line"/>
			<point x="-405" y="306"/>
			<point x="-371" y="355"/>
			<point x="-313" y="355" type="curve"/>
			<point x="-223" y="355"/>
			<point x="-218" y="227"/>
		</contour>
	</outline>
</glyph>
<glyph name="asciitilde_asciitilde_greater.cLig" format="2">
	<advance width="600"/>
	<outline>
		<contour>
			<point x="117" y="627" type="line"/>
			<point x="384" y="338" type="line"/>
			<point x="-22" y="338" type="line"/>
			<point x="-47" y="384"/>
			<point x="-87" y="411"/>
			<point x="-138" y="411" type="curve" smooth="yes"/>
			<point x="-256" y="411"/>
			<point x="-253" y="267"/>
			<point x="-342" y="267" type="curve" smooth="yes"/>
			<point x="-425" y="267"/>
			<point x="-431" y="409"/>
			<point x="-548" y="409" type="curve" smooth="yes"/>
			<point x="-666" y="409"/>
			<point x="-670" y="266"/>
			<point x="-749" y="266" type="curve"/>
			<point x="-833" y="266"/>
			<point x="-835" y="410"/>
			<point x="-960" y="410" type="curve" smooth="yes"/>
			<point x="-1043" y="410"/>
			<point x="-1095" y="347"/>
			<point x="-1110" y="242" type="curve"/>
			<point x="-1057" y="242" type="line"/>
			<point x="-1047" y="321"/>
			<point x="-1009" y="359"/>
			<point x="-961" y="359" type="curve" smooth="yes"/>
			<point x="-871" y="359"/>
			<point x="-867" y="216"/>
			<point x="-750" y="216" type="curve"/>
			<point x="-635" y="216"/>
			<point x="-637" y="359"/>
			<point x="-550" y="359" type="curve" smooth="yes"/>
			<point x="-465" y="359"/>
			<point x="-460" y="216"/>
			<point x="-346" y="216" type="curve" smooth="yes"/>
			<point x="-222" y="216"/>
			<point x="-230" y="361"/>
			<point x="-141" y="361" type="curve" smooth="yes"/>
			<point x="-100" y="361"/>
			<point x="-71" y="334"/>
			<point x="-55" y="287" type="curve"/>
			<point x="385" y="287" type="line"/>
			<point x="121" y="-2" type="line"/>
			<point x="191" y="-2" type="line"/>
			<point x="475" y="312" type="line"/>
			<point x="188" y="627" type="line"/>
		</contour>
	</outline>
</glyph>
<glyph name="asciitilde_equal.cLig.x" format="2">
	<advance width="600"/>
	<outline>
		<contour>
			<point x="-320" y="340" type="line"/>
			<point x="-274" y="411"/>
			<point x="-221" y="438"/>
			<point x="-162" y="438" type="curve" smooth="yes"/>
			<point x="-58" y="438"/>
			<point x="25" y="322"/>
			<point x="152" y="322" type="curve" smooth="yes"/>
			<point x="222" y="322"/>
			<point x="286" y="351"/>
			<point x="320" y="403" type="curve"/>
			<point x="320" y="469" type="line"/>
			<point x="265" y="392"/>
			<point x="209" y="369"/>
			<point x="145" y="371" type="curve" smooth="yes"/>
			<point x="45" y="374"/>
			<point x="-33" y="487"/>
			<point x="-162" y="487" type="curve" smooth="yes"/>
			<point x="-228" y="487"/>
			<point x="-287" y="458"/>
			<point x="-320" y="407" type="curve"/>
		</contour>
		<contour>
			<point x="-320" y="177" type="line"/>
			<point x="320" y="177" type="line"/>
			<point x="320" y="228" type="line"/>
			<point x="-320" y="228" type="line"/>
		</contour>
	</outline>
</glyph>
<glyph name="asterisk_asterisk.cLig" format="2">
	<advance width="600"/>
	<outline>
		<contour>
			<point x="-101" y="175" type="line"/>
			<point x="-69" y="231" type="line"/>
			<point x="-250" y="320" type="line"/>
			<point x="-69" y="410" type="line"/>
			<point x="-101" y="466" type="line"/>
			<point x="-269" y="354" type="line"/>
			<point x="-257" y="555" type="line"/>
			<point x="-321" y="555" type="line"/>
			<point x="-308" y="353" type="line"/>
			<point x="-478" y="465" type="line"/>
			<point x="-510" y="410" type="line"/>
			<point x="-328" y="320" type="line"/>
			<point x="-509" y="230" type="line"/>
			<point x="-477" y="174" type="line"/>
			<point x="-308" y="286" type="line"/>
			<point x="-320" y="84" type="line"/>
			<point x="-256" y="84" type="line"/>
			<point x="-269" y="286" type="line"/>
		</contour>
		<contour>
			<point x="478" y="174" type="line"/>
			<point x="510" y="230" type="line"/>
			<point x="329" y="319" type="line"/>
			<point x="510" y="409" type="line"/>
			<point x="478" y="465" type="line"/>
			<point x="310" y="353" type="line"/>
			<point x="322" y="554" type="line"/>
			<point x="258" y="554" type="line"/>
			<point x="271" y="352" type="line"/>
			<point x="101" y="464" type="line"/>
			<point x="69" y="409" type="line"/>
			<point x="251" y="319" type="line"/>
			<point x="70" y="229" type="line"/>
			<point x="102" y="173" type="line"/>
			<point x="271" y="285" type="line"/>
			<point x="259" y="83" type="line"/>
			<point x="323" y="83" type="line"/>
			<point x="310" y="285" type="line"/>
		</contour>
	</outline>
</glyph>
<glyph name="asterisk_asterisk_slash.rem" format="2">
	<advance width="600"/>
	<outline>
		<contour>
			<point x="413" y="792" type="line"/>
			<point x="20" y="-163" type="line"/>
			<point x="76" y="-163" type="line"/>
			<point x="470" y="792" type="line"/>
		</contour>
		<contour>
			<point x="-641" y="175" type="line"/>
			<point x="-609" y="231" type="line"/>
			<point x="-790" y="320" type="line"/>
			<point x="-609" y="410" type="line"/>
			<point x="-641" y="466" type="line"/>
			<point x="-809" y="354" type="line"/>
			<point x="-797" y="555" type="line"/>
			<point x="-861" y="555" type="line"/>
			<point x="-848" y="353" type="line"/>
			<point x="-1018" y="465" type="line"/>
			<point x="-1050" y="410" type="line"/>
			<point x="-868" y="320" type="line"/>
			<point x="-1049" y="230" type="line"/>
			<point x="-1017" y="174" type="line"/>
			<point x="-848" y="286" type="line"/>
			<point x="-860" y="84" type="line"/>
			<point x="-796" y="84" type="line"/>
			<point x="-809" y="286" type="line"/>
		</contour>
		<contour>
			<point x="-61" y="175" type="line"/>
			<point x="-29" y="231" type="line"/>
			<point x="-210" y="320" type="line"/>
			<point x="-29" y="410" type="line"/>
			<point x="-61" y="466" type="line"/>
			<point x="-229" y="354" type="line"/>
			<point x="-217" y="555" type="line"/>
			<point x="-281" y="555" type="line"/>
			<point x="-268" y="353" type="line"/>
			<point x="-438" y="465" type="line"/>
			<point x="-470" y="410" type="line"/>
			<point x="-288" y="320" type="line"/>
			<point x="-469" y="230" type="line"/>
			<point x="-437" y="174" type="line"/>
			<point x="-268" y="286" type="line"/>
			<point x="-280" y="84" type="line"/>
			<point x="-216" y="84" type="line"/>
			<point x="-229" y="286" type="line"/>
		</contour>
	</outline>
</glyph>
<glyph name="asterisk_greater.cLig" format="2">
	<advance width="600"/>
	<outline>
		<contour>
			<point x="60" y="-3" type="line"/>
			<point x="500" y="284" type="line"/>
			<point x="500" y="343" type="line"/>
			<point x="60" y="631" type="line"/>
			<point x="60" y="568" type="line"/>
			<point x="454" y="314" type="line"/>
			<point x="60" y="59" type="line"/>
		</contour>
		<contour>
			<point x="-61" y="170" type="line"/>
			<point x="-29" y="225" type="line"/>
			<point x="-211" y="315" type="line"/>
			<point x="-30" y="405" type="line"/>
			<point x="-62" y="461" type="line"/>
			<point x="-231" y="349" type="line"/>
			<point x="-219" y="551" type="line"/>
			<point x="-283" y="551" type="line"/>
			<point x="-270" y="349" type="line"/>
			<point x="-438" y="460" type="line"/>
			<point x="-470" y="404" type="line"/>
			<point x="-289" y="315" type="line"/>
			<point x="-470" y="225" type="line"/>
			<point x="-438" y="169" type="line"/>
			<point x="-270" y="281" type="line"/>
			<point x="-282" y="80" type="line"/>
			<point x="-218" y="80" type="line"/>
			<point x="-231" y="282" type="line"/>
		</contour>
	</outline>
</glyph>
<glyph name="asterisk_slash.cLig" format="2">
	<advance width="600"/>
	<outline>
		<contour>
			<point x="413" y="792" type="line"/>
			<point x="20" y="-163" type="line"/>
			<point x="76" y="-163" type="line"/>
			<point x="470" y="792" type="line"/>
		</contour>
		<contour>
			<point x="-61" y="175" type="line"/>
			<point x="-29" y="231" type="line"/>
			<point x="-210" y="320" type="line"/>
			<point x="-29" y="410" type="line"/>
			<point x="-61" y="466" type="line"/>
			<point x="-229" y="354" type="line"/>
			<point x="-217" y="555" type="line"/>
			<point x="-281" y="555" type="line"/>
			<point x="-268" y="353" type="line"/>
			<point x="-438" y="465" type="line"/>
			<point x="-470" y="410" type="line"/>
			<point x="-288" y="320" type="line"/>
			<point x="-469" y="230" type="line"/>
			<point x="-437" y="174" type="line"/>
			<point x="-268" y="286" type="line"/>
			<point x="-280" y="84" type="line"/>
			<point x="-216" y="84" type="line"/>
			<point x="-229" y="286" type="line"/>
		</contour>
	</outline>
</glyph>
<glyph name="backslash_backslash_backslash.rem" format="2">
	<advance width="600"/>
	<outline>
		<contour>
			<point x="-632" y="-163" type="line"/>
			<point x="-575" y="-163" type="line"/>
			<point x="-969" y="792" type="line"/>
			<point x="-1025" y="792" type="line"/>
		</contour>
		<contour>
			<point x="-132" y="-163" type="line"/>
			<point x="-75" y="-163" type="line"/>
			<point x="-469" y="792" type="line"/>
			<point x="-525" y="792" type="line"/>
		</contour>
		<contour>
			<point x="368" y="-163" type="line"/>
			<point x="425" y="-163" type="line"/>
			<point x="31" y="792" type="line"/>
			<point x="-25" y="792" type="line"/>
		</contour>
	</outline>
</glyph>
<glyph name="bar_bar_bar_greater.cLig" format="2">
	<advance width="600"/>
	<outline>
		<contour>
			<point x="-870" y="-79" type="line"/>
			<point x="-818" y="-79" type="line"/>
			<point x="-818" y="708" type="line"/>
			<point x="-870" y="708" type="line"/>
		</contour>
		<contour>
			<point x="-1450" y="-79" type="line"/>
			<point x="-1398" y="-79" type="line"/>
			<point x="-1398" y="708" type="line"/>
			<point x="-1450" y="708" type="line"/>
		</contour>
		<contour>
			<point x="-290" y="-79" type="line"/>
			<point x="-238" y="-79" type="line"/>
			<point x="320" y="285" type="line"/>
			<point x="320" y="344" type="line"/>
			<point x="-238" y="708" type="line"/>
			<point x="-290" y="708" type="line"/>
		</contour>
		<contour>
			<point x="-238" y="649" type="line"/>
			<point x="276" y="315" type="line"/>
			<point x="-238" y="-20" type="line"/>
		</contour>
	</outline>
</glyph>
<glyph name="bar_bar_equal.med" format="2">
	<advance width="600"/>
	<outline>
		<contour>
			<point x="164" y="-55" type="line"/>
			<point x="216" y="-55" type="line"/>
			<point x="216" y="186" type="line"/>
			<point x="600" y="186" type="line"/>
			<point x="600" y="237" type="line"/>
			<point x="216" y="237" type="line"/>
			<point x="216" y="392" type="line"/>
			<point x="600" y="392" type="line"/>
			<point x="600" y="443" type="line"/>
			<point x="216" y="443" type="line"/>
			<point x="216" y="684" type="line"/>
			<point x="164" y="684" type="line"/>
		</contour>
		<contour>
			<point x="-600" y="186" type="line"/>
			<point x="-216" y="186" type="line"/>
			<point x="-216" y="-55" type="line"/>
			<point x="-164" y="-55" type="line"/>
			<point x="-164" y="684" type="line"/>
			<point x="-216" y="684" type="line"/>
			<point x="-216" y="443" type="line"/>
			<point x="-600" y="443" type="line"/>
			<point x="-600" y="392" type="line"/>
			<point x="-216" y="392" type="line"/>
			<point x="-216" y="237" type="line"/>
			<point x="-600" y="237" type="line"/>
		</contour>
	</outline>
</glyph>
<glyph name="bar_bar_hyphen.fina" format="2">
	<advance width="600"/>
	<outline>
		<contour>
			<point x="284" y="-55" type="line"/>
			<point x="336" y="-55" type="line"/>
			<point x="336" y="684" type="line"/>
			<point x="284" y="684" type="line"/>
		</contour>
		<contour>
			<point x="-600" y="288" type="line"/>
			<point x="-96" y="288" type="line"/>
			<point x="-96" y="-55" type="line"/>
			<point x="-44" y="-55" type="line"/>
			<point x="-44" y="684" type="line"/>
			<point x="-96" y="684" type="line"/>
			<point x="-96" y="339" type="line"/>
			<point x="-600" y="339" type="line"/>
		</contour>
	</outline>
</glyph>
<glyph name="bar_equal_greater.rem" format="2">
	<advance width="600"/>
	<outline>
		<contour>
			<point x="-1020" y="629" type="line"/>
			<point x="-1020" y="0" type="line"/>
			<point x="-969" y="0" type="line"/>
			<point x="-969" y="186" type="line"/>
			<point x="287" y="186" type="line"/>
			<point x="117" y="0" type="line"/>
			<point x="186" y="0" type="line"/>
			<point x="470" y="313" type="line"/>
			<point x="183" y="629" type="line"/>
			<point x="114" y="629" type="line"/>
			<point x="284" y="443" type="line"/>
			<point x="-969" y="443" type="line"/>
			<point x="-969" y="629" type="line"/>
		</contour>
		<contour>
			<point x="403" y="313" type="line"/>
			<point x="333" y="237" type="line"/>
			<point x="-969" y="237" type="line"/>
			<point x="-969" y="392" type="line"/>
			<point x="331" y="392" type="line"/>
		</contour>
	</outline>
</glyph>
<glyph name="bar_greater.cLig" format="2">
	<advance width="600"/>
	<outline>
		<contour>
			<point x="-250" y="-79" type="line"/>
			<point x="-198" y="-79" type="line"/>
			<point x="360" y="285" type="line"/>
			<point x="360" y="344" type="line"/>
			<point x="-198" y="708" type="line"/>
			<point x="-250" y="708" type="line"/>
		</contour>
		<contour>
			<point x="-198" y="649" type="line"/>
			<point x="316" y="315" type="line"/>
			<point x="-198" y="-20" type="line"/>
		</contour>
	</outline>
</glyph>
<glyph name="bar_hyphen.med" format="2">
	<advance width="600"/>
	<outline>
		<contour>
			<point x="274" y="-55" type="line"/>
			<point x="326" y="-55" type="line"/>
			<point x="326" y="288" type="line"/>
			<point x="600" y="288" type="line"/>
			<point x="600" y="339" type="line"/>
			<point x="326" y="339" type="line"/>
			<point x="326" y="684" type="line"/>
			<point x="274" y="684" type="line"/>
			<point x="274" y="339" type="line"/>
			<point x="0" y="339" type="line"/>
			<point x="0" y="288" type="line"/>
			<point x="274" y="288" type="line"/>
		</contour>
	</outline>
</glyph>
<glyph name="braceleft_bar.cLig" format="2">
	<advance width="600"/>
	<outline>
		<contour>
			<point x="-202" y="-163" type="curve" smooth="yes"/>
			<point x="28" y="-163" type="line"/>
			<point x="28" y="-119" type="line"/>
			<point x="-197" y="-119" type="line" smooth="yes"/>
			<point x="-268" y="-119"/>
			<point x="-314" y="-90"/>
			<point x="-314" y="-24" type="curve" smooth="yes"/>
			<point x="-314" y="57"/>
			<point x="-204" y="118"/>
			<point x="-204" y="213" type="curve" smooth="yes"/>
			<point x="-204" y="267"/>
			<point x="-255" y="304"/>
			<point x="-319" y="315" type="curve"/>
			<point x="-255" y="326"/>
			<point x="-204" y="361"/>
			<point x="-204" y="414" type="curve" smooth="yes"/>
			<point x="-204" y="510"/>
			<point x="-314" y="573"/>
			<point x="-314" y="654" type="curve" smooth="yes"/>
			<point x="-314" y="719"/>
			<point x="-265" y="748"/>
			<point x="-196" y="748" type="curve" smooth="yes"/>
			<point x="28" y="748" type="line"/>
			<point x="28" y="792" type="line"/>
			<point x="-202" y="792" type="line" smooth="yes"/>
			<point x="-310" y="792"/>
			<point x="-368" y="731"/>
			<point x="-368" y="654" type="curve" smooth="yes"/>
			<point x="-368" y="559"/>
			<point x="-257" y="490"/>
			<point x="-257" y="416" type="curve" smooth="yes"/>
			<point x="-257" y="384"/>
			<point x="-280" y="341"/>
			<point x="-369" y="341" type="curve" smooth="yes"/>
			<point x="-415" y="341" type="line"/>
			<point x="-415" y="287" type="line"/>
			<point x="-369" y="287" type="line" smooth="yes"/>
			<point x="-281" y="287"/>
			<point x="-257" y="244"/>
			<point x="-257" y="212" type="curve" smooth="yes"/>
			<point x="-257" y="139"/>
			<point x="-368" y="70"/>
			<point x="-368" y="-24" type="curve" smooth="yes"/>
			<point x="-368" y="-102"/>
			<point x="-319" y="-163"/>
		</contour>
		<contour>
			<point x="278" y="792" type="line"/>
			<point x="278" y="-163" type="line"/>
			<point x="330" y="-163" type="line"/>
			<point x="330" y="792" type="line"/>
		</contour>
	</outline>
</glyph>
<glyph name="braceleft_braceleft.cLig" format="2">
	<advance width="600"/>
	<outline>
		<contour>
			<point x="-29" y="-163" type="line"/>
			<point x="-29" y="-119" type="line"/>
			<point x="-179" y="-119" type="line" smooth="yes"/>
			<point x="-250" y="-119"/>
			<point x="-296" y="-90"/>
			<point x="-296" y="-24" type="curve"/>
			<point x="-296" y="57"/>
			<point x="-186" y="118"/>
			<point x="-186" y="213" type="curve" smooth="yes"/>
			<point x="-186" y="267"/>
			<point x="-237" y="304"/>
			<point x="-301" y="315" type="curve"/>
			<point x="-237" y="326"/>
			<point x="-186" y="361"/>
			<point x="-186" y="414" type="curve" smooth="yes"/>
			<point x="-186" y="510"/>
			<point x="-296" y="573"/>
			<point x="-296" y="654" type="curve" smooth="yes"/>
			<point x="-296" y="719"/>
			<point x="-247" y="748"/>
			<point x="-178" y="748" type="curve" smooth="yes"/>
			<point x="163" y="748" type="line"/>
			<point x="115" y="730"/>
			<point x="99" y="689"/>
			<point x="99" y="652" type="curve" smooth="yes"/>
			<point x="99" y="557"/>
			<point x="210" y="490"/>
			<point x="210" y="416" type="curve" smooth="yes"/>
			<point x="210" y="384"/>
			<point x="187" y="341"/>
			<point x="98" y="341" type="curve" smooth="yes"/>
			<point x="42" y="341" type="line"/>
			<point x="42" y="287" type="line"/>
			<point x="98" y="287" type="line" smooth="yes"/>
			<point x="186" y="287"/>
			<point x="210" y="244"/>
			<point x="210" y="212" type="curve" smooth="yes"/>
			<point x="210" y="139"/>
			<point x="99" y="70"/>
			<point x="99" y="-24" type="curve"/>
			<point x="99" y="-102"/>
			<point x="148" y="-163"/>
			<point x="265" y="-163" type="curve" smooth="yes"/>
			<point x="431" y="-163" type="line"/>
			<point x="431" y="-119" type="line"/>
			<point x="270" y="-119" type="line" smooth="yes"/>
			<point x="199" y="-119"/>
			<point x="153" y="-90"/>
			<point x="153" y="-24" type="curve"/>
			<point x="153" y="57"/>
			<point x="263" y="118"/>
			<point x="263" y="213" type="curve" smooth="yes"/>
			<point x="263" y="267"/>
			<point x="212" y="304"/>
			<point x="148" y="315" type="curve"/>
			<point x="212" y="326"/>
			<point x="263" y="361"/>
			<point x="263" y="418" type="curve" smooth="yes"/>
			<point x="263" y="510"/>
			<point x="153" y="573"/>
			<point x="153" y="654" type="curve" smooth="yes"/>
			<point x="153" y="719"/>
			<point x="202" y="748"/>
			<point x="271" y="748" type="curve" smooth="yes"/>
			<point x="431" y="748" type="line"/>
			<point x="431" y="792" type="line"/>
			<point x="-184" y="792" type="line" smooth="yes"/>
			<point x="-292" y="792"/>
			<point x="-350" y="731"/>
			<point x="-350" y="654" type="curve" smooth="yes"/>
			<point x="-350" y="559"/>
			<point x="-239" y="490"/>
			<point x="-239" y="416" type="curve" smooth="yes"/>
			<point x="-239" y="384"/>
			<point x="-262" y="341"/>
			<point x="-351" y="341" type="curve" smooth="yes"/>
			<point x="-412" y="341" type="line"/>
			<point x="-412" y="287" type="line"/>
			<point x="-351" y="287" type="line" smooth="yes"/>
			<point x="-263" y="287"/>
			<point x="-239" y="244"/>
			<point x="-239" y="212" type="curve" smooth="yes"/>
			<point x="-239" y="139"/>
			<point x="-350" y="70"/>
			<point x="-350" y="-24" type="curve"/>
			<point x="-350" y="-102"/>
			<point x="-301" y="-163"/>
			<point x="-184" y="-163" type="curve" smooth="yes"/>
		</contour>
	</outline>
</glyph>
<glyph name="braceleft_hyphen.rem" format="2">
	<advance width="600"/>
	<outline>
		<contour>
			<point x="-27" y="792" type="line"/>
			<point x="-153" y="792" type="line" smooth="yes"/>
			<point x="-269" y="792"/>
			<point x="-319" y="732"/>
			<point x="-319" y="653" type="curve" smooth="yes"/>
			<point x="-319" y="559"/>
			<point x="-207" y="486"/>
			<point x="-207" y="413" type="curve" smooth="yes"/>
			<point x="-207" y="383"/>
			<point x="-226" y="342"/>
			<point x="-296" y="342" type="curve" smooth="yes"/>
			<point x="-365" y="342" type="line"/>
			<point x="-365" y="288" type="line"/>
			<point x="-296" y="288" type="line" smooth="yes"/>
			<point x="-226" y="288"/>
			<point x="-207" y="247"/>
			<point x="-207" y="217" type="curve" smooth="yes"/>
			<point x="-207" y="144"/>
			<point x="-319" y="73"/>
			<point x="-319" y="-25" type="curve" smooth="yes"/>
			<point x="-319" y="-102"/>
			<point x="-260" y="-163"/>
			<point x="-153" y="-163" type="curve" smooth="yes"/>
			<point x="-27" y="-163" type="line"/>
			<point x="-27" y="-119" type="line"/>
			<point x="-148" y="-119" type="line" smooth="yes"/>
			<point x="-216" y="-119"/>
			<point x="-265" y="-90"/>
			<point x="-265" y="-25" type="curve" smooth="yes"/>
			<point x="-265" y="58"/>
			<point x="-154" y="120"/>
			<point x="-154" y="212" type="curve" smooth="yes"/>
			<point x="-154" y="250"/>
			<point x="-175" y="277"/>
			<point x="-206" y="291" type="curve"/>
			<point x="420" y="291" type="line"/>
			<point x="420" y="338" type="line"/>
			<point x="-209" y="338" type="line"/>
			<point x="-176" y="351"/>
			<point x="-154" y="379"/>
			<point x="-154" y="418" type="curve" smooth="yes"/>
			<point x="-154" y="513"/>
			<point x="-265" y="572"/>
			<point x="-265" y="653" type="curve" smooth="yes"/>
			<point x="-265" y="719"/>
			<point x="-218" y="748"/>
			<point x="-148" y="748" type="curve" smooth="yes"/>
			<point x="-27" y="748" type="line"/>
		</contour>
	</outline>
</glyph>
<glyph name="braceleft_numbersign.cLig" format="2">
	<advance width="600"/>
	<outline>
		<contour>
			<point x="-458" y="287" type="line"/>
			<point x="-412" y="287" type="line" smooth="yes"/>
			<point x="-324" y="287"/>
			<point x="-300" y="244"/>
			<point x="-300" y="212" type="curve" smooth="yes"/>
			<point x="-300" y="139"/>
			<point x="-411" y="70"/>
			<point x="-411" y="-24" type="curve" smooth="yes"/>
			<point x="-411" y="-102"/>
			<point x="-362" y="-163"/>
			<point x="-245" y="-163" type="curve" smooth="yes"/>
			<point x="-120" y="-163" type="line"/>
			<point x="-120" y="-119" type="line"/>
			<point x="-240" y="-119" type="line" smooth="yes"/>
			<point x="-311" y="-119"/>
			<point x="-357" y="-90"/>
			<point x="-357" y="-24" type="curve" smooth="yes"/>
			<point x="-357" y="57"/>
			<point x="-247" y="118"/>
			<point x="-247" y="213" type="curve" smooth="yes"/>
			<point x="-247" y="267"/>
			<point x="-298" y="304"/>
			<point x="-362" y="315" type="curve"/>
			<point x="-298" y="326"/>
			<point x="-247" y="361"/>
			<point x="-247" y="414" type="curve" smooth="yes"/>
			<point x="-247" y="510"/>
			<point x="-357" y="573"/>
			<point x="-357" y="654" type="curve" smooth="yes"/>
			<point x="-357" y="719"/>
			<point x="-308" y="748"/>
			<point x="-239" y="748" type="curve" smooth="yes"/>
			<point x="-120" y="748" type="line"/>
			<point x="-120" y="792" type="line"/>
			<point x="-245" y="792" type="line" smooth="yes"/>
			<point x="-353" y="792"/>
			<point x="-411" y="731"/>
			<point x="-411" y="654" type="curve" smooth="yes"/>
			<point x="-411" y="559"/>
			<point x="-300" y="490"/>
			<point x="-300" y="416" type="curve" smooth="yes"/>
			<point x="-300" y="384"/>
			<point x="-323" y="341"/>
			<point x="-412" y="341" type="curve" smooth="yes"/>
			<point x="-458" y="341" type="line"/>
		</contour>
		<contour>
			<point x="-105" y="222" type="line"/>
			<point x="-105" y="174" type="line"/>
			<point x="39" y="174" type="line"/>
			<point x="22" y="0" type="line"/>
			<point x="75" y="0" type="line"/>
			<point x="91" y="174" type="line"/>
			<point x="246" y="174" type="line"/>
			<point x="230" y="0" type="line"/>
			<point x="280" y="0" type="line"/>
			<point x="297" y="174" type="line"/>
			<point x="417" y="174" type="line"/>
			<point x="417" y="222" type="line"/>
			<point x="301" y="222" type="line"/>
			<point x="326" y="476" type="line"/>
			<point x="441" y="476" type="line"/>
			<point x="441" y="525" type="line"/>
			<point x="331" y="525" type="line"/>
			<point x="346" y="684" type="line"/>
			<point x="294" y="684" type="line"/>
			<point x="279" y="525" type="line"/>
			<point x="124" y="525" type="line"/>
			<point x="139" y="684" type="line"/>
			<point x="88" y="684" type="line"/>
			<point x="73" y="525" type="line"/>
			<point x="-105" y="525" type="line"/>
			<point x="-105" y="476" type="line"/>
			<point x="68" y="476" type="line"/>
			<point x="43" y="222" type="line"/>
		</contour>
		<contour>
			<point x="96" y="222" type="line"/>
			<point x="120" y="476" type="line"/>
			<point x="275" y="476" type="line"/>
			<point x="251" y="222" type="line"/>
		</contour>
	</outline>
</glyph>
<glyph name="braceright_braceright.cLig" format="2">
	<advance width="600"/>
	<outline>
		<contour>
			<point x="48" y="792" type="line"/>
			<point x="48" y="748" type="line"/>
			<point x="198" y="748" type="line" smooth="yes"/>
			<point x="269" y="748"/>
			<point x="315" y="719"/>
			<point x="315" y="653" type="curve"/>
			<point x="315" y="572"/>
			<point x="205" y="511"/>
			<point x="205" y="416" type="curve" smooth="yes"/>
			<point x="205" y="362"/>
			<point x="256" y="325"/>
			<point x="320" y="314" type="curve"/>
			<point x="256" y="303"/>
			<point x="205" y="268"/>
			<point x="205" y="215" type="curve" smooth="yes"/>
			<point x="205" y="119"/>
			<point x="315" y="56"/>
			<point x="315" y="-25" type="curve" smooth="yes"/>
			<point x="315" y="-90"/>
			<point x="266" y="-119"/>
			<point x="197" y="-119" type="curve" smooth="yes"/>
			<point x="-144" y="-119" type="line"/>
			<point x="-96" y="-101"/>
			<point x="-80" y="-60"/>
			<point x="-80" y="-23" type="curve" smooth="yes"/>
			<point x="-80" y="72"/>
			<point x="-191" y="139"/>
			<point x="-191" y="213" type="curve" smooth="yes"/>
			<point x="-191" y="245"/>
			<point x="-168" y="288"/>
			<point x="-79" y="288" type="curve" smooth="yes"/>
			<point x="-23" y="288" type="line"/>
			<point x="-23" y="342" type="line"/>
			<point x="-79" y="342" type="line" smooth="yes"/>
			<point x="-167" y="342"/>
			<point x="-191" y="385"/>
			<point x="-191" y="417" type="curve" smooth="yes"/>
			<point x="-191" y="490"/>
			<point x="-80" y="559"/>
			<point x="-80" y="653" type="curve"/>
			<point x="-80" y="731"/>
			<point x="-129" y="792"/>
			<point x="-246" y="792" type="curve" smooth="yes"/>
			<point x="-412" y="792" type="line"/>
			<point x="-412" y="748" type="line"/>
			<point x="-251" y="748" type="line" smooth="yes"/>
			<point x="-180" y="748"/>
			<point x="-134" y="719"/>
			<point x="-134" y="653" type="curve"/>
			<point x="-134" y="572"/>
			<point x="-244" y="511"/>
			<point x="-244" y="416" type="curve" smooth="yes"/>
			<point x="-244" y="362"/>
			<point x="-193" y="325"/>
			<point x="-129" y="314" type="curve"/>
			<point x="-193" y="303"/>
			<point x="-244" y="268"/>
			<point x="-244" y="211" type="curve" smooth="yes"/>
			<point x="-244" y="119"/>
			<point x="-134" y="56"/>
			<point x="-134" y="-25" type="curve" smooth="yes"/>
			<point x="-134" y="-90"/>
			<point x="-183" y="-119"/>
			<point x="-252" y="-119" type="curve" smooth="yes"/>
			<point x="-412" y="-119" type="line"/>
			<point x="-412" y="-163" type="line"/>
			<point x="203" y="-163" type="line" smooth="yes"/>
			<point x="311" y="-163"/>
			<point x="369" y="-102"/>
			<point x="369" y="-25" type="curve" smooth="yes"/>
			<point x="369" y="70"/>
			<point x="258" y="139"/>
			<point x="258" y="213" type="curve" smooth="yes"/>
			<point x="258" y="245"/>
			<point x="281" y="288"/>
			<point x="370" y="288" type="curve" smooth="yes"/>
			<point x="431" y="288" type="line"/>
			<point x="431" y="342" type="line"/>
			<point x="370" y="342" type="line" smooth="yes"/>
			<point x="282" y="342"/>
			<point x="258" y="385"/>
			<point x="258" y="417" type="curve" smooth="yes"/>
			<point x="258" y="490"/>
			<point x="369" y="559"/>
			<point x="369" y="653" type="curve"/>
			<point x="369" y="731"/>
			<point x="320" y="792"/>
			<point x="203" y="792" type="curve" smooth="yes"/>
		</contour>
	</outline>
</glyph>
<glyph name="bracketleft_numbersign.cLig" format="2">
	<advance width="600"/>
	<outline>
		<contour>
			<point x="-105" y="222" type="line"/>
			<point x="-105" y="174" type="line"/>
			<point x="39" y="174" type="line"/>
			<point x="22" y="0" type="line"/>
			<point x="75" y="0" type="line"/>
			<point x="91" y="174" type="line"/>
			<point x="246" y="174" type="line"/>
			<point x="230" y="0" type="line"/>
			<point x="280" y="0" type="line"/>
			<point x="297" y="174" type="line"/>
			<point x="417" y="174" type="line"/>
			<point x="417" y="222" type="line"/>
			<point x="301" y="222" type="line"/>
			<point x="326" y="476" type="line"/>
			<point x="441" y="476" type="line"/>
			<point x="441" y="525" type="line"/>
			<point x="331" y="525" type="line"/>
			<point x="346" y="684" type="line"/>
			<point x="294" y="684" type="line"/>
			<point x="279" y="525" type="line"/>
			<point x="124" y="525" type="line"/>
			<point x="139" y="684" type="line"/>
			<point x="88" y="684" type="line"/>
			<point x="73" y="525" type="line"/>
			<point x="-105" y="525" type="line"/>
			<point x="-105" y="476" type="line"/>
			<point x="68" y="476" type="line"/>
			<point x="43" y="222" type="line"/>
		</contour>
		<contour>
			<point x="96" y="222" type="line"/>
			<point x="120" y="476" type="line"/>
			<point x="275" y="476" type="line"/>
			<point x="251" y="222" type="line"/>
		</contour>
		<contour>
			<point x="-129" y="-119" type="line"/>
			<point x="-336" y="-119" type="line"/>
			<point x="-336" y="748" type="line"/>
			<point x="-129" y="748" type="line"/>
			<point x="-129" y="792" type="line"/>
			<point x="-388" y="792" type="line"/>
			<point x="-388" y="-163" type="line"/>
			<point x="-129" y="-163" type="line"/>
		</contour>
	</outline>
</glyph>
<glyph name="bracketright_bracketright.cLig" format="2">
	<advance width="600"/>
	<outline>
		<contour>
			<point x="407" y="792" type="line"/>
			<point x="32" y="792" type="line"/>
			<point x="32" y="748" type="line"/>
			<point x="355" y="748" type="line"/>
			<point x="355" y="-119" type="line"/>
			<point x="32" y="-119" type="line"/>
			<point x="32" y="-163" type="line"/>
			<point x="407" y="-163" type="line"/>
		</contour>
		<contour>
			<point x="-58" y="792" type="line"/>
			<point x="-366" y="792" type="line"/>
			<point x="-366" y="748" type="line"/>
			<point x="-110" y="748" type="line"/>
			<point x="-110" y="-119" type="line"/>
			<point x="-366" y="-119" type="line"/>
			<point x="-366" y="-163" type="line"/>
			<point x="-58" y="-163" type="line"/>
		</contour>
	</outline>
</glyph>
<glyph name="breve.cap" format="2">
	<advance width="600"/>
	<outline>
		<contour>
			<point x="300" y="743" type="curve" smooth="yes"/>
			<point x="385" y="743"/>
			<point x="434" y="785"/>
			<point x="434" y="884" type="curve"/>
			<point x="388" y="884" type="line"/>
			<point x="388" y="816"/>
			<point x="362" y="782"/>
			<point x="300" y="782" type="curve" smooth="yes"/>
			<point x="236" y="782"/>
			<point x="212" y="816"/>
			<point x="212" y="884" type="curve"/>
			<point x="166" y="884" type="line"/>
			<point x="166" y="785"/>
			<point x="211" y="743"/>
		</contour>
	</outline>
	<anchor name="_top" x="300" y="684"/>
</glyph>
<glyph name="caron.cap" format="2">
	<advance width="600"/>
	<outline>
		<contour>
			<point x="449" y="884" type="line"/>
			<point x="390" y="884" type="line"/>
			<point x="299" y="786" type="line"/>
			<point x="210" y="884" type="line"/>
			<point x="151" y="884" type="line"/>
			<point x="275" y="750" type="line"/>
			<point x="323" y="750" type="line"/>
		</contour>
	</outline>
	<anchor name="_top" x="299" y="684"/>
	<guideline x="192" y="790" angle="0" identifier="aGFMU8s62G"/>
</glyph>
<glyph name="caronSlovak" format="2">
	<advance width="600"/>
	<outline>
		<contour>
			<point x="252" y="581" type="line"/>
			<point x="295" y="581" type="line"/>
			<point x="346" y="750" type="line"/>
			<point x="285" y="750" type="line"/>
		</contour>
	</outline>
	<anchor name="_caron" x="285" y="750"/>
</glyph>
<glyph name="circumflex.cap" format="2">
	<advance width="600"/>
	<outline>
		<contour>
			<point x="151" y="750" type="line"/>
			<point x="210" y="750" type="line"/>
			<point x="300" y="848" type="line"/>
			<point x="389" y="750" type="line"/>
			<point x="449" y="750" type="line"/>
			<point x="324" y="884" type="line"/>
			<point x="276" y="884" type="line"/>
		</contour>
	</outline>
	<anchor name="_top" x="299" y="684"/>
</glyph>
<glyph name="colon_colon_colon.cLig" format="2">
	<advance width="600"/>
	<outline>
		<contour>
			<point x="-761" y="-12" type="curve" smooth="yes"/>
			<point x="-723" y="-12"/>
			<point x="-702" y="2"/>
			<point x="-702" y="42" type="curve" smooth="yes"/>
			<point x="-702" y="81"/>
			<point x="-723" y="95"/>
			<point x="-761" y="95" type="curve" smooth="yes"/>
			<point x="-799" y="95"/>
			<point x="-820" y="81"/>
			<point x="-820" y="42" type="curve" smooth="yes"/>
			<point x="-820" y="2"/>
			<point x="-799" y="-12"/>
		</contour>
		<contour>
			<point x="-761" y="410" type="curve" smooth="yes"/>
			<point x="-723" y="410"/>
			<point x="-702" y="424"/>
			<point x="-702" y="464" type="curve" smooth="yes"/>
			<point x="-702" y="503"/>
			<point x="-723" y="517"/>
			<point x="-761" y="517" type="curve" smooth="yes"/>
			<point x="-799" y="517"/>
			<point x="-820" y="503"/>
			<point x="-820" y="464" type="curve" smooth="yes"/>
			<point x="-820" y="424"/>
			<point x="-799" y="410"/>
		</contour>
		<contour>
			<point x="-300" y="-12" type="curve" smooth="yes"/>
			<point x="-262" y="-12"/>
			<point x="-241" y="2"/>
			<point x="-241" y="42" type="curve" smooth="yes"/>
			<point x="-241" y="81"/>
			<point x="-262" y="95"/>
			<point x="-300" y="95" type="curve" smooth="yes"/>
			<point x="-338" y="95"/>
			<point x="-359" y="81"/>
			<point x="-359" y="42" type="curve" smooth="yes"/>
			<point x="-359" y="2"/>
			<point x="-338" y="-12"/>
		</contour>
		<contour>
			<point x="-300" y="410" type="curve" smooth="yes"/>
			<point x="-262" y="410"/>
			<point x="-241" y="424"/>
			<point x="-241" y="464" type="curve" smooth="yes"/>
			<point x="-241" y="503"/>
			<point x="-262" y="517"/>
			<point x="-300" y="517" type="curve" smooth="yes"/>
			<point x="-338" y="517"/>
			<point x="-359" y="503"/>
			<point x="-359" y="464" type="curve" smooth="yes"/>
			<point x="-359" y="424"/>
			<point x="-338" y="410"/>
		</contour>
		<contour>
			<point x="161" y="-12" type="curve" smooth="yes"/>
			<point x="199" y="-12"/>
			<point x="220" y="2"/>
			<point x="220" y="42" type="curve" smooth="yes"/>
			<point x="220" y="81"/>
			<point x="199" y="95"/>
			<point x="161" y="95" type="curve" smooth="yes"/>
			<point x="123" y="95"/>
			<point x="102" y="81"/>
			<point x="102" y="42" type="curve" smooth="yes"/>
			<point x="102" y="2"/>
			<point x="123" y="-12"/>
		</contour>
		<contour>
			<point x="161" y="410" type="curve" smooth="yes"/>
			<point x="199" y="410"/>
			<point x="220" y="424"/>
			<point x="220" y="464" type="curve" smooth="yes"/>
			<point x="220" y="503"/>
			<point x="199" y="517"/>
			<point x="161" y="517" type="curve" smooth="yes"/>
			<point x="123" y="517"/>
			<point x="102" y="503"/>
			<point x="102" y="464" type="curve" smooth="yes"/>
			<point x="102" y="424"/>
			<point x="123" y="410"/>
		</contour>
	</outline>
</glyph>
<glyph name="colon_colon_equal.cLig" format="2">
	<advance width="600"/>
	<outline>
		<contour>
			<point x="-891" y="111" type="curve" smooth="yes"/>
			<point x="-853" y="111"/>
			<point x="-832" y="125"/>
			<point x="-832" y="165" type="curve" smooth="yes"/>
			<point x="-832" y="204"/>
			<point x="-853" y="218"/>
			<point x="-891" y="218" type="curve" smooth="yes"/>
			<point x="-929" y="218"/>
			<point x="-950" y="204"/>
			<point x="-950" y="165" type="curve" smooth="yes"/>
			<point x="-950" y="125"/>
			<point x="-929" y="111"/>
		</contour>
		<contour>
			<point x="-891" y="394" type="curve" smooth="yes"/>
			<point x="-853" y="394"/>
			<point x="-832" y="408"/>
			<point x="-832" y="448" type="curve" smooth="yes"/>
			<point x="-832" y="487"/>
			<point x="-853" y="501"/>
			<point x="-891" y="501" type="curve" smooth="yes"/>
			<point x="-929" y="501"/>
			<point x="-950" y="487"/>
			<point x="-950" y="448" type="curve" smooth="yes"/>
			<point x="-950" y="408"/>
			<point x="-929" y="394"/>
		</contour>
		<contour>
			<point x="-537" y="111" type="curve" smooth="yes"/>
			<point x="-499" y="111"/>
			<point x="-478" y="125"/>
			<point x="-478" y="165" type="curve" smooth="yes"/>
			<point x="-478" y="204"/>
			<point x="-499" y="218"/>
			<point x="-537" y="218" type="curve" smooth="yes"/>
			<point x="-575" y="218"/>
			<point x="-596" y="204"/>
			<point x="-596" y="165" type="curve" smooth="yes"/>
			<point x="-596" y="125"/>
			<point x="-575" y="111"/>
		</contour>
		<contour>
			<point x="-537" y="394" type="curve" smooth="yes"/>
			<point x="-499" y="394"/>
			<point x="-478" y="408"/>
			<point x="-478" y="448" type="curve" smooth="yes"/>
			<point x="-478" y="487"/>
			<point x="-499" y="501"/>
			<point x="-537" y="501" type="curve" smooth="yes"/>
			<point x="-575" y="501"/>
			<point x="-596" y="487"/>
			<point x="-596" y="448" type="curve" smooth="yes"/>
			<point x="-596" y="408"/>
			<point x="-575" y="394"/>
		</contour>
		<contour>
			<point x="-215" y="384" type="line"/>
			<point x="335" y="384" type="line"/>
			<point x="335" y="435" type="line"/>
			<point x="-215" y="435" type="line"/>
		</contour>
		<contour>
			<point x="-215" y="177" type="line"/>
			<point x="335" y="177" type="line"/>
			<point x="335" y="228" type="line"/>
			<point x="-215" y="228" type="line"/>
		</contour>
	</outline>
</glyph>
<glyph name="colon_equal.med" format="2">
	<advance width="600"/>
	<outline>
		<contour>
			<point x="300" y="394" type="curve" smooth="yes"/>
			<point x="338" y="394"/>
			<point x="359" y="408"/>
			<point x="359" y="448" type="curve" smooth="yes"/>
			<point x="359" y="487"/>
			<point x="338" y="501"/>
			<point x="300" y="501" type="curve" smooth="yes"/>
			<point x="262" y="501"/>
			<point x="241" y="487"/>
			<point x="241" y="448" type="curve" smooth="yes"/>
			<point x="241" y="408"/>
			<point x="262" y="394"/>
		</contour>
		<contour>
			<point x="490" y="392" type="line"/>
			<point x="600" y="392" type="line"/>
			<point x="600" y="443" type="line"/>
			<point x="490" y="443" type="line"/>
		</contour>
		<contour>
			<point x="0" y="392" type="line"/>
			<point x="110" y="392" type="line"/>
			<point x="110" y="443" type="line"/>
			<point x="0" y="443" type="line"/>
		</contour>
		<contour>
			<point x="490" y="186" type="line"/>
			<point x="600" y="186" type="line"/>
			<point x="600" y="237" type="line"/>
			<point x="490" y="237" type="line"/>
		</contour>
		<contour>
			<point x="0" y="186" type="line"/>
			<point x="110" y="186" type="line"/>
			<point x="110" y="237" type="line"/>
			<point x="0" y="237" type="line"/>
		</contour>
		<contour>
			<point x="300" y="111" type="curve" smooth="yes"/>
			<point x="338" y="111"/>
			<point x="359" y="125"/>
			<point x="359" y="165" type="curve" smooth="yes"/>
			<point x="359" y="204"/>
			<point x="338" y="218"/>
			<point x="300" y="218" type="curve" smooth="yes"/>
			<point x="262" y="218"/>
			<point x="241" y="204"/>
			<point x="241" y="165" type="curve" smooth="yes"/>
			<point x="241" y="125"/>
			<point x="262" y="111"/>
		</contour>
	</outline>
</glyph>
<glyph name="colon_greater.cLig.x" format="2">
	<advance width="600"/>
	<outline>
		<contour>
			<point x="-20" y="-3" type="line"/>
			<point x="420" y="284" type="line"/>
			<point x="420" y="343" type="line"/>
			<point x="-20" y="631" type="line"/>
			<point x="-20" y="568" type="line"/>
			<point x="374" y="313" type="line"/>
			<point x="-20" y="58" type="line"/>
		</contour>
		<contour>
			<point x="-301" y="472" type="curve" smooth="yes"/>
			<point x="-263" y="472"/>
			<point x="-242" y="486"/>
			<point x="-242" y="526" type="curve" smooth="yes"/>
			<point x="-242" y="565"/>
			<point x="-263" y="579"/>
			<point x="-301" y="579" type="curve" smooth="yes"/>
			<point x="-339" y="579"/>
			<point x="-360" y="565"/>
			<point x="-360" y="526" type="curve" smooth="yes"/>
			<point x="-360" y="486"/>
			<point x="-339" y="472"/>
		</contour>
		<contour>
			<point x="-301" y="50" type="curve" smooth="yes"/>
			<point x="-263" y="50"/>
			<point x="-242" y="64"/>
			<point x="-242" y="104" type="curve" smooth="yes"/>
			<point x="-242" y="143"/>
			<point x="-263" y="157"/>
			<point x="-301" y="157" type="curve" smooth="yes"/>
			<point x="-339" y="157"/>
			<point x="-360" y="143"/>
			<point x="-360" y="104" type="curve" smooth="yes"/>
			<point x="-360" y="64"/>
			<point x="-339" y="50"/>
		</contour>
	</outline>
</glyph>
<glyph name="colon_less.cLig.x" format="2">
	<advance width="600"/>
	<outline>
		<contour>
			<point x="420" y="-3" type="line"/>
			<point x="420" y="59" type="line"/>
			<point x="26" y="314" type="line"/>
			<point x="420" y="569" type="line"/>
			<point x="420" y="631" type="line"/>
			<point x="-20" y="343" type="line"/>
			<point x="-20" y="284" type="line"/>
		</contour>
		<contour>
			<point x="-301" y="472" type="curve" smooth="yes"/>
			<point x="-263" y="472"/>
			<point x="-242" y="486"/>
			<point x="-242" y="526" type="curve" smooth="yes"/>
			<point x="-242" y="565"/>
			<point x="-263" y="579"/>
			<point x="-301" y="579" type="curve" smooth="yes"/>
			<point x="-339" y="579"/>
			<point x="-360" y="565"/>
			<point x="-360" y="526" type="curve" smooth="yes"/>
			<point x="-360" y="486"/>
			<point x="-339" y="472"/>
		</contour>
		<contour>
			<point x="-301" y="50" type="curve" smooth="yes"/>
			<point x="-263" y="50"/>
			<point x="-242" y="64"/>
			<point x="-242" y="104" type="curve" smooth="yes"/>
			<point x="-242" y="143"/>
			<point x="-263" y="157"/>
			<point x="-301" y="157" type="curve" smooth="yes"/>
			<point x="-339" y="157"/>
			<point x="-360" y="143"/>
			<point x="-360" y="104" type="curve" smooth="yes"/>
			<point x="-360" y="64"/>
			<point x="-339" y="50"/>
		</contour>
	</outline>
</glyph>
<glyph name="dollar_greater.cLig" format="2">
	<advance width="600"/>
	<outline>
		<contour>
			<point x="-356" y="-93" type="line"/>
			<point x="-307" y="-93" type="line"/>
			<point x="-295" y="-9" type="line"/>
			<point x="-278" y="-11"/>
			<point x="-261" y="-12"/>
			<point x="-243" y="-12" type="curve" smooth="yes"/>
			<point x="-118" y="-12"/>
			<point x="-23" y="62"/>
			<point x="-23" y="190" type="curve" smooth="yes"/>
			<point x="-23" y="331"/>
			<point x="-131" y="348"/>
			<point x="-239" y="364" type="curve"/>
			<point x="-195" y="642" type="line"/>
			<point x="-96" y="624"/>
			<point x="6" y="570"/>
			<point x="105" y="513" type="curve" smooth="yes"/>
			<point x="451" y="314" type="line"/>
			<point x="89" y="113" type="line"/>
			<point x="89" y="55" type="line"/>
			<point x="500" y="284" type="line"/>
			<point x="500" y="343" type="line"/>
			<point x="130" y="558" type="line" smooth="yes"/>
			<point x="24" y="620"/>
			<point x="-78" y="674"/>
			<point x="-188" y="691" type="curve"/>
			<point x="-175" y="774" type="line"/>
			<point x="-224" y="774" type="line"/>
			<point x="-236" y="695" type="line"/>
			<point x="-243" y="696"/>
			<point x="-250" y="696"/>
			<point x="-258" y="696" type="curve" smooth="yes"/>
			<point x="-394" y="696"/>
			<point x="-500" y="625"/>
			<point x="-500" y="496" type="curve" smooth="yes"/>
			<point x="-500" y="359"/>
			<point x="-398" y="333"/>
			<point x="-294" y="317" type="curve"/>
			<point x="-335" y="47" type="line"/>
			<point x="-399" y="62"/>
			<point x="-451" y="94"/>
			<point x="-493" y="137" type="curve"/>
			<point x="-493" y="75" type="line"/>
			<point x="-453" y="40"/>
			<point x="-406" y="12"/>
			<point x="-342" y="-2" type="curve"/>
		</contour>
		<contour>
			<point x="-444" y="498" type="curve" smooth="yes"/>
			<point x="-444" y="596"/>
			<point x="-366" y="648"/>
			<point x="-261" y="648" type="curve" smooth="yes"/>
			<point x="-243" y="648" type="line"/>
			<point x="-285" y="371" type="line"/>
			<point x="-376" y="385"/>
			<point x="-444" y="405"/>
		</contour>
		<contour>
			<point x="-81" y="189" type="curve" smooth="yes"/>
			<point x="-81" y="84"/>
			<point x="-148" y="37"/>
			<point x="-244" y="37" type="curve" smooth="yes"/>
			<point x="-259" y="37"/>
			<point x="-273" y="38"/>
			<point x="-287" y="39" type="curve"/>
			<point x="-247" y="310" type="line"/>
			<point x="-152" y="297"/>
			<point x="-81" y="285"/>
		</contour>
	</outline>
</glyph>
<glyph name="dotaccent.cap" format="2">
	<advance width="600"/>
	<outline>
		<contour>
			<point x="300" y="770" type="curve" smooth="yes"/>
			<point x="336" y="770"/>
			<point x="348" y="786"/>
			<point x="348" y="814" type="curve" smooth="yes"/>
			<point x="348" y="842"/>
			<point x="336" y="858"/>
			<point x="300" y="858" type="curve" smooth="yes"/>
			<point x="264" y="858"/>
			<point x="252" y="842"/>
			<point x="252" y="814" type="curve" smooth="yes"/>
			<point x="252" y="786"/>
			<point x="264" y="770"/>
		</contour>
	</outline>
	<anchor name="_top" x="300" y="684"/>
</glyph>
<glyph name="dotbelow" format="2">
	<advance width="600"/>
	<outline>
		<contour>
			<point x="300" y="-123" type="curve" smooth="yes"/>
			<point x="336" y="-123"/>
			<point x="348" y="-107"/>
			<point x="348" y="-79" type="curve" smooth="yes"/>
			<point x="348" y="-51"/>
			<point x="336" y="-35"/>
			<point x="300" y="-35" type="curve" smooth="yes"/>
			<point x="264" y="-35"/>
			<point x="252" y="-51"/>
			<point x="252" y="-79" type="curve" smooth="yes"/>
			<point x="252" y="-107"/>
			<point x="264" y="-123"/>
		</contour>
	</outline>
	<anchor name="bottom" x="300" y="0"/>
</glyph>
<glyph name="equal.den" format="2">
	<advance width="600"/>
	<outline>
		<contour>
			<point x="152" y="270" type="line"/>
			<point x="152" y="232" type="line"/>
			<point x="448" y="232" type="line"/>
			<point x="448" y="270" type="line"/>
		</contour>
		<contour>
			<point x="152" y="143" type="line"/>
			<point x="152" y="105" type="line"/>
			<point x="448" y="105" type="line"/>
			<point x="448" y="143" type="line"/>
		</contour>
	</outline>
</glyph>
<glyph name="equal.med" format="2">
	<advance width="600"/>
	<outline>
		<contour>
			<point x="0" y="392" type="line"/>
			<point x="600" y="392" type="line"/>
			<point x="600" y="443" type="line"/>
			<point x="0" y="443" type="line"/>
		</contour>
		<contour>
			<point x="0" y="186" type="line"/>
			<point x="600" y="186" type="line"/>
			<point x="600" y="237" type="line"/>
			<point x="0" y="237" type="line"/>
		</contour>
	</outline>
</glyph>
<glyph name="equal_bar.rem" format="2">
	<advance width="600"/>
	<outline>
		<contour>
			<point x="340" y="-55" type="line"/>
			<point x="340" y="684" type="line"/>
			<point x="288" y="684" type="line"/>
			<point x="288" y="443" type="line"/>
			<point x="-420" y="443" type="line"/>
			<point x="-420" y="392" type="line"/>
			<point x="288" y="392" type="line"/>
			<point x="288" y="237" type="line"/>
			<point x="-420" y="237" type="line"/>
			<point x="-420" y="186" type="line"/>
			<point x="288" y="186" type="line"/>
			<point x="288" y="-55" type="line"/>
		</contour>
	</outline>
</glyph>
<glyph name="equal_colon_equal.rem" format="2">
	<advance width="600"/>
	<outline>
		<contour>
			<point x="-300" y="111" type="curve" smooth="yes"/>
			<point x="-262" y="111"/>
			<point x="-241" y="125"/>
			<point x="-241" y="165" type="curve" smooth="yes"/>
			<point x="-241" y="204"/>
			<point x="-262" y="218"/>
			<point x="-300" y="218" type="curve" smooth="yes"/>
			<point x="-338" y="218"/>
			<point x="-359" y="204"/>
			<point x="-359" y="165" type="curve" smooth="yes"/>
			<point x="-359" y="125"/>
			<point x="-338" y="111"/>
		</contour>
		<contour>
			<point x="-300" y="394" type="curve" smooth="yes"/>
			<point x="-262" y="394"/>
			<point x="-241" y="408"/>
			<point x="-241" y="448" type="curve" smooth="yes"/>
			<point x="-241" y="487"/>
			<point x="-262" y="501"/>
			<point x="-300" y="501" type="curve" smooth="yes"/>
			<point x="-338" y="501"/>
			<point x="-359" y="487"/>
			<point x="-359" y="448" type="curve" smooth="yes"/>
			<point x="-359" y="408"/>
			<point x="-338" y="394"/>
		</contour>
		<contour>
			<point x="-1020" y="384" type="line"/>
			<point x="-536" y="384" type="line"/>
			<point x="-536" y="435" type="line"/>
			<point x="-1020" y="435" type="line"/>
		</contour>
		<contour>
			<point x="-1020" y="177" type="line"/>
			<point x="-536" y="177" type="line"/>
			<point x="-536" y="228" type="line"/>
			<point x="-1020" y="228" type="line"/>
		</contour>
		<contour>
			<point x="-64" y="384" type="line"/>
			<point x="420" y="384" type="line"/>
			<point x="420" y="435" type="line"/>
			<point x="-64" y="435" type="line"/>
		</contour>
		<contour>
			<point x="-64" y="177" type="line"/>
			<point x="420" y="177" type="line"/>
			<point x="420" y="228" type="line"/>
			<point x="-64" y="228" type="line"/>
		</contour>
	</outline>
</glyph>
<glyph name="equal_greater_greater.rem" format="2">
	<advance width="600"/>
	<outline>
		<contour>
			<point x="98" y="0" type="line"/>
			<point x="168" y="0" type="line"/>
			<point x="455" y="314" type="line"/>
			<point x="166" y="629" type="line"/>
			<point x="95" y="629" type="line"/>
			<point x="386" y="314" type="line"/>
		</contour>
		<contour>
			<point x="-1020" y="186" type="line"/>
			<point x="-98" y="186" type="line"/>
			<point x="-268" y="0" type="line"/>
			<point x="-199" y="0" type="line"/>
			<point x="85" y="313" type="line"/>
			<point x="-202" y="629" type="line"/>
			<point x="-271" y="629" type="line"/>
			<point x="-101" y="443" type="line"/>
			<point x="-1020" y="443" type="line"/>
			<point x="-1020" y="392" type="line"/>
			<point x="-54" y="392" type="line"/>
			<point x="18" y="313" type="line"/>
			<point x="-52" y="237" type="line"/>
			<point x="-1020" y="237" type="line"/>
		</contour>
	</outline>
</glyph>
<glyph name="exclam_equal.cLig" format="2">
	<advance width="600"/>
	<outline>
		<contour>
			<point x="-420" y="177" type="line"/>
			<point x="-100" y="177" type="line"/>
			<point x="-257" y="-72" type="line"/>
			<point x="-199" y="-72" type="line"/>
			<point x="-42" y="177" type="line"/>
			<point x="420" y="177" type="line"/>
			<point x="420" y="228" type="line"/>
			<point x="-10" y="228" type="line"/>
			<point x="88" y="384" type="line"/>
			<point x="420" y="384" type="line"/>
			<point x="420" y="435" type="line"/>
			<point x="120" y="435" type="line"/>
			<point x="257" y="652" type="line"/>
			<point x="199" y="652" type="line"/>
			<point x="62" y="435" type="line"/>
			<point x="-420" y="435" type="line"/>
			<point x="-420" y="384" type="line"/>
			<point x="30" y="384" type="line"/>
			<point x="-68" y="228" type="line"/>
			<point x="-420" y="228" type="line"/>
		</contour>
	</outline>
</glyph>
<glyph name="exclam_equal_equal.cLig" format="2">
	<advance width="600"/>
	<outline>
		<contour>
			<point x="-1050" y="88" type="line"/>
			<point x="-459" y="88" type="line"/>
			<point x="-556" y="-72" type="line"/>
			<point x="-499" y="-72" type="line"/>
			<point x="-402" y="88" type="line"/>
			<point x="450" y="88" type="line"/>
			<point x="450" y="139" type="line"/>
			<point x="-372" y="139" type="line"/>
			<point x="-282" y="288" type="line"/>
			<point x="450" y="288" type="line"/>
			<point x="450" y="339" type="line"/>
			<point x="-251" y="339" type="line"/>
			<point x="-161" y="488" type="line"/>
			<point x="450" y="488" type="line"/>
			<point x="450" y="539" type="line"/>
			<point x="-130" y="539" type="line"/>
			<point x="-44" y="682" type="line"/>
			<point x="-101" y="682" type="line"/>
			<point x="-187" y="539" type="line"/>
			<point x="-1050" y="539" type="line"/>
			<point x="-1050" y="488" type="line"/>
			<point x="-218" y="488" type="line"/>
			<point x="-308" y="339" type="line"/>
			<point x="-1050" y="339" type="line"/>
			<point x="-1050" y="288" type="line"/>
			<point x="-339" y="288" type="line"/>
			<point x="-429" y="139" type="line"/>
			<point x="-1050" y="139" type="line"/>
		</contour>
	</outline>
</glyph>
<glyph name="exclam_exclam_period.cLig" format="2">
	<advance width="600"/>
	<outline>
		<contour>
			<point x="-812" y="182" type="line"/>
			<point x="-772" y="182" type="line"/>
			<point x="-761" y="529" type="line"/>
			<point x="-761" y="684" type="line"/>
			<point x="-823" y="684" type="line"/>
			<point x="-823" y="530" type="line"/>
		</contour>
		<contour>
			<point x="-792" y="-12" type="curve" smooth="yes"/>
			<point x="-757" y="-12"/>
			<point x="-739" y="2"/>
			<point x="-739" y="36" type="curve" smooth="yes"/>
			<point x="-739" y="70"/>
			<point x="-757" y="84"/>
			<point x="-792" y="84" type="curve" smooth="yes"/>
			<point x="-827" y="84"/>
			<point x="-845" y="70"/>
			<point x="-845" y="36" type="curve" smooth="yes"/>
			<point x="-845" y="2"/>
			<point x="-827" y="-12"/>
		</contour>
		<contour>
			<point x="-319" y="182" type="line"/>
			<point x="-279" y="182" type="line"/>
			<point x="-268" y="529" type="line"/>
			<point x="-268" y="684" type="line"/>
			<point x="-330" y="684" type="line"/>
			<point x="-330" y="530" type="line"/>
		</contour>
		<contour>
			<point x="-299" y="-12" type="curve" smooth="yes"/>
			<point x="-264" y="-12"/>
			<point x="-246" y="2"/>
			<point x="-246" y="36" type="curve" smooth="yes"/>
			<point x="-246" y="70"/>
			<point x="-264" y="84"/>
			<point x="-299" y="84" type="curve" smooth="yes"/>
			<point x="-334" y="84"/>
			<point x="-352" y="70"/>
			<point x="-352" y="36" type="curve" smooth="yes"/>
			<point x="-352" y="2"/>
			<point x="-334" y="-12"/>
		</contour>
		<contour>
			<point x="196" y="-12" type="curve" smooth="yes"/>
			<point x="234" y="-12"/>
			<point x="255" y="2"/>
			<point x="255" y="42" type="curve" smooth="yes"/>
			<point x="255" y="81"/>
			<point x="234" y="95"/>
			<point x="196" y="95" type="curve" smooth="yes"/>
			<point x="158" y="95"/>
			<point x="137" y="81"/>
			<point x="137" y="42" type="curve" smooth="yes"/>
			<point x="137" y="2"/>
			<point x="158" y="-12"/>
		</contour>
	</outline>
</glyph>
<glyph name="four.den" format="2">
	<advance width="600"/>
	<outline>
		<contour>
			<point x="359" y="0" type="line"/>
			<point x="403" y="0" type="line"/>
			<point x="403" y="88" type="line"/>
			<point x="455" y="88" type="line"/>
			<point x="455" y="127" type="line"/>
			<point x="403" y="127" type="line"/>
			<point x="403" y="412" type="line"/>
			<point x="344" y="412" type="line"/>
			<point x="141" y="127" type="line"/>
			<point x="141" y="88" type="line"/>
			<point x="359" y="88" type="line"/>
		</contour>
		<contour>
			<point x="189" y="127" type="line"/>
			<point x="359" y="369" type="line"/>
			<point x="359" y="127" type="line"/>
		</contour>
	</outline>
</glyph>
<glyph name="four.numr" format="2">
	<advance width="600"/>
	<outline>
		<contour>
			<point x="349" y="372" type="line"/>
			<point x="389" y="372" type="line"/>
			<point x="389" y="445" type="line"/>
			<point x="431" y="445" type="line"/>
			<point x="431" y="479" type="line"/>
			<point x="389" y="479" type="line"/>
			<point x="389" y="719" type="line"/>
			<point x="335" y="719" type="line"/>
			<point x="166" y="480" type="line"/>
			<point x="166" y="445" type="line"/>
			<point x="349" y="445" type="line"/>
		</contour>
		<contour>
			<point x="207" y="479" type="line"/>
			<point x="349" y="683" type="line"/>
			<point x="349" y="479" type="line"/>
		</contour>
	</outline>
</glyph>
<glyph name="grave.cap" format="2">
	<advance width="600"/>
	<outline>
		<contour>
			<point x="367" y="750" type="line"/>
			<point x="297" y="884" type="line"/>
			<point x="232" y="884" type="line"/>
			<point x="317" y="750" type="line"/>
		</contour>
	</outline>
	<anchor name="_top" x="342" y="684"/>
</glyph>
<glyph name="greater_colon.cLig.x" format="2">
	<advance width="600"/>
	<outline>
		<contour>
			<point x="-420" y="-3" type="line"/>
			<point x="20" y="284" type="line"/>
			<point x="20" y="343" type="line"/>
			<point x="-420" y="631" type="line"/>
			<point x="-420" y="568" type="line"/>
			<point x="-25" y="313" type="line"/>
			<point x="-420" y="58" type="line"/>
		</contour>
		<contour>
			<point x="311" y="472" type="curve" smooth="yes"/>
			<point x="349" y="472"/>
			<point x="370" y="486"/>
			<point x="370" y="526" type="curve" smooth="yes"/>
			<point x="370" y="565"/>
			<point x="349" y="579"/>
			<point x="311" y="579" type="curve" smooth="yes"/>
			<point x="273" y="579"/>
			<point x="252" y="565"/>
			<point x="252" y="526" type="curve" smooth="yes"/>
			<point x="252" y="486"/>
			<point x="273" y="472"/>
		</contour>
		<contour>
			<point x="311" y="50" type="curve" smooth="yes"/>
			<point x="349" y="50"/>
			<point x="370" y="64"/>
			<point x="370" y="104" type="curve" smooth="yes"/>
			<point x="370" y="143"/>
			<point x="349" y="157"/>
			<point x="311" y="157" type="curve" smooth="yes"/>
			<point x="273" y="157"/>
			<point x="252" y="143"/>
			<point x="252" y="104" type="curve" smooth="yes"/>
			<point x="252" y="64"/>
			<point x="273" y="50"/>
		</contour>
	</outline>
</glyph>
<glyph name="greater_equal.cLig" format="2">
	<advance width="600"/>
	<outline>
		<contour>
			<point x="-290" y="191" type="line"/>
			<point x="310" y="436" type="line"/>
			<point x="310" y="495" type="line"/>
			<point x="-290" y="740" type="line"/>
			<point x="-290" y="683" type="line"/>
			<point x="256" y="465" type="line"/>
			<point x="-290" y="249" type="line"/>
		</contour>
		<contour>
			<point x="-290" y="-56" type="line"/>
			<point x="310" y="189" type="line"/>
			<point x="310" y="244" type="line"/>
			<point x="-290" y="-1" type="line"/>
		</contour>
	</outline>
	<guideline x="-290" y="740" angle="90" identifier="jsclx2XHjC"/>
</glyph>
<glyph name="greater_equal.fina" format="2">
	<advance width="600"/>
	<outline>
		<contour>
			<point x="157" y="0" type="line"/>
			<point x="226" y="0" type="line"/>
			<point x="510" y="313" type="line"/>
			<point x="223" y="629" type="line"/>
			<point x="154" y="629" type="line"/>
			<point x="324" y="443" type="line"/>
			<point x="0" y="443" type="line"/>
			<point x="0" y="392" type="line"/>
			<point x="371" y="392" type="line"/>
			<point x="443" y="313" type="line"/>
			<point x="373" y="237" type="line"/>
			<point x="0" y="237" type="line"/>
			<point x="0" y="186" type="line"/>
			<point x="327" y="186" type="line"/>
		</contour>
	</outline>
</glyph>
<glyph name="greater_equal.med" format="2">
	<advance width="600"/>
	<outline>
		<contour>
			<point x="154" y="0" type="line"/>
			<point x="223" y="0" type="line"/>
			<point x="394" y="186" type="line"/>
			<point x="600" y="186" type="line"/>
			<point x="600" y="237" type="line"/>
			<point x="440" y="237" type="line"/>
			<point x="511" y="314" type="line"/>
			<point x="439" y="392" type="line"/>
			<point x="600" y="392" type="line"/>
			<point x="600" y="443" type="line"/>
			<point x="392" y="443" type="line"/>
			<point x="220" y="629" type="line"/>
			<point x="151" y="629" type="line"/>
			<point x="323" y="443" type="line"/>
			<point x="0" y="443" type="line"/>
			<point x="0" y="392" type="line"/>
			<point x="370" y="392" type="line"/>
			<point x="442" y="314" type="line"/>
			<point x="371" y="237" type="line"/>
			<point x="0" y="237" type="line"/>
			<point x="0" y="186" type="line"/>
			<point x="325" y="186" type="line"/>
		</contour>
	</outline>
</glyph>
<glyph name="greater_greater_greater.cLig" format="2">
	<advance width="600"/>
	<outline>
		<contour>
			<point x="-1100" y="59" type="line"/>
			<point x="-660" y="284" type="line"/>
			<point x="-660" y="343" type="line"/>
			<point x="-1100" y="568" type="line"/>
			<point x="-1100" y="509" type="line"/>
			<point x="-711" y="313" type="line"/>
			<point x="-1100" y="119" type="line"/>
		</contour>
		<contour>
			<point x="-515" y="59" type="line"/>
			<point x="-75" y="284" type="line"/>
			<point x="-75" y="343" type="line"/>
			<point x="-515" y="568" type="line"/>
			<point x="-515" y="509" type="line"/>
			<point x="-126" y="313" type="line"/>
			<point x="-515" y="119" type="line"/>
		</contour>
		<contour>
			<point x="70" y="59" type="line"/>
			<point x="510" y="284" type="line"/>
			<point x="510" y="343" type="line"/>
			<point x="70" y="568" type="line"/>
			<point x="70" y="509" type="line"/>
			<point x="459" y="313" type="line"/>
			<point x="70" y="119" type="line"/>
		</contour>
	</outline>
</glyph>
<glyph name="greater_greater_hyphen.fina" format="2">
	<advance width="600"/>
	<outline>
		<contour>
			<point x="113" y="0" type="line"/>
			<point x="183" y="0" type="line"/>
			<point x="471" y="314" type="line"/>
			<point x="180" y="629" type="line"/>
			<point x="110" y="629" type="line"/>
			<point x="400" y="314" type="line"/>
		</contour>
		<contour>
			<point x="-600" y="289" type="line"/>
			<point x="9" y="289" type="line"/>
			<point x="-255" y="0" type="line"/>
			<point x="-185" y="0" type="line"/>
			<point x="99" y="314" type="line"/>
			<point x="-188" y="629" type="line"/>
			<point x="-259" y="629" type="line"/>
			<point x="8" y="340" type="line"/>
			<point x="-600" y="340" type="line"/>
		</contour>
	</outline>
</glyph>
<glyph name="greater_greater_hyphen.init" format="2">
	<advance width="600"/>
	<outline>
		<contour>
			<point x="-509" y="0" type="line"/>
			<point x="-438" y="0" type="line"/>
			<point x="-154" y="314" type="line"/>
			<point x="-441" y="629" type="line"/>
			<point x="-512" y="629" type="line"/>
			<point x="-221" y="314" type="line"/>
		</contour>
		<contour>
			<point x="-136" y="0" type="line"/>
			<point x="-66" y="0" type="line"/>
			<point x="194" y="289" type="line"/>
			<point x="600" y="289" type="line"/>
			<point x="600" y="340" type="line"/>
			<point x="192" y="340" type="line"/>
			<point x="-69" y="629" type="line"/>
			<point x="-139" y="629" type="line"/>
			<point x="148" y="313" type="line"/>
		</contour>
	</outline>
</glyph>
<glyph name="greater_greater_hyphen.med" format="2">
	<advance width="600"/>
	<outline>
		<contour>
			<point x="-75" y="0" type="line"/>
			<point x="-4" y="0" type="line"/>
			<point x="260" y="289" type="line"/>
			<point x="600" y="289" type="line"/>
			<point x="600" y="340" type="line"/>
			<point x="259" y="340" type="line"/>
			<point x="-7" y="629" type="line"/>
			<point x="-78" y="629" type="line"/>
			<point x="214" y="314" type="line"/>
		</contour>
		<contour>
			<point x="-448" y="629" type="line"/>
			<point x="-181" y="340" type="line"/>
			<point x="-600" y="340" type="line"/>
			<point x="-600" y="289" type="line"/>
			<point x="-180" y="289" type="line"/>
			<point x="-444" y="0" type="line"/>
			<point x="-374" y="0" type="line"/>
			<point x="-90" y="314" type="line"/>
			<point x="-377" y="629" type="line"/>
		</contour>
	</outline>
</glyph>
<glyph name="greater_greater_hyphen.rem" format="2">
	<advance width="600"/>
	<outline>
		<contour>
			<point x="-1049" y="0" type="line"/>
			<point x="-978" y="0" type="line"/>
			<point x="-694" y="314" type="line"/>
			<point x="-981" y="629" type="line"/>
			<point x="-1052" y="629" type="line"/>
			<point x="-761" y="314" type="line"/>
		</contour>
		<contour>
			<point x="-676" y="0" type="line"/>
			<point x="-606" y="0" type="line"/>
			<point x="-346" y="289" type="line"/>
			<point x="480" y="289" type="line"/>
			<point x="480" y="340" type="line"/>
			<point x="-348" y="340" type="line"/>
			<point x="-609" y="629" type="line"/>
			<point x="-679" y="629" type="line"/>
			<point x="-392" y="313" type="line"/>
		</contour>
	</outline>
</glyph>
<glyph name="greater_hyphen.med" format="2">
	<advance width="600"/>
	<outline>
		<contour>
			<point x="160" y="0" type="line"/>
			<point x="226" y="0" type="line"/>
			<point x="487" y="288" type="line"/>
			<point x="600" y="288" type="line"/>
			<point x="600" y="339" type="line"/>
			<point x="486" y="339" type="line"/>
			<point x="223" y="629" type="line"/>
			<point x="157" y="629" type="line"/>
			<point x="421" y="339" type="line"/>
			<point x="0" y="339" type="line"/>
			<point x="0" y="288" type="line"/>
			<point x="421" y="288" type="line"/>
		</contour>
	</outline>
</glyph>
<glyph name="greater_hyphen_greater.rem" format="2">
	<advance width="600"/>
	<outline>
		<contour>
			<point x="-1049" y="0" type="line"/>
			<point x="-979" y="0" type="line"/>
			<point x="-719" y="289" type="line"/>
			<point x="370" y="289" type="line"/>
			<point x="106" y="0" type="line"/>
			<point x="176" y="0" type="line"/>
			<point x="460" y="314" type="line"/>
			<point x="173" y="629" type="line"/>
			<point x="102" y="629" type="line"/>
			<point x="369" y="340" type="line"/>
			<point x="-721" y="340" type="line"/>
			<point x="-982" y="629" type="line"/>
			<point x="-1052" y="629" type="line"/>
			<point x="-765" y="313" type="line"/>
		</contour>
	</outline>
</glyph>
<glyph name="hungarumlaut.cap" format="2">
	<advance width="600"/>
	<outline>
		<contour>
			<point x="297" y="750" type="line"/>
			<point x="342" y="750" type="line"/>
			<point x="426" y="884" type="line"/>
			<point x="365" y="884" type="line"/>
		</contour>
		<contour>
			<point x="174" y="750" type="line"/>
			<point x="220" y="750" type="line"/>
			<point x="303" y="884" type="line"/>
			<point x="241" y="884" type="line"/>
		</contour>
	</outline>
	<anchor name="_top" x="258" y="684"/>
</glyph>
<glyph name="hyphen_asciitilde.cLig" format="2">
	<advance width="600"/>
	<outline>
		<contour>
			<point x="-380" y="288" type="line"/>
			<point x="-22" y="288" type="line"/>
			<point x="-15" y="337"/>
			<point x="10" y="362"/>
			<point x="42" y="362" type="curve" smooth="yes"/>
			<point x="120" y="362"/>
			<point x="132" y="224"/>
			<point x="243" y="224" type="curve" smooth="yes"/>
			<point x="308" y="224"/>
			<point x="360" y="263"/>
			<point x="360" y="391" type="curve"/>
			<point x="307" y="391" type="line"/>
			<point x="307" y="308"/>
			<point x="288" y="274"/>
			<point x="245" y="274" type="curve"/>
			<point x="165" y="274"/>
			<point x="152" y="413"/>
			<point x="46" y="413" type="curve" smooth="yes"/>
			<point x="-6" y="413"/>
			<point x="-41" y="385"/>
			<point x="-59" y="339" type="curve"/>
			<point x="-380" y="339" type="line"/>
		</contour>
	</outline>
	<guideline x="-381" y="314" angle="0" identifier="mmhcuJk8Vk"/>
</glyph>
<glyph name="hyphen_bar.rem" format="2">
	<advance width="600"/>
	<outline>
		<contour>
			<point x="288" y="684" type="line"/>
			<point x="288" y="339" type="line"/>
			<point x="-420" y="339" type="line"/>
			<point x="-420" y="288" type="line"/>
			<point x="288" y="288" type="line"/>
			<point x="288" y="-57" type="line"/>
			<point x="340" y="-57" type="line"/>
			<point x="340" y="684" type="line"/>
		</contour>
	</outline>
</glyph>
<glyph name="hyphen_bar_bar.rem" format="2">
	<advance width="600"/>
	<outline>
		<contour>
			<point x="340" y="683" type="line"/>
			<point x="288" y="683" type="line"/>
			<point x="288" y="-56" type="line"/>
			<point x="340" y="-56" type="line"/>
		</contour>
		<contour>
			<point x="-44" y="683" type="line"/>
			<point x="-96" y="683" type="line"/>
			<point x="-96" y="340" type="line"/>
			<point x="-1020" y="340" type="line"/>
			<point x="-1020" y="289" type="line"/>
			<point x="-96" y="289" type="line"/>
			<point x="-96" y="-56" type="line"/>
			<point x="-44" y="-56" type="line"/>
		</contour>
	</outline>
</glyph>
<glyph name="hyphen_greater.rem" format="2">
	<advance width="600"/>
	<outline>
		<contour>
			<point x="-420" y="289" type="line"/>
			<point x="330" y="289" type="line"/>
			<point x="66" y="0" type="line"/>
			<point x="136" y="0" type="line"/>
			<point x="420" y="314" type="line"/>
			<point x="133" y="629" type="line"/>
			<point x="62" y="629" type="line"/>
			<point x="329" y="340" type="line"/>
			<point x="-420" y="340" type="line"/>
		</contour>
	</outline>
</glyph>
<glyph name="less_asciitilde.cLig" format="2">
	<advance width="600"/>
	<outline>
		<contour>
			<point x="-142" y="-2" type="line"/>
			<point x="-409" y="287" type="line"/>
			<point x="103" y="287" type="line"/>
			<point x="110" y="336"/>
			<point x="135" y="361"/>
			<point x="167" y="361" type="curve" smooth="yes"/>
			<point x="245" y="361"/>
			<point x="257" y="223"/>
			<point x="368" y="223" type="curve" smooth="yes"/>
			<point x="433" y="223"/>
			<point x="485" y="262"/>
			<point x="485" y="390" type="curve"/>
			<point x="432" y="390" type="line"/>
			<point x="432" y="307"/>
			<point x="413" y="273"/>
			<point x="370" y="273" type="curve"/>
			<point x="290" y="273"/>
			<point x="277" y="412"/>
			<point x="171" y="412" type="curve" smooth="yes"/>
			<point x="119" y="412"/>
			<point x="84" y="384"/>
			<point x="66" y="338" type="curve"/>
			<point x="-410" y="338" type="line"/>
			<point x="-146" y="627" type="line"/>
			<point x="-216" y="627" type="line"/>
			<point x="-500" y="313" type="line"/>
			<point x="-213" y="-2" type="line"/>
		</contour>
	</outline>
</glyph>
<glyph name="less_asciitilde_greater.cLig" format="2">
	<advance width="600"/>
	<outline>
		<contour>
			<point x="-823" y="0" type="line"/>
			<point x="-754" y="0" type="line"/>
			<point x="-1022" y="289" type="line"/>
			<point x="-513" y="289" type="line"/>
			<point x="-509" y="343"/>
			<point x="-483" y="382"/>
			<point x="-437" y="382" type="curve" smooth="yes"/>
			<point x="-336" y="382"/>
			<point x="-301" y="197"/>
			<point x="-166" y="197" type="curve" smooth="yes"/>
			<point x="-105" y="197"/>
			<point x="-62" y="235"/>
			<point x="-44" y="289" type="curve"/>
			<point x="422" y="289" type="line"/>
			<point x="157" y="0" type="line"/>
			<point x="226" y="0" type="line"/>
			<point x="510" y="314" type="line"/>
			<point x="223" y="629" type="line"/>
			<point x="153" y="629" type="line"/>
			<point x="422" y="340" type="line"/>
			<point x="-87" y="340" type="line"/>
			<point x="-91" y="287"/>
			<point x="-117" y="248"/>
			<point x="-163" y="248" type="curve" smooth="yes"/>
			<point x="-264" y="248"/>
			<point x="-303" y="433"/>
			<point x="-433" y="433" type="curve" smooth="yes"/>
			<point x="-495" y="433"/>
			<point x="-538" y="395"/>
			<point x="-556" y="340" type="curve"/>
			<point x="-1022" y="340" type="line"/>
			<point x="-757" y="629" type="line"/>
			<point x="-826" y="629" type="line"/>
			<point x="-1110" y="315" type="line"/>
		</contour>
	</outline>
</glyph>
<glyph name="less_asterisk_greater.cLig" format="2">
	<advance width="600"/>
	<outline>
		<contour>
			<point x="40" y="-3" type="line"/>
			<point x="480" y="284" type="line"/>
			<point x="480" y="343" type="line"/>
			<point x="40" y="631" type="line"/>
			<point x="40" y="568" type="line"/>
			<point x="434" y="314" type="line"/>
			<point x="40" y="59" type="line"/>
		</contour>
		<contour>
			<point x="-640" y="-3" type="line"/>
			<point x="-640" y="59" type="line"/>
			<point x="-1034" y="314" type="line"/>
			<point x="-640" y="568" type="line"/>
			<point x="-640" y="631" type="line"/>
			<point x="-1080" y="343" type="line"/>
			<point x="-1080" y="284" type="line"/>
		</contour>
		<contour>
			<point x="-111" y="168" type="line"/>
			<point x="-79" y="224" type="line"/>
			<point x="-260" y="313" type="line"/>
			<point x="-79" y="403" type="line"/>
			<point x="-111" y="459" type="line"/>
			<point x="-279" y="347" type="line"/>
			<point x="-267" y="548" type="line"/>
			<point x="-331" y="548" type="line"/>
			<point x="-318" y="346" type="line"/>
			<point x="-488" y="458" type="line"/>
			<point x="-520" y="403" type="line"/>
			<point x="-338" y="313" type="line"/>
			<point x="-519" y="223" type="line"/>
			<point x="-487" y="167" type="line"/>
			<point x="-318" y="279" type="line"/>
			<point x="-330" y="77" type="line"/>
			<point x="-266" y="77" type="line"/>
			<point x="-279" y="279" type="line"/>
		</contour>
	</outline>
	<guideline x="-555" y="343" angle="0" identifier="x4GryepocE"/>
</glyph>
<glyph name="less_bar_bar.cLig" format="2">
	<advance width="600"/>
	<outline>
		<contour>
			<point x="250" y="-79" type="line"/>
			<point x="250" y="708" type="line"/>
			<point x="198" y="708" type="line"/>
			<point x="198" y="-79" type="line"/>
		</contour>
		<contour>
			<point x="-310" y="708" type="line"/>
			<point x="-362" y="708" type="line"/>
			<point x="-920" y="344" type="line"/>
			<point x="-920" y="285" type="line"/>
			<point x="-362" y="-79" type="line"/>
			<point x="-310" y="-79" type="line"/>
		</contour>
		<contour>
			<point x="-362" y="-20" type="line"/>
			<point x="-876" y="314" type="line"/>
			<point x="-362" y="649" type="line"/>
		</contour>
	</outline>
</glyph>
